# Blender v2.59 (sub 0) OBJ File: 'pistol.blend'
# www.blender.org
mtllib pistol_000027.mtl
o Cube.003
v -0.134279 0.154358 0.713365
v -0.108841 0.203819 0.769738
v -0.151210 0.219748 0.774880
v -0.176647 0.170288 0.718507
v -0.094654 0.210402 0.646314
v -0.069216 0.259862 0.702687
v -0.158615 0.276088 0.728791
v -0.184053 0.226628 0.672417
v -0.205468 0.146461 0.772544
v -0.189235 0.178025 0.808518
v -0.158601 0.156748 0.813362
v -0.174833 0.125185 0.777388
vn -0.050274 0.761877 -0.645768
vn 0.852222 -0.518434 0.070312
vn 0.321213 0.624566 0.711857
vn -0.941583 0.130292 0.310558
vn -0.321213 -0.624566 -0.711857
vn -0.790710 0.590548 -0.161339
vn -0.379453 -0.740099 -0.555220
vn 0.760049 -0.618440 0.199645
vn 0.249715 0.483254 0.839111
vn -0.483125 -0.538439 0.690416
usemtl Material.001
s off
f 5//1 8//1 7//1 6//1
f 1//2 5//2 6//2 2//2
f 2//3 6//3 7//3 3//3
f 3//4 7//4 8//4 4//4
f 5//5 1//5 4//5 8//5
f 3//6 4//6 9//6 10//6
f 4//7 1//7 12//7 9//7
f 1//8 2//8 11//8 12//8
f 2//9 3//9 10//9 11//9
f 12//10 11//10 10//10 9//10
o Cube.002
v 0.760536 -0.776263 1.391961
v 0.796708 -0.707730 1.454334
v 0.650900 -0.723369 1.556076
v 0.614729 -0.791902 1.493704
v 0.535489 -0.414562 1.125042
v 0.571661 -0.346028 1.187415
v 0.425853 -0.361667 1.289157
v 0.389681 -0.430201 1.226785
vn 0.447666 -0.719499 0.530958
vn -0.447666 0.719499 -0.530958
vn 0.816930 0.087622 -0.570042
vn 0.363621 0.688944 0.627006
vn -0.816930 -0.087622 0.570042
vn -0.363622 -0.688944 -0.627006
usemtl Material.002
s off
f 13//11 14//11 15//11 16//11
f 17//12 20//12 19//12 18//12
f 13//13 17//13 18//13 14//13
f 14//14 18//14 19//14 15//14
f 15//15 19//15 20//15 16//15
f 17//16 13//16 16//16 20//16
o Cube.001
v 0.163625 0.217379 0.500330
v 0.209243 0.298229 0.609684
v -0.709683 0.363757 0.944576
v -0.755301 0.282907 0.835222
v 0.147938 0.308588 0.439440
v 0.193557 0.389438 0.548794
v -0.725369 0.454965 0.883686
v -0.770988 0.374116 0.774331
v -0.671699 0.412738 0.789061
v -0.664577 0.403213 0.793132
v -0.709104 0.405787 0.809804
v -0.698055 0.414617 0.798667
v -0.667153 0.420795 0.799959
v -0.660031 0.411271 0.804030
v -0.704557 0.413844 0.820702
v -0.693509 0.422675 0.809565
v 0.130763 0.381319 0.504011
v 0.142858 0.356422 0.517373
v 0.092304 0.360027 0.535797
v 0.094633 0.383895 0.517178
v 0.133805 0.386711 0.511304
v 0.145900 0.361814 0.524666
v 0.095347 0.365419 0.543090
v 0.097676 0.389288 0.524471
v 0.086734 0.369894 0.498240
v 0.084404 0.346025 0.516859
v 0.134958 0.342420 0.498435
v 0.122863 0.367318 0.485073
v 0.083691 0.364502 0.490947
v 0.081362 0.340633 0.509566
v 0.131916 0.337028 0.491142
v 0.119821 0.361926 0.477780
vt 0.981492 0.700396
vt 0.981492 0.559075
vt 0.015757 0.559075
vt 0.015757 0.700396
vt 0.256982 0.028856
vt 0.256982 0.201167
vt 0.033870 0.201167
vt 0.033870 0.028856
vt 0.970962 0.782064
vt 0.970962 0.890592
vt 0.010662 0.890592
vt 0.010662 0.782064
vt 0.016806 0.783088
vt 0.016806 0.891616
vt 0.029279 0.489607
vt 0.029280 0.383592
vt 0.967338 0.383592
vt 0.967338 0.489607
vt 0.925445 0.487516
vt 0.912457 0.498835
vt 0.885552 0.498835
vt 0.879885 0.488225
vt 0.094387 0.900039
vt 0.066845 0.900039
vt 0.053548 0.888452
vt 0.100189 0.889177
vt 0.884250 0.887914
vt 0.891057 0.916869
vt 0.928814 0.916869
vt 0.937080 0.887914
vt 0.125150 0.242886
vt 0.110271 0.242886
vt 0.110271 0.196916
vt 0.125150 0.196916
vt 0.107333 0.515275
vt 0.070451 0.515275
vt 0.113983 0.486992
vt 0.062377 0.486992
vt 0.178668 0.242886
vt 0.163788 0.242886
vt 0.163788 0.196916
vt 0.178668 0.196916
vn 0.141599 -0.823314 0.549639
vn -0.141600 0.823314 -0.549639
vn 0.937450 -0.066849 -0.341642
vn 0.318022 0.563636 0.762350
vn -0.937450 0.066848 0.341642
vn -0.318022 -0.563635 -0.762350
vn -0.318021 -0.563635 -0.762351
vn 0.318022 0.563635 0.762350
vn 0.760160 0.328948 -0.560312
vn 0.156157 -0.824254 0.544260
vn -0.722647 0.664614 -0.189917
vn -0.141600 0.823314 -0.549640
vn 0.862561 0.161739 -0.479406
vn 0.141600 -0.823314 0.549639
vn -0.944975 0.253507 0.206776
vn -0.944975 0.253507 0.206777
vn 0.141600 -0.823314 0.549640
vn -0.318022 -0.563636 -0.762350
usemtl _pistol-2_Cube.001-k.t
s off
f 21/1/17 22/2/17 23/3/17 24/4/17
f 25/1/18 28/4/18 27/3/18 26/2/18
f 21/5/19 25/6/19 26/7/19 22/8/19
f 22/9/20 26/10/20 27/11/20 23/12/20
f 23/13/21 27/14/21 28/14/21 24/13/21
f 25/15/22 21/16/22 24/17/22 28/18/22
f 31/19/23 32/20/23 29/21/23 30/22/23
f 33/23/24 36/24/24 35/25/24 34/26/24
f 29/21/25 33/21/25 34/22/25 30/22/25
f 30/22/26 34/22/26 35/19/26 31/19/26
f 31/19/27 35/19/27 36/20/27 32/20/27
f 32/20/28 36/20/28 33/21/28 29/21/28
f 39/27/22 40/28/22 37/29/22 38/30/22
f 41/29/20 44/28/20 43/27/20 42/30/20
f 37/31/29 41/32/29 42/33/29 38/34/29
f 38/30/30 42/30/30 43/27/30 39/27/30
f 39/27/31 43/27/31 44/28/31 40/28/31
f 40/28/28 44/28/28 41/29/28 37/29/28
f 49/35/28 45/35/28 48/36/28 52/36/28
f 50/37/32 46/37/32 45/35/32 49/35/32
f 51/38/33 47/38/33 46/37/33 50/37/33
f 52/39/29 48/40/29 47/41/29 51/42/29
f 48/29/24 45/28/24 46/27/24 47/30/24
f 50/37/34 49/35/34 52/36/34 51/38/34
o Cube
v 0.301136 -0.152720 0.738674
v 0.340146 -0.083581 0.832188
v 0.152512 -0.091500 0.916317
v 0.113502 -0.160639 0.822802
v 0.130217 0.098421 0.624296
v 0.169227 0.167560 0.717810
v -0.000750 0.179185 0.780123
v -0.039761 0.110046 0.686609
v -0.078706 0.112291 0.700830
v -0.039518 0.181744 0.794769
v 0.076698 -0.170847 0.845337
v 0.115885 -0.101394 0.939276
v 0.199958 0.164040 0.703332
v 0.163014 0.098563 0.614771
v 0.370809 -0.067906 0.803546
v 0.333865 -0.133382 0.714985
v 0.119152 0.188496 0.566577
v 0.156096 0.253972 0.655138
v -0.101385 0.272961 0.753138
v -0.140573 0.203507 0.659198
v -0.101628 0.201263 0.644977
v -0.062617 0.270401 0.738491
v 0.107360 0.258777 0.676179
v 0.068350 0.189638 0.582664
v 0.372896 -0.186520 0.755241
v 0.401475 -0.135869 0.823750
v 0.146297 -0.169807 0.958871
v 0.115983 -0.223534 0.886202
v 0.152766 -0.213362 0.863619
v 0.182944 -0.159878 0.935960
v 0.370578 -0.151959 0.851831
v 0.340400 -0.205443 0.779491
v 0.055036 0.257606 0.537967
v 0.094046 0.326745 0.631481
v -0.075931 0.338370 0.693794
v -0.114941 0.269231 0.600280
v -0.153887 0.271476 0.614501
v -0.114699 0.340929 0.708440
v 0.142783 0.321940 0.610441
v 0.105839 0.256464 0.521880
v 0.130291 0.254916 0.512824
v 0.167235 0.320392 0.601385
v 0.180549 0.252424 0.646083
v 0.143605 0.186947 0.557522
v 0.183967 0.202379 0.529275
v 0.220911 0.267855 0.617836
v 0.210726 0.317638 0.585278
v 0.173782 0.252162 0.496717
v 0.192574 0.250992 0.489743
v 0.229518 0.316468 0.578304
v 0.237998 0.276604 0.604240
v 0.201054 0.211128 0.515679
v -0.110272 0.132062 0.745984
v -0.093681 0.161465 0.785753
v -0.071708 0.140044 0.792425
v -0.088298 0.110640 0.752655
v -0.148699 0.095997 0.788678
v -0.132109 0.125400 0.828448
v -0.138823 0.151341 0.812070
v -0.155414 0.121937 0.772301
v -0.307636 0.137389 0.824378
v -0.291046 0.166792 0.864147
v -0.284331 0.140852 0.880525
v -0.300921 0.111448 0.840755
v -0.339122 0.110795 0.857174
v -0.322532 0.140199 0.896944
v -0.329247 0.166139 0.880566
v -0.345837 0.136736 0.840796
v -0.364978 0.219267 0.741159
v -0.325790 0.288720 0.835099
v -0.294971 0.287303 0.823290
v -0.334159 0.217850 0.729351
v -0.308040 0.353171 0.780043
v -0.347227 0.283718 0.686103
v -0.377950 0.285642 0.697497
v -0.338762 0.355095 0.791436
v -0.675646 0.377151 0.915664
v -0.714833 0.307698 0.821724
v -0.662674 0.310776 0.959326
v -0.701862 0.241323 0.865387
v -0.742082 0.391937 0.820254
v -0.741853 0.367706 0.825624
v -0.737213 0.348619 0.842090
v -0.729935 0.341967 0.863362
v -0.722798 0.350290 0.881316
v -0.718529 0.370409 0.889094
v -0.718758 0.394640 0.883724
v -0.723398 0.413726 0.867258
v -0.730676 0.420379 0.845986
v -0.737813 0.412056 0.828032
v -0.443197 0.370623 0.711329
v -0.442968 0.346393 0.716699
v -0.438328 0.327306 0.733165
v -0.431050 0.320654 0.754437
v -0.423913 0.328977 0.772391
v -0.419644 0.349096 0.780169
v -0.419873 0.373326 0.774799
v -0.424513 0.392413 0.758333
v -0.431791 0.399065 0.737061
v -0.438928 0.390742 0.719107
v -0.737817 0.388038 0.832720
v -0.737671 0.372583 0.836145
v -0.734711 0.360409 0.846647
v -0.730069 0.356166 0.860216
v -0.725517 0.361475 0.871668
v -0.722794 0.374307 0.876628
v -0.722940 0.389763 0.873203
v -0.725899 0.401937 0.862701
v -0.730542 0.406180 0.849132
v -0.735094 0.400871 0.837681
v -0.571173 0.360710 0.775467
v -0.571319 0.376166 0.772042
v -0.568214 0.348536 0.785969
v -0.563571 0.344293 0.799538
v -0.559019 0.349602 0.810989
v -0.556296 0.362435 0.815950
v -0.556442 0.377890 0.812525
v -0.559402 0.390064 0.802023
v -0.564044 0.394307 0.788454
v -0.568596 0.388998 0.777003
v 0.770902 -0.278468 0.009500
v 0.822706 -0.449491 0.188481
v 0.015144 -0.216294 0.745836
v -0.169099 0.093924 0.593339
v 0.887080 -0.072563 0.287997
v 0.938884 -0.243587 0.466978
v 0.131322 -0.010390 1.024333
v -0.052921 0.299828 0.871836
vt 0.927200 0.246707
vt 0.827427 0.459240
vt 0.696213 0.458799
vt 0.779567 0.227763
vt 0.193673 0.133961
vt 0.387467 0.042986
vt 0.404740 0.177602
vt 0.194075 0.253606
vt 0.415015 0.204984
vt 0.194375 0.280989
vt 0.666182 0.458471
vt 0.749536 0.216495
vt 0.333858 0.810420
vt 0.482548 0.810420
vt 0.482548 0.959111
vt 0.333858 0.959111
vt 0.954311 0.264288
vt 0.852013 0.459752
vt -0.727496 0.474897
vt -0.701703 0.474897
vt -0.701703 0.500689
vt -0.727496 0.500689
vt -1.408821 0.790398
vt -1.364616 0.790398
vt -1.364616 0.834602
vt -1.408821 0.834602
vt 0.193206 0.111543
vt 0.123273 0.166853
vt 0.122807 0.131768
vt 0.829833 0.536959
vt 0.791355 0.536447
vt 0.660140 0.536006
vt 0.630110 0.535678
vt 0.123975 0.313881
vt 0.123676 0.286498
vt 0.371435 0.018265
vt 0.418527 0.000861
vt 0.434558 0.025582
vt 0.946287 0.195062
vt 0.973398 0.212643
vt 0.768623 0.164850
vt 0.798654 0.176118
vt 0.451832 0.160198
vt 0.462106 0.187580
vt 0.069323 0.287655
vt 0.068921 0.168010
vt 0.790086 0.596056
vt 0.658872 0.595615
vt 0.069622 0.315037
vt 0.628841 0.595287
vt 0.828564 0.596568
vt 0.068454 0.132924
vt 0.068295 0.115698
vt 0.122648 0.114541
vt 0.848726 0.537133
vt 0.847457 0.596742
vt 0.296481 0.778563
vt 0.465802 0.778563
vt 0.465802 0.947884
vt 0.296481 0.947884
vt 0.882328 0.553418
vt 0.881059 0.597051
vt 0.108976 0.116494
vt 0.054623 0.117651
vt 0.054341 0.087011
vt 0.094127 0.085854
vt 0.107799 0.083901
vt 0.068013 0.085058
vt 0.067876 0.071816
vt 0.099715 0.070660
vt 0.896850 0.562283
vt 0.895581 0.597202
vt 0.213162 0.298524
vt 0.197060 0.311551
vt 0.632665 0.455526
vt 0.646952 0.437867
vt 0.000000 0.000000
vt 1.000000 0.000000
vt 1.000000 1.000000
vt 0.000000 1.000000
vt 0.309848 0.788364
vt 0.475308 0.788364
vt 0.475308 0.953824
vt 0.309848 0.953824
vt 0.596042 0.443658
vt 0.597803 0.421011
vt 0.228531 0.343339
vt 0.207881 0.344944
vt 0.224803 0.449870
vt 0.204153 0.451475
vt 0.479211 0.447746
vt 0.480971 0.425100
vt 0.314329 0.792844
vt 0.470828 0.792844
vt 0.470828 0.949343
vt 0.314329 0.949343
vt 0.206892 0.478764
vt 0.227542 0.477159
vt 0.124172 0.471787
vt 0.123539 0.450009
vt 0.449283 0.444743
vt 0.480819 0.536156
vt 0.456935 0.535462
vt 0.306798 0.789219
vt 0.474452 0.789219
vt 0.474452 0.956874
vt 0.306798 0.956874
vt 0.479459 0.593913
vt 0.070875 0.451248
vt 0.302167 0.788495
vt 0.479083 0.788495
vt 0.479083 0.965412
vt 0.302167 0.965412
vt 0.071091 0.472895
vt 0.455719 0.593675
vt 0.125767 0.709036
vt 0.072686 0.710145
vt 0.195528 0.591926
vt 0.196743 0.533713
vt 0.336313 0.795297
vt 0.444937 0.795297
vt 0.444937 0.903921
vt 0.336313 0.903921
vt 0.038819 0.761475
vt 0.258057 0.761475
vt 0.258057 0.980713
vt 0.038819 0.980713
vt 0.543634 0.830499
vt 0.640937 0.830499
vt 0.640937 0.927802
vt 0.543634 0.927802
vt 0.538555 0.806133
vt 0.633320 0.806133
vt 0.633320 0.900898
vt 0.538555 0.900898
vn -0.312432 -0.562218 -0.765700
vn 0.323596 0.565027 0.758966
vn -0.840219 -0.204942 0.502027
vn 0.383788 0.587856 0.712132
vn -0.249891 -0.535225 -0.806901
vn 0.764916 0.322540 -0.557558
vn -0.251754 -0.543880 -0.800509
vn 0.861909 0.163078 -0.480123
vn 0.382305 0.579875 0.719436
vn 0.323835 0.565744 0.758330
vn -0.312189 -0.561496 -0.766329
vn 0.830232 0.222706 -0.510995
vn -0.145582 -0.667161 -0.730549
vn 0.477275 0.436739 0.762541
vn -0.830233 -0.222706 0.510995
vn 0.400464 0.412784 0.818070
vn -0.225194 -0.696080 -0.681733
vn 0.360391 0.402177 0.841649
vn -0.264792 -0.705844 -0.657015
vn 0.259762 -0.825127 0.501687
vn 0.461905 -0.794321 0.394585
vn 0.628867 -0.727152 0.275275
vn -0.311738 -0.563954 -0.764706
vn 0.324289 0.563291 0.759960
vn 0.374373 0.559581 0.739401
vn -0.260486 -0.565593 -0.782465
vn -0.144752 0.823534 -0.548487
vn -0.151833 0.823995 -0.545874
vn -0.154058 0.824131 -0.545046
vn -0.150217 0.823894 -0.546473
vn 0.150216 -0.823894 0.546474
vn 0.536270 -0.770043 0.345613
vn 0.318021 0.563635 0.762350
vn -0.318021 -0.563635 -0.762350
vn -0.150215 0.823894 -0.546474
vn -0.151345 0.823965 -0.546055
vn -0.318021 -0.563636 -0.762350
vn 0.609317 -0.737552 0.291119
vn 0.931692 -0.036916 -0.361369
vn -0.730989 -0.642585 -0.229653
vn -0.932462 0.040583 0.358981
vn -0.241407 0.225109 0.943954
vn 0.781939 -0.610637 0.125275
vn 0.438050 -0.800475 0.409087
vn -0.423706 0.803822 -0.417545
vn -0.108727 0.820472 -0.561252
vn 0.318021 0.563636 0.762350
vn 0.108727 -0.820472 0.561252
vn 0.234500 -0.825874 0.512778
vn -0.923658 0.002848 0.383207
vn -0.946034 0.135811 0.294237
vn -0.248557 -0.770570 -0.586892
vn 0.362543 0.312494 0.878015
vn 0.939869 -0.081808 -0.331592
vn -0.168772 0.824909 -0.539483
vn 0.138594 -0.823096 0.550731
vn -0.150957 0.823941 -0.546199
vn -0.147900 0.823745 -0.547330
vn 0.147900 -0.823745 0.547330
vn -0.934289 0.049648 0.353042
vn -0.347999 -0.205969 -0.914589
vn -0.297356 -0.664077 -0.685989
vn -0.157581 -0.956574 -0.245224
vn 0.078114 -0.915971 0.393567
vn 0.288952 -0.397913 0.870730
vn 0.347999 0.205967 0.914590
vn 0.297355 0.664078 0.685989
vn 0.157581 0.956574 0.245223
vn -0.078114 0.915971 -0.393568
vn -0.288952 0.397916 -0.870729
vn -0.937452 0.066847 0.341637
vn -0.937452 0.066845 0.341637
vn -0.937450 0.066842 0.341641
vn -0.937449 0.066846 0.341644
vn -0.937449 0.066847 0.341645
vn -0.937447 0.066850 0.341648
vn -0.937448 0.066852 0.341646
vn -0.937449 0.066852 0.341643
vn -0.937450 0.066851 0.341640
vn -0.937451 0.066851 0.341639
vn 0.297356 0.664077 0.685989
vn -0.078113 0.915972 -0.393566
vn -0.288952 0.397914 -0.870730
vn -0.347999 -0.205967 -0.914590
vn -0.157582 -0.956573 -0.245226
vn 0.078113 -0.915972 0.393566
vn 0.288952 -0.397916 0.870730
vn -0.563699 -0.637909 -0.524705
vn 0.563699 0.637909 0.524705
vn 0.938101 -0.070694 -0.339071
vn -0.823180 -0.234767 0.516971
vn -0.040632 0.811460 -0.582994
usemtl Material_pistol_Cube-k.tga
s off
f 54/43/24 58/44/24 59/45/24 55/46/24
f 57/47/22 53/48/22 56/49/22 60/50/22
f 60/50/35 56/49/35 63/51/35 61/52/35
f 55/46/36 59/45/36 62/53/36 64/54/36
f 64/55/37 62/56/37 61/57/37 63/58/37
f 58/44/38 54/43/38 67/59/38 65/60/38
f 53/61/39 57/62/39 66/63/39 68/64/39
f 68/65/40 66/66/40 65/67/40 67/68/40
f 66/69/41 57/47/41 76/70/41 69/71/41
f 65/55/42 66/56/42 69/57/42 70/58/42
f 58/44/43 65/60/43 70/72/43 75/73/43
f 62/53/44 59/45/44 74/74/44 71/75/44
f 60/50/45 61/52/45 72/76/45 73/77/45
f 59/45/24 58/44/24 75/73/24 74/74/24
f 57/47/34 60/50/34 73/77/34 76/70/34
f 68/55/46 67/56/46 78/57/46 77/58/46
f 53/48/47 68/78/47 77/79/47 84/80/47
f 67/59/48 54/43/48 83/81/48 78/82/48
f 64/55/49 63/56/49 80/57/49 79/58/49
f 55/46/50 64/54/50 79/83/50 82/84/50
f 63/51/51 56/49/51 81/85/51 80/86/51
f 54/43/52 55/46/52 82/84/52 83/81/52
f 56/49/53 53/48/53 84/80/53 81/85/53
f 84/55/54 83/56/54 82/57/54 81/58/54
f 81/55/55 82/56/55 79/57/55 80/58/55
f 83/55/56 84/56/56 77/57/56 78/58/56
f 76/70/22 73/77/22 88/87/22 85/88/22
f 74/74/24 75/73/24 86/89/24 87/90/24
f 73/77/57 72/76/57 89/91/57 88/87/57
f 71/75/58 74/74/58 87/90/58 90/92/58
f 75/73/59 70/72/59 91/93/59 86/89/59
f 69/71/60 76/70/60 85/88/60 92/94/60
f 85/65/61 88/66/61 87/67/61 86/68/61
f 87/65/62 88/66/62 89/67/62 90/68/62
f 85/65/63 86/66/63 91/67/63 92/68/63
f 92/65/64 91/66/64 94/67/64 93/68/64
f 69/71/22 92/94/22 93/95/22 96/96/22
f 91/93/24 70/72/24 95/97/24 94/98/24
f 70/99/65 69/100/65 96/101/65 95/102/65
f 95/55/66 96/56/66 97/57/66 98/58/66
f 94/98/67 95/97/67 98/103/67 99/104/67
f 96/105/68 93/106/68 100/107/68 97/108/68
f 93/65/69 94/66/69 99/67/69 100/68/69
f 100/65/70 99/66/70 102/67/70 101/68/70
f 97/109/71 100/110/71 101/111/71 104/112/71
f 99/104/20 98/103/20 103/113/20 102/114/20
f 98/55/72 97/56/72 104/57/72 103/58/72
f 103/55/73 104/56/73 101/57/73 102/58/73
f 72/76/74 61/52/74 108/115/74 105/116/74
f 71/55/75 72/56/75 105/57/75 106/58/75
f 62/53/76 71/75/76 106/117/76 107/118/76
f 61/119/77 62/120/77 107/121/77 108/122/77
f 108/123/78 107/124/78 110/125/78 109/126/78
f 107/118/20 106/117/20 111/127/20 110/128/20
f 106/55/79 105/56/79 112/57/79 111/58/79
f 105/116/34 108/115/34 109/129/34 112/130/34
f 112/130/34 109/129/34 116/131/34 113/132/34
f 111/55/80 112/56/80 113/57/80 114/58/80
f 110/128/81 111/127/81 114/133/81 115/134/81
f 109/123/82 110/124/82 115/125/82 116/126/82
f 116/135/83 115/136/83 118/137/83 117/138/83
f 115/131/20 114/132/20 119/139/20 118/140/20
f 113/132/22 116/131/22 117/140/22 120/139/22
f 117/55/84 118/56/84 119/57/84 120/58/84
f 120/55/85 119/56/85 122/57/85 121/58/85
f 113/132/86 120/139/86 121/141/86 124/142/86
f 119/143/87 114/133/87 123/144/87 122/145/87
f 114/146/88 113/147/88 124/148/88 123/149/88
f 123/65/89 124/66/89 121/67/89 122/68/89
f 90/65/69 89/66/69 126/67/69 125/68/69
f 71/75/24 90/92/24 125/150/24 123/144/24
f 89/91/22 72/76/22 124/142/22 126/151/22
f 72/152/90 71/153/90 123/154/90 124/155/90
f 126/151/68 124/142/68 121/141/68 127/156/68
f 123/144/67 125/150/67 128/157/67 122/145/67
f 125/65/91 126/66/91 127/67/91 128/68/91
f 127/156/22 121/141/22 132/158/22 130/159/22
f 122/145/24 128/157/24 129/160/24 131/161/24
f 128/162/92 127/163/92 130/164/92 129/165/92
f 121/99/93 122/100/93 131/101/93 132/102/93
f 132/55/94 131/56/94 129/57/94 130/58/94
f 133/166/95 143/167/95 144/168/95 134/169/95
f 134/166/96 144/167/96 145/168/96 135/169/96
f 135/166/97 145/167/97 146/168/97 136/169/97
f 136/166/98 146/167/98 147/168/98 137/169/98
f 137/166/99 147/167/99 148/168/99 138/169/99
f 138/166/100 148/167/100 149/168/100 139/169/100
f 139/166/101 149/167/101 150/168/101 140/169/101
f 140/166/102 150/167/102 151/168/102 141/169/102
f 141/166/103 151/167/103 152/168/103 142/169/103
f 142/166/104 152/167/104 143/168/104 133/169/104
f 133/166/105 134/167/105 154/168/105 153/169/105
f 134/166/106 135/167/106 155/168/106 154/169/106
f 135/166/107 136/167/107 156/168/107 155/169/107
f 136/166/108 137/167/108 157/168/108 156/169/108
f 137/166/109 138/167/109 158/168/109 157/169/109
f 138/166/110 139/167/110 159/168/110 158/169/110
f 139/166/111 140/167/111 160/168/111 159/169/111
f 140/166/112 141/167/112 161/168/112 160/169/112
f 141/166/113 142/167/113 162/168/113 161/169/113
f 142/166/114 133/167/114 153/168/114 162/169/114
f 153/166/100 154/167/100 163/168/100 164/169/100
f 154/166/115 155/167/115 165/168/115 163/169/115
f 155/166/102 156/167/102 166/168/102 165/169/102
f 156/166/116 157/167/116 167/168/116 166/169/116
f 157/166/117 158/167/117 168/168/117 167/169/117
f 158/166/118 159/167/118 169/168/118 168/169/118
f 159/166/96 160/167/96 170/168/96 169/169/96
f 160/166/119 161/167/119 171/168/119 170/169/119
f 161/166/120 162/167/120 172/168/120 171/169/120
f 162/166/121 153/167/121 164/168/121 172/169/121
f 175/170/122 176/171/122 173/172/122 174/173/122
f 177/170/123 180/171/123 179/172/123 178/173/123
f 173/170/124 177/171/124 178/172/124 174/173/124
f 174/170/17 178/171/17 179/172/17 175/173/17
f 175/174/125 179/175/125 180/176/125 176/177/125
f 176/170/126 180/171/126 177/172/126 173/173/126
