# Blender v2.59 (sub 0) OBJ File: 'pistol.blend'
# www.blender.org
mtllib pistol_000031.mtl
o Cube.003
v -0.169987 0.127897 0.662203
v -0.159605 0.168328 0.729500
v -0.200110 0.188358 0.723715
v -0.210491 0.147928 0.656417
v -0.107273 0.185470 0.617940
v -0.096891 0.225901 0.685237
v -0.188442 0.249465 0.685203
v -0.198824 0.209035 0.617906
v -0.256436 0.122274 0.695777
v -0.249811 0.148075 0.738723
v -0.223941 0.123096 0.749739
v -0.230566 0.097295 0.706793
vn 0.212015 0.822929 -0.527103
vn 0.745403 -0.615901 0.255029
vn 0.131095 0.510541 0.849801
vn -0.978461 0.204515 0.028074
vn -0.131095 -0.510541 -0.849801
vn -0.653259 0.689263 -0.313318
vn -0.243895 -0.633703 -0.734122
vn 0.610148 -0.717168 0.336733
vn 0.012883 0.366305 0.930406
vn -0.713928 -0.546129 0.438236
usemtl Material.001
s off
f 5//1 8//1 7//1 6//1
f 1//2 5//2 6//2 2//2
f 2//3 6//3 7//3 3//3
f 3//4 7//4 8//4 4//4
f 5//5 1//5 4//5 8//5
f 3//6 4//6 9//6 10//6
f 4//7 1//7 12//7 9//7
f 1//8 2//8 11//8 12//8
f 2//9 3//9 10//9 11//9
f 12//10 11//10 10//10 9//10
o Cube.002
v 0.221581 -0.339993 0.709413
v 0.236342 -0.308443 0.802592
v 0.062219 -0.327757 0.836715
v 0.047458 -0.359307 0.743536
v 0.140145 0.133652 0.561939
v 0.154906 0.165202 0.655118
v -0.019217 0.145888 0.689240
v -0.033978 0.114338 0.596062
vn 0.161993 -0.942178 0.293357
vn -0.161993 0.942178 -0.293357
vn 0.975572 0.108208 -0.191181
vn 0.148384 0.317161 0.936692
vn -0.975572 -0.108208 0.191181
vn -0.148384 -0.317161 -0.936691
usemtl Material.002
s off
f 13//11 14//11 15//11 16//11
f 17//12 20//12 19//12 18//12
f 13//13 17//13 18//13 14//13
f 14//14 18//14 19//14 15//14
f 15//15 19//15 20//15 16//15
f 17//16 13//16 16//16 20//16
o Cube.001
v 0.177973 0.237427 0.526072
v 0.203504 0.280355 0.660539
v -0.760867 0.313558 0.833039
v -0.786398 0.270630 0.698572
v 0.175657 0.343065 0.492787
v 0.201187 0.385993 0.627255
v -0.763184 0.419196 0.799755
v -0.788715 0.376268 0.665287
v -0.693343 0.401893 0.707884
v -0.687284 0.391120 0.710173
v -0.734108 0.392027 0.718773
v -0.721002 0.402846 0.712831
v -0.690799 0.406172 0.721285
v -0.684740 0.395398 0.723574
v -0.731563 0.396305 0.732174
v -0.718458 0.407124 0.726232
v 0.147855 0.395464 0.571754
v 0.156774 0.366996 0.579149
v 0.103720 0.368822 0.588638
v 0.109938 0.396770 0.578536
v 0.149557 0.398327 0.580721
v 0.158477 0.369858 0.588116
v 0.105423 0.371685 0.597606
v 0.111641 0.399633 0.587504
v 0.105517 0.389336 0.555249
v 0.099299 0.361388 0.565352
v 0.152353 0.359561 0.555862
v 0.143433 0.388030 0.548467
v 0.103814 0.386473 0.546281
v 0.097596 0.358525 0.556384
v 0.150650 0.356699 0.546894
v 0.141731 0.385167 0.539499
vt 0.981492 0.700396
vt 0.981492 0.559075
vt 0.015757 0.559075
vt 0.015757 0.700396
vt 0.256982 0.028856
vt 0.256982 0.201167
vt 0.033870 0.201167
vt 0.033870 0.028856
vt 0.970962 0.782064
vt 0.970962 0.890592
vt 0.010662 0.890592
vt 0.010662 0.782064
vt 0.016806 0.783088
vt 0.016806 0.891616
vt 0.029279 0.489607
vt 0.029280 0.383592
vt 0.967338 0.383592
vt 0.967338 0.489607
vt 0.925445 0.487516
vt 0.912457 0.498835
vt 0.885552 0.498835
vt 0.879885 0.488225
vt 0.094387 0.900039
vt 0.066845 0.900039
vt 0.053548 0.888452
vt 0.100189 0.889177
vt 0.884250 0.887914
vt 0.891057 0.916869
vt 0.928814 0.916869
vt 0.937080 0.887914
vt 0.125150 0.242886
vt 0.110271 0.242886
vt 0.110271 0.196916
vt 0.125150 0.196916
vt 0.107333 0.515275
vt 0.070451 0.515275
vt 0.113983 0.486992
vt 0.062377 0.486992
vt 0.178668 0.242886
vt 0.163788 0.242886
vt 0.163788 0.196916
vt 0.178668 0.196916
vn 0.020911 -0.953568 0.300450
vn -0.020911 0.953568 -0.300450
vn 0.983811 -0.033872 -0.175977
vn 0.177983 0.299266 0.937423
vn -0.983811 0.033872 0.175976
vn -0.177983 -0.299266 -0.937423
vn -0.177984 -0.299268 -0.937422
vn 0.857917 0.419405 -0.296779
vn 0.036205 -0.953980 0.297676
vn -0.662119 0.741149 -0.110892
vn -0.020911 0.953569 -0.300449
vn -0.177983 -0.299267 -0.937423
vn 0.940273 0.229206 -0.251697
vn 0.020911 -0.953568 0.300451
vn -0.962484 0.251217 0.102541
vn -0.020911 0.953568 -0.300452
vn 0.020911 -0.953569 0.300449
usemtl _pistol-2_Cube.001-k.t
s off
f 21/1/17 22/2/17 23/3/17 24/4/17
f 25/1/18 28/4/18 27/3/18 26/2/18
f 21/5/19 25/6/19 26/7/19 22/8/19
f 22/9/20 26/10/20 27/11/20 23/12/20
f 23/13/21 27/14/21 28/14/21 24/13/21
f 25/15/22 21/16/22 24/17/22 28/18/22
f 31/19/23 32/20/23 29/21/23 30/22/23
f 33/23/20 36/24/20 35/25/20 34/26/20
f 29/21/24 33/21/24 34/22/24 30/22/24
f 30/22/25 34/22/25 35/19/25 31/19/25
f 31/19/26 35/19/26 36/20/26 32/20/26
f 32/20/27 36/20/27 33/21/27 29/21/27
f 39/27/28 40/28/28 37/29/28 38/30/28
f 41/29/20 44/28/20 43/27/20 42/30/20
f 37/31/29 41/32/29 42/33/29 38/34/29
f 38/30/30 42/30/30 43/27/30 39/27/30
f 39/27/31 43/27/31 44/28/31 40/28/31
f 40/28/32 44/28/32 41/29/32 37/29/32
f 49/35/32 45/35/32 48/36/32 52/36/32
f 50/37/31 46/37/31 45/35/31 49/35/31
f 51/38/33 47/38/33 46/37/33 50/37/33
f 52/39/29 48/40/29 47/41/29 51/42/29
f 48/29/20 45/28/20 46/27/20 47/30/20
f 50/37/22 49/35/22 52/36/22 51/38/22
o Cube
v 0.272795 -0.184647 0.650333
v 0.294627 -0.147937 0.765323
v 0.094369 -0.165999 0.809111
v 0.072537 -0.202709 0.694121
v 0.130943 0.100219 0.586324
v 0.152775 0.136929 0.701314
v -0.025686 0.142492 0.733421
v -0.047518 0.105782 0.618431
v -0.088404 0.106672 0.625612
v -0.066473 0.143549 0.741125
v 0.031967 -0.216241 0.705846
v 0.053899 -0.179364 0.821359
v 0.185623 0.135480 0.692074
v 0.164947 0.100715 0.583175
v 0.330416 -0.127001 0.748378
v 0.309740 -0.161766 0.639479
v 0.132546 0.203540 0.556501
v 0.153222 0.238305 0.665400
v -0.117769 0.247024 0.717830
v -0.139701 0.210148 0.602318
v -0.098815 0.209258 0.595137
v -0.076982 0.245967 0.710127
v 0.101479 0.240404 0.678019
v 0.079646 0.203695 0.563029
v 0.339536 -0.226811 0.668617
v 0.355530 -0.199917 0.752859
v 0.078870 -0.252520 0.825090
v 0.061904 -0.281047 0.735732
v 0.102463 -0.267533 0.723948
v 0.119352 -0.239135 0.812901
v 0.319610 -0.221074 0.769114
v 0.302721 -0.249472 0.680160
v 0.076198 0.282339 0.538577
v 0.098030 0.319049 0.653567
v -0.080431 0.324612 0.685674
v -0.102263 0.287902 0.570685
v -0.143150 0.288793 0.577866
v -0.121218 0.325669 0.693378
v 0.149773 0.316950 0.640947
v 0.129098 0.282185 0.532049
v 0.154790 0.281529 0.527380
v 0.175466 0.316294 0.636279
v 0.178914 0.237649 0.660731
v 0.158238 0.202884 0.551832
v 0.203472 0.222780 0.536892
v 0.224148 0.257545 0.645791
v 0.221161 0.315128 0.627975
v 0.200486 0.280363 0.519076
v 0.220234 0.279882 0.515480
v 0.240910 0.314647 0.624379
v 0.243645 0.268553 0.638575
v 0.222969 0.233788 0.529676
v -0.127585 0.114992 0.668295
v -0.118300 0.130604 0.717198
v -0.098357 0.106654 0.721058
v -0.107642 0.091042 0.672155
v -0.174006 0.071122 0.691114
v -0.164721 0.086734 0.740017
v -0.167770 0.116673 0.731038
v -0.177055 0.101061 0.682135
v -0.336084 0.111922 0.708862
v -0.326799 0.127534 0.757765
v -0.323750 0.097595 0.766743
v -0.333035 0.081983 0.717840
v -0.373655 0.079425 0.726369
v -0.364370 0.095037 0.775272
v -0.367419 0.124976 0.766293
v -0.376704 0.109364 0.717390
v -0.375242 0.217973 0.644540
v -0.353310 0.254850 0.760053
v -0.320844 0.254647 0.753954
v -0.342776 0.217770 0.638441
v -0.324363 0.330854 0.730293
v -0.346295 0.293977 0.614781
v -0.378578 0.294776 0.620655
v -0.356646 0.331653 0.736168
v -0.710500 0.341531 0.800198
v -0.732431 0.304654 0.684686
v -0.707163 0.264728 0.824084
v -0.729095 0.227852 0.708571
v -0.757447 0.387558 0.703179
v -0.758656 0.362850 0.701172
v -0.757543 0.339587 0.711875
v -0.754531 0.326656 0.731201
v -0.750772 0.328996 0.751766
v -0.747701 0.345713 0.765717
v -0.746491 0.370421 0.767723
v -0.747605 0.393684 0.757020
v -0.750617 0.406615 0.737694
v -0.754376 0.404275 0.717129
v -0.443780 0.376759 0.647072
v -0.444990 0.352050 0.645066
v -0.443876 0.328788 0.655769
v -0.440865 0.315857 0.675094
v -0.437105 0.318197 0.695660
v -0.434034 0.334913 0.709610
v -0.432825 0.359622 0.711617
v -0.433939 0.382884 0.700913
v -0.436950 0.395815 0.681588
v -0.440709 0.393475 0.661022
v -0.755682 0.379981 0.714503
v -0.756454 0.364221 0.713223
v -0.755743 0.349383 0.720050
v -0.753822 0.341135 0.732377
v -0.751424 0.342627 0.745494
v -0.749466 0.353290 0.754392
v -0.748694 0.369050 0.755672
v -0.749405 0.383888 0.748845
v -0.751325 0.392136 0.736519
v -0.753723 0.390643 0.723401
v -0.581722 0.358205 0.681968
v -0.580950 0.373965 0.683248
v -0.581011 0.343367 0.688795
v -0.579091 0.335119 0.701122
v -0.576693 0.336611 0.714239
v -0.574734 0.347274 0.723138
v -0.573962 0.363034 0.724418
v -0.574673 0.377872 0.717590
v -0.576594 0.386120 0.705264
v -0.578991 0.384627 0.692146
v 0.869614 -0.131125 0.010700
v 0.883697 -0.349240 0.137957
v -0.010457 -0.226984 0.588205
v -0.157165 0.126156 0.503322
v 0.934634 -0.021799 0.353154
v 0.948716 -0.239914 0.480411
v 0.054562 -0.117658 0.930659
v -0.092146 0.235482 0.845776
vt 0.927200 0.246707
vt 0.827427 0.459240
vt 0.696213 0.458799
vt 0.779567 0.227763
vt 0.193673 0.133961
vt 0.387467 0.042986
vt 0.404740 0.177602
vt 0.194075 0.253606
vt 0.415015 0.204984
vt 0.194375 0.280989
vt 0.666182 0.458471
vt 0.749536 0.216495
vt 0.333858 0.810420
vt 0.482548 0.810420
vt 0.482548 0.959111
vt 0.333858 0.959111
vt 0.954311 0.264288
vt 0.852013 0.459752
vt -0.727496 0.474897
vt -0.701703 0.474897
vt -0.701703 0.500689
vt -0.727496 0.500689
vt -1.408821 0.790398
vt -1.364616 0.790398
vt -1.364616 0.834602
vt -1.408821 0.834602
vt 0.193206 0.111543
vt 0.123273 0.166853
vt 0.122807 0.131768
vt 0.829833 0.536959
vt 0.791355 0.536447
vt 0.660140 0.536006
vt 0.630110 0.535678
vt 0.123975 0.313881
vt 0.123676 0.286498
vt 0.371435 0.018265
vt 0.418527 0.000861
vt 0.434558 0.025582
vt 0.946287 0.195062
vt 0.973398 0.212643
vt 0.768623 0.164850
vt 0.798654 0.176118
vt 0.451832 0.160198
vt 0.462106 0.187580
vt 0.069323 0.287655
vt 0.068921 0.168010
vt 0.790086 0.596056
vt 0.658872 0.595615
vt 0.069622 0.315037
vt 0.628841 0.595287
vt 0.828564 0.596568
vt 0.068454 0.132924
vt 0.068295 0.115698
vt 0.122648 0.114541
vt 0.848726 0.537133
vt 0.847457 0.596742
vt 0.296481 0.778563
vt 0.465802 0.778563
vt 0.465802 0.947884
vt 0.296481 0.947884
vt 0.882328 0.553418
vt 0.881059 0.597051
vt 0.108976 0.116494
vt 0.054623 0.117651
vt 0.054341 0.087011
vt 0.094127 0.085854
vt 0.107799 0.083901
vt 0.068013 0.085058
vt 0.067876 0.071816
vt 0.099715 0.070660
vt 0.896850 0.562283
vt 0.895581 0.597202
vt 0.213162 0.298524
vt 0.197060 0.311551
vt 0.632665 0.455526
vt 0.646952 0.437867
vt 0.000000 0.000000
vt 1.000000 0.000000
vt 1.000000 1.000000
vt 0.000000 1.000000
vt 0.309848 0.788364
vt 0.475308 0.788364
vt 0.475308 0.953824
vt 0.309848 0.953824
vt 0.596042 0.443658
vt 0.597803 0.421011
vt 0.228531 0.343339
vt 0.207881 0.344944
vt 0.224803 0.449870
vt 0.204153 0.451475
vt 0.479211 0.447746
vt 0.480971 0.425100
vt 0.314329 0.792844
vt 0.470828 0.792844
vt 0.470828 0.949343
vt 0.314329 0.949343
vt 0.206892 0.478764
vt 0.227542 0.477159
vt 0.124172 0.471787
vt 0.123539 0.450009
vt 0.449283 0.444743
vt 0.480819 0.536156
vt 0.456935 0.535462
vt 0.306798 0.789219
vt 0.474452 0.789219
vt 0.474452 0.956874
vt 0.306798 0.956874
vt 0.479459 0.593913
vt 0.070875 0.451248
vt 0.302167 0.788495
vt 0.479083 0.788495
vt 0.479083 0.965412
vt 0.302167 0.965412
vt 0.071091 0.472895
vt 0.455719 0.593675
vt 0.125767 0.709036
vt 0.072686 0.710145
vt 0.195528 0.591926
vt 0.196743 0.533713
vt 0.336313 0.795297
vt 0.444937 0.795297
vt 0.444937 0.903921
vt 0.336313 0.903921
vt 0.038819 0.761475
vt 0.258057 0.761475
vt 0.258057 0.980713
vt 0.038819 0.980713
vt 0.543634 0.830499
vt 0.640937 0.830499
vt 0.640937 0.927802
vt 0.543634 0.927802
vt 0.538555 0.806133
vt 0.633320 0.806133
vt 0.633320 0.900898
vt 0.538555 0.900898
vn -0.171837 -0.297358 -0.939175
vn 0.184120 0.301160 0.935629
vn -0.923360 -0.278543 0.264236
vn 0.252462 0.331994 0.908869
vn -0.102180 -0.264313 -0.959009
vn 0.861955 0.412155 -0.295232
vn -0.105367 -0.274272 -0.955862
vn 0.939792 0.230737 -0.252093
vn 0.249488 0.322394 0.913136
vn 0.184488 0.302009 0.935283
vn -0.171468 -0.296507 -0.939512
vn 0.915557 0.298792 -0.269219
vn -0.016478 -0.419631 -0.907545
vn 0.332108 0.166492 0.928431
vn -0.915557 -0.298792 0.269218
vn 0.245785 0.133298 0.960115
vn -0.104367 -0.455461 -0.884117
vn 0.201801 0.119321 0.972131
vn -0.148086 -0.468991 -0.870700
vn 0.145956 -0.950124 0.275609
vn 0.365196 -0.904688 0.219478
vn 0.552831 -0.818496 0.156337
vn -0.171374 -0.299351 -0.938627
vn 0.184583 0.299168 0.936177
vn 0.237577 0.297882 0.924567
vn -0.117726 -0.299537 -0.946793
vn -0.024220 0.953677 -0.299857
vn -0.031659 0.953881 -0.298510
vn -0.033997 0.953934 -0.298083
vn -0.029960 0.953839 -0.298819
vn 0.177983 0.299267 0.937423
vn 0.029959 -0.953839 0.298819
vn 0.447884 -0.872875 0.193623
vn 0.177982 0.299266 0.937423
vn -0.029959 0.953839 -0.298819
vn -0.031144 0.953869 -0.298603
vn -0.177982 -0.299266 -0.937423
vn 0.177985 0.299266 0.937423
vn 0.530464 -0.831544 0.164750
vn 0.982404 0.000767 -0.186767
vn -0.685462 -0.496673 -0.532408
vn -0.982646 0.003473 0.185460
vn -0.411465 -0.035965 0.910716
vn 0.733483 -0.675405 0.076357
vn 0.338928 -0.912988 0.227115
vn -0.323189 0.917566 -0.231565
vn 0.013508 0.951800 -0.306421
vn -0.013508 -0.951800 0.306421
vn 0.119045 -0.952185 0.281377
vn -0.979233 -0.040122 0.198730
vn -0.982088 0.113899 0.150102
vn -0.146517 -0.551975 -0.820887
vn 0.195490 0.023085 0.980434
vn 0.984029 -0.051206 -0.170485
vn -0.049482 0.954150 -0.295211
vn 0.017758 -0.953455 0.301013
vn -0.030738 0.953859 -0.298677
vn -0.027526 0.953775 -0.299260
vn 0.027526 -0.953774 0.299260
vn -0.983160 0.013959 0.182211
vn -0.172453 0.088117 -0.981069
vn -0.173860 -0.418489 -0.891426
vn -0.124970 -0.833486 -0.538223
vn -0.013540 -0.993218 0.115477
vn 0.112297 -0.648745 0.752675
vn 0.172453 -0.088117 0.981069
vn 0.173860 0.418489 0.891426
vn 0.124970 0.833486 0.538223
vn 0.013540 0.993218 -0.115477
vn -0.112297 0.648744 -0.752675
vn -0.983812 0.033873 0.175974
vn -0.983812 0.033870 0.175974
vn -0.983812 0.033870 0.175975
vn -0.983811 0.033869 0.175977
vn -0.983811 0.033870 0.175978
vn -0.983811 0.033871 0.175980
vn -0.983811 0.033874 0.175980
vn -0.983811 0.033876 0.175977
vn -0.983811 0.033875 0.175978
vn -0.983812 0.033874 0.175976
vn 0.172453 -0.088120 0.981068
vn 0.173860 0.418488 0.891426
vn 0.013541 0.993218 -0.115476
vn -0.112297 0.648745 -0.752674
vn -0.172452 0.088118 -0.981068
vn -0.173860 -0.418487 -0.891426
vn -0.124970 -0.833485 -0.538224
vn -0.013541 -0.993218 0.115476
vn 0.112297 -0.648743 0.752676
vn -0.465385 -0.420268 -0.778968
vn 0.465385 0.420268 0.778968
vn 0.983898 -0.038327 -0.174572
vn -0.909971 -0.312527 0.272543
vn 0.084318 0.944491 -0.317532
usemtl Material_pistol_Cube-k.tga
s off
f 54/43/20 58/44/20 59/45/20 55/46/20
f 57/47/22 53/48/22 56/49/22 60/50/22
f 60/50/34 56/49/34 63/51/34 61/52/34
f 55/46/35 59/45/35 62/53/35 64/54/35
f 64/55/36 62/56/36 61/57/36 63/58/36
f 58/44/37 54/43/37 67/59/37 65/60/37
f 53/61/38 57/62/38 66/63/38 68/64/38
f 68/65/39 66/66/39 65/67/39 67/68/39
f 66/69/40 57/47/40 76/70/40 69/71/40
f 65/55/41 66/56/41 69/57/41 70/58/41
f 58/44/42 65/60/42 70/72/42 75/73/42
f 62/53/43 59/45/43 74/74/43 71/75/43
f 60/50/44 61/52/44 72/76/44 73/77/44
f 59/45/20 58/44/20 75/73/20 74/74/20
f 57/47/22 60/50/22 73/77/22 76/70/22
f 68/55/45 67/56/45 78/57/45 77/58/45
f 53/48/46 68/78/46 77/79/46 84/80/46
f 67/59/47 54/43/47 83/81/47 78/82/47
f 64/55/48 63/56/48 80/57/48 79/58/48
f 55/46/49 64/54/49 79/83/49 82/84/49
f 63/51/50 56/49/50 81/85/50 80/86/50
f 54/43/51 55/46/51 82/84/51 83/81/51
f 56/49/52 53/48/52 84/80/52 81/85/52
f 84/55/53 83/56/53 82/57/53 81/58/53
f 81/55/54 82/56/54 79/57/54 80/58/54
f 83/55/55 84/56/55 77/57/55 78/58/55
f 76/70/22 73/77/22 88/87/22 85/88/22
f 74/74/20 75/73/20 86/89/20 87/90/20
f 73/77/56 72/76/56 89/91/56 88/87/56
f 71/75/57 74/74/57 87/90/57 90/92/57
f 75/73/58 70/72/58 91/93/58 86/89/58
f 69/71/59 76/70/59 85/88/59 92/94/59
f 85/65/60 88/66/60 87/67/60 86/68/60
f 87/65/61 88/66/61 89/67/61 90/68/61
f 85/65/62 86/66/62 91/67/62 92/68/62
f 92/65/63 91/66/63 94/67/63 93/68/63
f 69/71/22 92/94/22 93/95/22 96/96/22
f 91/93/64 70/72/64 95/97/64 94/98/64
f 70/99/65 69/100/65 96/101/65 95/102/65
f 95/55/66 96/56/66 97/57/66 98/58/66
f 94/98/67 95/97/67 98/103/67 99/104/67
f 96/105/22 93/106/22 100/107/22 97/108/22
f 93/65/68 94/66/68 99/67/68 100/68/68
f 100/65/69 99/66/69 102/67/69 101/68/69
f 97/109/70 100/110/70 101/111/70 104/112/70
f 99/104/71 98/103/71 103/113/71 102/114/71
f 98/55/72 97/56/72 104/57/72 103/58/72
f 103/55/73 104/56/73 101/57/73 102/58/73
f 72/76/74 61/52/74 108/115/74 105/116/74
f 71/55/75 72/56/75 105/57/75 106/58/75
f 62/53/76 71/75/76 106/117/76 107/118/76
f 61/119/77 62/120/77 107/121/77 108/122/77
f 108/123/78 107/124/78 110/125/78 109/126/78
f 107/118/20 106/117/20 111/127/20 110/128/20
f 106/55/79 105/56/79 112/57/79 111/58/79
f 105/116/22 108/115/22 109/129/22 112/130/22
f 112/130/22 109/129/22 116/131/22 113/132/22
f 111/55/80 112/56/80 113/57/80 114/58/80
f 110/128/20 111/127/20 114/133/20 115/134/20
f 109/123/81 110/124/81 115/125/81 116/126/81
f 116/135/82 115/136/82 118/137/82 117/138/82
f 115/131/20 114/132/20 119/139/20 118/140/20
f 113/132/22 116/131/22 117/140/22 120/139/22
f 117/55/83 118/56/83 119/57/83 120/58/83
f 120/55/84 119/56/84 122/57/84 121/58/84
f 113/132/85 120/139/85 121/141/85 124/142/85
f 119/143/86 114/133/86 123/144/86 122/145/86
f 114/146/87 113/147/87 124/148/87 123/149/87
f 123/65/88 124/66/88 121/67/88 122/68/88
f 90/65/68 89/66/68 126/67/68 125/68/68
f 71/75/20 90/92/20 125/150/20 123/144/20
f 89/91/22 72/76/22 124/142/22 126/151/22
f 72/152/89 71/153/89 123/154/89 124/155/89
f 126/151/22 124/142/22 121/141/22 127/156/22
f 123/144/20 125/150/20 128/157/20 122/145/20
f 125/65/90 126/66/90 127/67/90 128/68/90
f 127/156/22 121/141/22 132/158/22 130/159/22
f 122/145/20 128/157/20 129/160/20 131/161/20
f 128/162/91 127/163/91 130/164/91 129/165/91
f 121/99/92 122/100/92 131/101/92 132/102/92
f 132/55/93 131/56/93 129/57/93 130/58/93
f 133/166/94 143/167/94 144/168/94 134/169/94
f 134/166/95 144/167/95 145/168/95 135/169/95
f 135/166/96 145/167/96 146/168/96 136/169/96
f 136/166/97 146/167/97 147/168/97 137/169/97
f 137/166/98 147/167/98 148/168/98 138/169/98
f 138/166/99 148/167/99 149/168/99 139/169/99
f 139/166/100 149/167/100 150/168/100 140/169/100
f 140/166/101 150/167/101 151/168/101 141/169/101
f 141/166/102 151/167/102 152/168/102 142/169/102
f 142/166/103 152/167/103 143/168/103 133/169/103
f 133/166/104 134/167/104 154/168/104 153/169/104
f 134/166/105 135/167/105 155/168/105 154/169/105
f 135/166/106 136/167/106 156/168/106 155/169/106
f 136/166/107 137/167/107 157/168/107 156/169/107
f 137/166/108 138/167/108 158/168/108 157/169/108
f 138/166/109 139/167/109 159/168/109 158/169/109
f 139/166/110 140/167/110 160/168/110 159/169/110
f 140/166/111 141/167/111 161/168/111 160/169/111
f 141/166/112 142/167/112 162/168/112 161/169/112
f 142/166/113 133/167/113 153/168/113 162/169/113
f 153/166/114 154/167/114 163/168/114 164/169/114
f 154/166/115 155/167/115 165/168/115 163/169/115
f 155/166/101 156/167/101 166/168/101 165/169/101
f 156/166/116 157/167/116 167/168/116 166/169/116
f 157/166/117 158/167/117 168/168/117 167/169/117
f 158/166/118 159/167/118 169/168/118 168/169/118
f 159/166/119 160/167/119 170/168/119 169/169/119
f 160/166/120 161/167/120 171/168/120 170/169/120
f 161/166/121 162/167/121 172/168/121 171/169/121
f 162/166/122 153/167/122 164/168/122 172/169/122
f 175/170/123 176/171/123 173/172/123 174/173/123
f 177/170/124 180/171/124 179/172/124 178/173/124
f 173/170/125 177/171/125 178/172/125 174/173/125
f 174/170/17 178/171/17 179/172/17 175/173/17
f 175/174/126 179/175/126 180/176/126 176/177/126
f 176/170/127 180/171/127 177/172/127 173/173/127
