# Blender v2.59 (sub 0) OBJ File: 'pistol.blend'
# www.blender.org
mtllib pistol_000023.mtl
o Cube.003
v -0.112722 0.169333 0.738728
v -0.083501 0.223587 0.788466
v -0.125841 0.236042 0.799755
v -0.155062 0.181787 0.750016
v -0.089468 0.225126 0.664208
v -0.060247 0.279381 0.713946
v -0.145582 0.289133 0.753441
v -0.174802 0.234878 0.703702
v -0.172729 0.158324 0.808801
v -0.154082 0.192947 0.840542
v -0.121220 0.174665 0.841178
v -0.139867 0.140042 0.809437
vn -0.221428 0.721102 -0.656492
vn 0.897285 -0.438777 -0.048522
vn 0.368984 0.685106 0.628077
vn -0.889415 0.064111 0.452583
vn -0.368984 -0.685105 -0.628077
vn -0.857758 0.511237 -0.053739
vn -0.390987 -0.797170 -0.460053
vn 0.836199 -0.539699 0.097450
vn 0.331752 0.544763 0.770178
vn -0.316894 -0.542536 0.777967
usemtl Material.001
s off
f 5//1 8//1 7//1 6//1
f 1//2 5//2 6//2 2//2
f 2//3 6//3 7//3 3//3
f 3//4 7//4 8//4 4//4
f 5//5 1//5 4//5 8//5
f 3//6 4//6 9//6 10//6
f 4//7 1//7 12//7 9//7
f 1//8 2//8 11//8 12//8
f 2//9 3//9 10//9 11//9
f 12//10 11//10 10//10 9//10
o Cube.002
v 0.378820 -0.259808 0.966214
v 0.414992 -0.191275 1.028586
v 0.269184 -0.206914 1.130329
v 0.233012 -0.275447 1.067957
v 0.153773 0.101893 0.699295
v 0.189945 0.170427 0.761667
v 0.044137 0.154788 0.863410
v 0.007965 0.086254 0.801037
vn 0.447666 -0.719499 0.530958
vn -0.447666 0.719499 -0.530958
vn 0.816930 0.087622 -0.570042
vn 0.363621 0.688944 0.627006
vn -0.816930 -0.087622 0.570042
vn -0.363621 -0.688944 -0.627006
usemtl Material.002
s off
f 13//11 14//11 15//11 16//11
f 17//12 20//12 19//12 18//12
f 13//13 17//13 18//13 14//13
f 14//14 18//14 19//14 15//14
f 15//15 19//15 20//15 16//15
f 17//16 13//16 16//16 20//16
o Cube.001
v 0.160602 0.211739 0.485862
v 0.212576 0.309886 0.576647
v -0.670913 0.392450 0.993183
v -0.722887 0.294303 0.902398
v 0.134298 0.291989 0.414163
v 0.186272 0.390136 0.504949
v -0.697217 0.472700 0.921484
v -0.749191 0.374553 0.830699
v -0.651055 0.418523 0.829011
v -0.643084 0.409992 0.833670
v -0.685819 0.413466 0.854380
v -0.676394 0.420891 0.840958
v -0.645875 0.428304 0.838058
v -0.637905 0.419773 0.842717
v -0.680639 0.423247 0.863427
v -0.671215 0.430672 0.850005
v 0.119863 0.373036 0.468729
v 0.134486 0.350915 0.484272
v 0.085881 0.355457 0.507187
v 0.085127 0.376282 0.485106
v 0.123329 0.379581 0.474783
v 0.137952 0.357461 0.490326
v 0.089348 0.362003 0.513242
v 0.088593 0.382828 0.491160
v 0.076126 0.359285 0.469384
v 0.076881 0.338461 0.491465
v 0.125485 0.333919 0.468550
v 0.110862 0.356039 0.453007
v 0.072660 0.352740 0.463329
v 0.073414 0.331915 0.485411
v 0.122019 0.327373 0.462495
v 0.107396 0.349493 0.446952
vt 0.981492 0.700396
vt 0.981492 0.559075
vt 0.015757 0.559075
vt 0.015757 0.700396
vt 0.256982 0.028856
vt 0.256982 0.201167
vt 0.033870 0.201167
vt 0.033870 0.028856
vt 0.970962 0.782064
vt 0.970962 0.890592
vt 0.010662 0.890592
vt 0.010662 0.782064
vt 0.016806 0.783088
vt 0.016806 0.891616
vt 0.029279 0.489607
vt 0.029280 0.383592
vt 0.967338 0.383592
vt 0.967338 0.489607
vt 0.925445 0.487516
vt 0.912457 0.498835
vt 0.885552 0.498835
vt 0.879885 0.488225
vt 0.094387 0.900039
vt 0.066845 0.900039
vt 0.053548 0.888452
vt 0.100189 0.889177
vt 0.884250 0.887914
vt 0.891057 0.916869
vt 0.928814 0.916869
vt 0.937080 0.887914
vt 0.125150 0.242886
vt 0.110271 0.242886
vt 0.110271 0.196916
vt 0.125150 0.196916
vt 0.107333 0.515275
vt 0.070451 0.515275
vt 0.113983 0.486992
vt 0.062377 0.486992
vt 0.178668 0.242886
vt 0.163788 0.242886
vt 0.163788 0.196916
vt 0.178668 0.196916
vn 0.237439 -0.724396 0.647204
vn -0.237439 0.724396 -0.647204
vn 0.901298 -0.084228 -0.424932
vn 0.362332 0.684220 0.632897
vn -0.901298 0.084227 0.424932
vn -0.362332 -0.684220 -0.632898
vn -0.362332 -0.684220 -0.632896
vn 0.362331 0.684221 0.632897
vn 0.683118 0.267012 -0.679746
vn 0.251424 -0.725618 0.640519
vn -0.771150 0.601456 -0.208753
vn -0.237440 0.724396 -0.647204
vn -0.362331 -0.684220 -0.632898
vn 0.362332 0.684220 0.632898
vn 0.801488 0.117872 -0.586279
vn 0.237440 -0.724395 0.647205
vn -0.931718 0.247785 0.265527
vn -0.237439 0.724397 -0.647204
vn -0.237440 0.724395 -0.647205
vn -0.931718 0.247785 0.265526
vn 0.801488 0.117872 -0.586280
vn -0.362332 -0.684219 -0.632898
usemtl _pistol-2_Cube.001-k.t
s off
f 21/1/17 22/2/17 23/3/17 24/4/17
f 25/1/18 28/4/18 27/3/18 26/2/18
f 21/5/19 25/6/19 26/7/19 22/8/19
f 22/9/20 26/10/20 27/11/20 23/12/20
f 23/13/21 27/14/21 28/14/21 24/13/21
f 25/15/22 21/16/22 24/17/22 28/18/22
f 31/19/23 32/20/23 29/21/23 30/22/23
f 33/23/24 36/24/24 35/25/24 34/26/24
f 29/21/25 33/21/25 34/22/25 30/22/25
f 30/22/26 34/22/26 35/19/26 31/19/26
f 31/19/27 35/19/27 36/20/27 32/20/27
f 32/20/28 36/20/28 33/21/28 29/21/28
f 39/27/29 40/28/29 37/29/29 38/30/29
f 41/29/30 44/28/30 43/27/30 42/30/30
f 37/31/31 41/32/31 42/33/31 38/34/31
f 38/30/32 42/30/32 43/27/32 39/27/32
f 39/27/33 43/27/33 44/28/33 40/28/33
f 40/28/34 44/28/34 41/29/34 37/29/34
f 49/35/35 45/35/35 48/36/35 52/36/35
f 50/37/36 46/37/36 45/35/36 49/35/36
f 51/38/17 47/38/17 46/37/17 50/37/17
f 52/39/37 48/40/37 47/41/37 51/42/37
f 48/29/20 45/28/20 46/27/20 47/30/20
f 50/37/38 49/35/38 52/36/38 51/38/38
o Cube
v 0.317155 -0.134072 0.787380
v 0.361600 -0.050142 0.865015
v 0.183855 -0.051923 0.968699
v 0.139410 -0.135853 0.891064
v 0.123061 0.090401 0.655823
v 0.167507 0.174331 0.733457
v 0.004146 0.189169 0.810939
v -0.040299 0.105239 0.733305
v -0.077713 0.108216 0.751064
v -0.033065 0.192528 0.829052
v 0.105588 -0.143832 0.918612
v 0.150235 -0.059520 0.996600
v 0.196797 0.169758 0.716499
v 0.154706 0.090273 0.642977
v 0.388435 -0.037914 0.831299
v 0.346344 -0.117398 0.757777
v 0.101723 0.170180 0.586923
v 0.143814 0.249665 0.660446
v -0.103359 0.274052 0.781160
v -0.148007 0.189741 0.703172
v -0.110593 0.186763 0.685413
v -0.066148 0.270693 0.763047
v 0.097212 0.255855 0.685565
v 0.052767 0.171925 0.607930
v 0.391846 -0.162346 0.801099
v 0.424407 -0.100858 0.857974
v 0.185918 -0.123011 1.022769
v 0.151380 -0.188233 0.962440
v 0.185179 -0.180297 0.934851
v 0.219561 -0.115371 0.994908
v 0.397306 -0.113590 0.891224
v 0.362924 -0.178516 0.831168
v 0.031618 0.231772 0.555338
v 0.076064 0.315702 0.632973
v -0.087296 0.330540 0.710455
v -0.131742 0.246610 0.632820
v -0.169156 0.249587 0.650580
v -0.124508 0.333899 0.728568
v 0.122666 0.309511 0.607854
v 0.080574 0.230027 0.534331
v 0.104059 0.228001 0.523076
v 0.146151 0.307485 0.596599
v 0.167299 0.247639 0.649191
v 0.125208 0.168154 0.575668
v 0.161733 0.180551 0.541356
v 0.203824 0.260036 0.614878
v 0.187921 0.303882 0.576581
v 0.145829 0.224397 0.503059
v 0.163876 0.222857 0.494392
v 0.205967 0.302342 0.567914
v 0.219010 0.267223 0.598414
v 0.176919 0.187739 0.524891
v -0.105639 0.133479 0.795875
v -0.086737 0.169173 0.828892
v -0.063137 0.149823 0.836300
v -0.082039 0.114129 0.803284
v -0.137750 0.102972 0.847240
v -0.118848 0.138666 0.880257
v -0.128476 0.161552 0.861027
v -0.147378 0.125858 0.828010
v -0.294303 0.143557 0.892990
v -0.275401 0.179251 0.926006
v -0.265773 0.156365 0.945236
v -0.284675 0.120671 0.912219
v -0.320982 0.121148 0.932489
v -0.302080 0.156842 0.965506
v -0.311707 0.179728 0.946276
v -0.330609 0.144034 0.913259
v -0.363728 0.209691 0.805104
v -0.319080 0.294003 0.883091
v -0.289547 0.291916 0.868439
v -0.334194 0.207605 0.790451
v -0.310200 0.349918 0.817558
v -0.354848 0.265607 0.739570
v -0.384352 0.268133 0.753729
v -0.339704 0.352445 0.831717
v -0.663352 0.380992 0.986142
v -0.707999 0.296680 0.908154
v -0.642727 0.322549 1.037517
v -0.687375 0.238237 0.959529
v -0.739563 0.378675 0.897137
v -0.737556 0.355569 0.905973
v -0.730335 0.339391 0.924496
v -0.720658 0.336322 0.945630
v -0.712221 0.347533 0.961304
v -0.708246 0.368742 0.965530
v -0.710252 0.391848 0.956695
v -0.717473 0.408026 0.938172
v -0.727151 0.411096 0.917037
v -0.735588 0.399885 0.901364
v -0.452204 0.351821 0.761657
v -0.450197 0.328715 0.770493
v -0.442976 0.312537 0.789015
v -0.433299 0.309468 0.810150
v -0.424862 0.320679 0.825824
v -0.420887 0.341888 0.830050
v -0.422893 0.364994 0.821214
v -0.430114 0.381172 0.802692
v -0.439792 0.384241 0.781557
v -0.448229 0.373030 0.765883
v -0.733892 0.376877 0.909522
v -0.732612 0.362138 0.915158
v -0.728006 0.351820 0.926972
v -0.721834 0.349862 0.940453
v -0.716452 0.357013 0.950450
v -0.713917 0.370541 0.953146
v -0.715197 0.385279 0.947510
v -0.719802 0.395598 0.935696
v -0.725975 0.397556 0.922215
v -0.731357 0.390405 0.912218
v -0.572535 0.347179 0.839687
v -0.573815 0.361917 0.834051
v -0.567930 0.336860 0.851501
v -0.561757 0.334902 0.864982
v -0.556375 0.342053 0.874979
v -0.553840 0.355581 0.877675
v -0.555120 0.370320 0.872039
v -0.559726 0.380638 0.860225
v -0.565898 0.382596 0.846744
v -0.571280 0.375445 0.836747
v 0.718426 -0.352335 0.039362
v 0.796402 -0.492137 0.235172
v 0.036927 -0.206087 0.833967
v -0.177218 0.070451 0.657602
v 0.850791 -0.102380 0.270568
v 0.928766 -0.242182 0.466379
v 0.169292 0.043868 1.065174
v -0.044853 0.320406 0.888808
vt 0.927200 0.246707
vt 0.827427 0.459240
vt 0.696213 0.458799
vt 0.779567 0.227763
vt 0.193673 0.133961
vt 0.387467 0.042986
vt 0.404740 0.177602
vt 0.194075 0.253606
vt 0.415015 0.204984
vt 0.194375 0.280989
vt 0.666182 0.458471
vt 0.749536 0.216495
vt 0.333858 0.810420
vt 0.482548 0.810420
vt 0.482548 0.959111
vt 0.333858 0.959111
vt 0.954311 0.264288
vt 0.852013 0.459752
vt -0.727496 0.474897
vt -0.701703 0.474897
vt -0.701703 0.500689
vt -0.727496 0.500689
vt -1.408821 0.790398
vt -1.364616 0.790398
vt -1.364616 0.834602
vt -1.408821 0.834602
vt 0.193206 0.111543
vt 0.123273 0.166853
vt 0.122807 0.131768
vt 0.829833 0.536959
vt 0.791355 0.536447
vt 0.660140 0.536006
vt 0.630110 0.535678
vt 0.123975 0.313881
vt 0.123676 0.286498
vt 0.371435 0.018265
vt 0.418527 0.000861
vt 0.434558 0.025582
vt 0.946287 0.195062
vt 0.973398 0.212643
vt 0.768623 0.164850
vt 0.798654 0.176118
vt 0.451832 0.160198
vt 0.462106 0.187580
vt 0.069323 0.287655
vt 0.068921 0.168010
vt 0.790086 0.596056
vt 0.658872 0.595615
vt 0.069622 0.315037
vt 0.628841 0.595287
vt 0.828564 0.596568
vt 0.068454 0.132924
vt 0.068295 0.115698
vt 0.122648 0.114541
vt 0.848726 0.537133
vt 0.847457 0.596742
vt 0.296481 0.778563
vt 0.465802 0.778563
vt 0.465802 0.947884
vt 0.296481 0.947884
vt 0.882328 0.553418
vt 0.881059 0.597051
vt 0.108976 0.116494
vt 0.054623 0.117651
vt 0.054341 0.087011
vt 0.094127 0.085854
vt 0.107799 0.083901
vt 0.068013 0.085058
vt 0.067876 0.071816
vt 0.099715 0.070660
vt 0.896850 0.562283
vt 0.895581 0.597202
vt 0.213162 0.298524
vt 0.197060 0.311551
vt 0.632665 0.455526
vt 0.646952 0.437867
vt 0.000000 0.000000
vt 1.000000 0.000000
vt 1.000000 1.000000
vt 0.000000 1.000000
vt 0.309848 0.788364
vt 0.475308 0.788364
vt 0.475308 0.953824
vt 0.309848 0.953824
vt 0.596042 0.443658
vt 0.597803 0.421011
vt 0.228531 0.343339
vt 0.207881 0.344944
vt 0.224803 0.449870
vt 0.204153 0.451475
vt 0.479211 0.447746
vt 0.480971 0.425100
vt 0.314329 0.792844
vt 0.470828 0.792844
vt 0.470828 0.949343
vt 0.314329 0.949343
vt 0.206892 0.478764
vt 0.227542 0.477159
vt 0.124172 0.471787
vt 0.123539 0.450009
vt 0.449283 0.444743
vt 0.480819 0.536156
vt 0.456935 0.535462
vt 0.306798 0.789219
vt 0.474452 0.789219
vt 0.474452 0.956874
vt 0.306798 0.956874
vt 0.479459 0.593913
vt 0.070875 0.451248
vt 0.302167 0.788495
vt 0.479083 0.788495
vt 0.479083 0.965412
vt 0.302167 0.965412
vt 0.071091 0.472895
vt 0.455719 0.593675
vt 0.125767 0.709036
vt 0.072686 0.710145
vt 0.195528 0.591926
vt 0.196743 0.533713
vt 0.336313 0.795297
vt 0.444937 0.795297
vt 0.444937 0.903921
vt 0.336313 0.903921
vt 0.038819 0.761475
vt 0.258057 0.761475
vt 0.258057 0.980713
vt 0.038819 0.980713
vt 0.543634 0.830499
vt 0.640937 0.830499
vt 0.640937 0.927802
vt 0.543634 0.927802
vt 0.538555 0.806133
vt 0.633320 0.806133
vt 0.633320 0.900898
vt 0.538555 0.900898
vn -0.357181 -0.683128 -0.636991
vn 0.367465 0.685280 0.628777
vn -0.774824 -0.156294 0.612552
vn 0.421478 0.702869 0.573002
vn -0.300491 -0.660484 -0.688089
vn 0.688446 0.261274 -0.676593
vn -0.301265 -0.668127 -0.680328
vn 0.800701 0.119062 -0.587114
vn 0.421137 0.696045 0.581520
vn 0.367604 0.685900 0.628020
vn -0.357039 -0.682502 -0.637742
vn 0.362331 0.684220 0.632898
vn -0.362332 -0.684220 -0.632897
vn 0.763099 0.172114 -0.622942
vn -0.182491 -0.775411 -0.604513
vn 0.527149 0.564658 0.635040
vn -0.763099 -0.172114 0.622942
vn 0.457537 0.546682 0.701284
vn -0.255294 -0.799413 -0.543842
vn 0.420589 0.538350 0.730263
vn -0.291699 -0.806722 -0.513917
vn 0.350221 -0.729225 0.587857
vn 0.538936 -0.707813 0.456672
vn 0.689609 -0.653613 0.311816
vn -0.362331 -0.684220 -0.632897
vn -0.356304 -0.684667 -0.635830
vn 0.368342 0.683742 0.629937
vn 0.416274 0.678754 0.604987
vn -0.307042 -0.687141 -0.658455
vn -0.240469 0.724675 -0.645771
vn -0.247272 0.725273 -0.642523
vn -0.249409 0.725452 -0.641494
vn -0.245720 0.725140 -0.643268
vn 0.245719 -0.725140 0.643269
vn 0.606748 -0.688607 0.397086
vn 0.362331 0.684219 0.632898
vn -0.245719 0.725140 -0.643269
vn -0.246802 0.725232 -0.642749
vn 0.362330 0.684220 0.632898
vn 0.672283 -0.662177 0.330995
vn 0.892085 -0.057874 -0.448147
vn -0.716025 -0.695995 -0.053844
vn -0.893275 0.061104 0.445337
vn -0.158230 0.357333 0.920476
vn 0.820904 -0.555847 0.130957
vn 0.516979 -0.712544 0.474356
vn 0.362332 0.684219 0.632898
vn -0.503733 0.715079 -0.484681
vn -0.205773 0.721006 -0.661670
vn 0.205773 -0.721006 0.661670
vn 0.326251 -0.729185 0.601539
vn -0.880189 0.027840 0.473807
vn -0.918066 0.144815 0.369032
vn -0.265302 -0.859390 -0.437108
vn 0.430943 0.455384 0.779047
vn 0.905467 -0.097386 -0.413094
vn -0.263521 0.726537 -0.634587
vn 0.362331 0.684220 0.632897
vn 0.234549 -0.724122 0.648563
vn -0.362332 -0.684219 -0.632897
vn 0.362332 0.684219 0.632897
vn -0.246432 0.725201 -0.642927
vn -0.243494 0.724946 -0.644332
vn 0.243494 -0.724946 0.644332
vn -0.896145 0.069088 0.438350
vn -0.425590 -0.355214 -0.832284
vn -0.329075 -0.771055 -0.545146
vn -0.131552 -0.987809 -0.083230
vn 0.163702 -0.841960 0.514107
vn 0.393686 -0.250040 0.884585
vn 0.425590 0.355213 0.832284
vn 0.329075 0.771055 0.545146
vn 0.131552 0.987809 0.083228
vn -0.163702 0.841960 -0.514106
vn -0.393686 0.250040 -0.884585
vn -0.901299 0.084227 0.424930
vn -0.901300 0.084226 0.424929
vn -0.901298 0.084224 0.424933
vn -0.901298 0.084224 0.424934
vn -0.901296 0.084228 0.424936
vn -0.901296 0.084230 0.424937
vn -0.901296 0.084234 0.424936
vn -0.901297 0.084233 0.424934
vn -0.901299 0.084231 0.424931
vn -0.901300 0.084227 0.424929
vn 0.425590 0.355216 0.832283
vn -0.163700 0.841962 -0.514103
vn -0.393686 0.250038 -0.884586
vn -0.425590 -0.355213 -0.832284
vn -0.329075 -0.771054 -0.545147
vn -0.131553 -0.987809 -0.083230
vn 0.163700 -0.841962 0.514103
vn 0.393686 -0.250041 0.884585
vn -0.579172 -0.730261 -0.362325
vn 0.579172 0.730261 0.362325
vn 0.902398 -0.087611 -0.421904
vn -0.754879 -0.182862 0.629857
vn -0.139786 0.711250 -0.688900
usemtl Material_pistol_Cube-k.tga
s off
f 54/43/30 58/44/30 59/45/30 55/46/30
f 57/47/22 53/48/22 56/49/22 60/50/22
f 60/50/39 56/49/39 63/51/39 61/52/39
f 55/46/40 59/45/40 62/53/40 64/54/40
f 64/55/41 62/56/41 61/57/41 63/58/41
f 58/44/42 54/43/42 67/59/42 65/60/42
f 53/61/43 57/62/43 66/63/43 68/64/43
f 68/65/44 66/66/44 65/67/44 67/68/44
f 66/69/45 57/47/45 76/70/45 69/71/45
f 65/55/46 66/56/46 69/57/46 70/58/46
f 58/44/47 65/60/47 70/72/47 75/73/47
f 62/53/48 59/45/48 74/74/48 71/75/48
f 60/50/49 61/52/49 72/76/49 73/77/49
f 59/45/50 58/44/50 75/73/50 74/74/50
f 57/47/51 60/50/51 73/77/51 76/70/51
f 68/55/52 67/56/52 78/57/52 77/58/52
f 53/48/53 68/78/53 77/79/53 84/80/53
f 67/59/54 54/43/54 83/81/54 78/82/54
f 64/55/55 63/56/55 80/57/55 79/58/55
f 55/46/56 64/54/56 79/83/56 82/84/56
f 63/51/57 56/49/57 81/85/57 80/86/57
f 54/43/58 55/46/58 82/84/58 83/81/58
f 56/49/59 53/48/59 84/80/59 81/85/59
f 84/55/60 83/56/60 82/57/60 81/58/60
f 81/55/61 82/56/61 79/57/61 80/58/61
f 83/55/62 84/56/62 77/57/62 78/58/62
f 76/70/63 73/77/63 88/87/63 85/88/63
f 74/74/50 75/73/50 86/89/50 87/90/50
f 73/77/64 72/76/64 89/91/64 88/87/64
f 71/75/65 74/74/65 87/90/65 90/92/65
f 75/73/66 70/72/66 91/93/66 86/89/66
f 69/71/67 76/70/67 85/88/67 92/94/67
f 85/65/68 88/66/68 87/67/68 86/68/68
f 87/65/69 88/66/69 89/67/69 90/68/69
f 85/65/70 86/66/70 91/67/70 92/68/70
f 92/65/71 91/66/71 94/67/71 93/68/71
f 69/71/29 92/94/29 93/95/29 96/96/29
f 91/93/50 70/72/50 95/97/50 94/98/50
f 70/99/72 69/100/72 96/101/72 95/102/72
f 95/55/73 96/56/73 97/57/73 98/58/73
f 94/98/74 95/97/74 98/103/74 99/104/74
f 96/105/29 93/106/29 100/107/29 97/108/29
f 93/65/75 94/66/75 99/67/75 100/68/75
f 100/65/76 99/66/76 102/67/76 101/68/76
f 97/109/29 100/110/29 101/111/29 104/112/29
f 99/104/77 98/103/77 103/113/77 102/114/77
f 98/55/78 97/56/78 104/57/78 103/58/78
f 103/55/79 104/56/79 101/57/79 102/58/79
f 72/76/80 61/52/80 108/115/80 105/116/80
f 71/55/81 72/56/81 105/57/81 106/58/81
f 62/53/82 71/75/82 106/117/82 107/118/82
f 61/119/83 62/120/83 107/121/83 108/122/83
f 108/123/84 107/124/84 110/125/84 109/126/84
f 107/118/85 106/117/85 111/127/85 110/128/85
f 106/55/86 105/56/86 112/57/86 111/58/86
f 105/116/51 108/115/51 109/129/51 112/130/51
f 112/130/51 109/129/51 116/131/51 113/132/51
f 111/55/87 112/56/87 113/57/87 114/58/87
f 110/128/85 111/127/85 114/133/85 115/134/85
f 109/123/88 110/124/88 115/125/88 116/126/88
f 116/135/89 115/136/89 118/137/89 117/138/89
f 115/131/85 114/132/85 119/139/85 118/140/85
f 113/132/63 116/131/63 117/140/63 120/139/63
f 117/55/90 118/56/90 119/57/90 120/58/90
f 120/55/91 119/56/91 122/57/91 121/58/91
f 113/132/92 120/139/92 121/141/92 124/142/92
f 119/143/93 114/133/93 123/144/93 122/145/93
f 114/146/94 113/147/94 124/148/94 123/149/94
f 123/65/95 124/66/95 121/67/95 122/68/95
f 90/65/75 89/66/75 126/67/75 125/68/75
f 71/75/96 90/92/96 125/150/96 123/144/96
f 89/91/22 72/76/22 124/142/22 126/151/22
f 72/152/97 71/153/97 123/154/97 124/155/97
f 126/151/98 124/142/98 121/141/98 127/156/98
f 123/144/99 125/150/99 128/157/99 122/145/99
f 125/65/100 126/66/100 127/67/100 128/68/100
f 127/156/38 121/141/38 132/158/38 130/159/38
f 122/145/85 128/157/85 129/160/85 131/161/85
f 128/162/101 127/163/101 130/164/101 129/165/101
f 121/99/102 122/100/102 131/101/102 132/102/102
f 132/55/103 131/56/103 129/57/103 130/58/103
f 133/166/104 143/167/104 144/168/104 134/169/104
f 134/166/105 144/167/105 145/168/105 135/169/105
f 135/166/106 145/167/106 146/168/106 136/169/106
f 136/166/107 146/167/107 147/168/107 137/169/107
f 137/166/108 147/167/108 148/168/108 138/169/108
f 138/166/109 148/167/109 149/168/109 139/169/109
f 139/166/110 149/167/110 150/168/110 140/169/110
f 140/166/111 150/167/111 151/168/111 141/169/111
f 141/166/112 151/167/112 152/168/112 142/169/112
f 142/166/113 152/167/113 143/168/113 133/169/113
f 133/166/114 134/167/114 154/168/114 153/169/114
f 134/166/115 135/167/115 155/168/115 154/169/115
f 135/166/116 136/167/116 156/168/116 155/169/116
f 136/166/117 137/167/117 157/168/117 156/169/117
f 137/166/118 138/167/118 158/168/118 157/169/118
f 138/166/119 139/167/119 159/168/119 158/169/119
f 139/166/120 140/167/120 160/168/120 159/169/120
f 140/166/121 141/167/121 161/168/121 160/169/121
f 141/166/122 142/167/122 162/168/122 161/169/122
f 142/166/123 133/167/123 153/168/123 162/169/123
f 153/166/124 154/167/124 163/168/124 164/169/124
f 154/166/110 155/167/110 165/168/110 163/169/110
f 155/166/111 156/167/111 166/168/111 165/169/111
f 156/166/125 157/167/125 167/168/125 166/169/125
f 157/166/126 158/167/126 168/168/126 167/169/126
f 158/166/127 159/167/127 169/168/127 168/169/127
f 159/166/128 160/167/128 170/168/128 169/169/128
f 160/166/129 161/167/129 171/168/129 170/169/129
f 161/166/130 162/167/130 172/168/130 171/169/130
f 162/166/131 153/167/131 164/168/131 172/169/131
f 175/170/132 176/171/132 173/172/132 174/173/132
f 177/170/133 180/171/133 179/172/133 178/173/133
f 173/170/134 177/171/134 178/172/134 174/173/134
f 174/170/17 178/171/17 179/172/17 175/173/17
f 175/174/135 179/175/135 180/176/135 176/177/135
f 176/170/136 180/171/136 177/172/136 173/173/136
