# Blender v2.59 (sub 0) OBJ File: 'pistol.blend'
# www.blender.org
mtllib pistol_000026.mtl
o Cube.003
v -0.126776 0.159697 0.722927
v -0.099398 0.210881 0.776798
v -0.141802 0.225813 0.784161
v -0.169180 0.174629 0.730290
v -0.092685 0.215427 0.652651
v -0.065307 0.266611 0.706521
v -0.153416 0.281038 0.737593
v -0.180794 0.229854 0.683722
v -0.194120 0.151124 0.786360
v -0.176649 0.183787 0.820737
v -0.145223 0.163403 0.824133
v -0.162694 0.130741 0.789756
vn -0.108615 0.747645 -0.655156
vn 0.868473 -0.494897 0.028843
vn 0.345715 0.646325 0.680253
vn -0.924816 0.112058 0.363536
vn -0.345715 -0.646325 -0.680254
vn -0.814383 0.566786 -0.124636
vn -0.391513 -0.760252 -0.518396
vn 0.786789 -0.594707 0.165188
vn 0.285648 0.505722 0.814034
vn -0.427027 -0.537165 0.727394
usemtl Material.001
s off
f 5//1 8//1 7//1 6//1
f 1//2 5//2 6//2 2//2
f 2//3 6//3 7//3 3//3
f 3//4 7//4 8//4 4//4
f 5//5 1//5 4//5 8//5
f 3//6 4//6 9//6 10//6
f 4//7 1//7 12//7 9//7
f 1//8 2//8 11//8 12//8
f 2//9 3//9 10//9 11//9
f 12//10 11//10 10//10 9//10
o Cube.002
v 0.709177 -0.763522 1.326675
v 0.745349 -0.694989 1.389048
v 0.599541 -0.710627 1.490790
v 0.563369 -0.779161 1.428418
v 0.484129 -0.401821 1.059756
v 0.520301 -0.333287 1.122128
v 0.374493 -0.348926 1.223871
v 0.338321 -0.417460 1.161499
vn 0.447666 -0.719499 0.530958
vn -0.447666 0.719499 -0.530958
vn 0.816930 0.087622 -0.570042
vn 0.363621 0.688944 0.627006
vn -0.816930 -0.087622 0.570042
vn -0.363622 -0.688944 -0.627006
usemtl Material.002
s off
f 13//11 14//11 15//11 16//11
f 17//12 20//12 19//12 18//12
f 13//13 17//13 18//13 14//13
f 14//14 18//14 19//14 15//14
f 15//15 19//15 20//15 16//15
f 17//16 13//16 16//16 20//16
o Cube.001
v 0.162162 0.214913 0.495178
v 0.210532 0.302372 0.598073
v -0.696277 0.374158 0.963335
v -0.744646 0.286699 0.860440
v 0.142813 0.302346 0.429957
v 0.191182 0.389805 0.532852
v -0.715626 0.461591 0.898114
v -0.763996 0.374132 0.795219
v -0.664844 0.414855 0.804017
v -0.657429 0.405671 0.808337
v -0.701342 0.408573 0.826514
v -0.690853 0.416914 0.814493
v -0.660024 0.423571 0.814271
v -0.652608 0.414387 0.818592
v -0.696522 0.417289 0.836768
v -0.686032 0.425630 0.824747
v 0.126908 0.378343 0.490996
v 0.139876 0.354399 0.505252
v 0.089989 0.358348 0.525347
v 0.091255 0.381166 0.505357
v 0.130134 0.384176 0.497858
v 0.143102 0.360232 0.512114
v 0.093215 0.364181 0.532209
v 0.094481 0.386998 0.512219
v 0.082878 0.366020 0.487538
v 0.081612 0.343203 0.507528
v 0.131499 0.339253 0.487433
v 0.118532 0.363197 0.473177
v 0.079652 0.360187 0.480676
v 0.078386 0.337370 0.500665
v 0.128274 0.333421 0.480571
v 0.115306 0.357365 0.466315
vt 0.981492 0.700396
vt 0.981492 0.559075
vt 0.015757 0.559075
vt 0.015757 0.700396
vt 0.256982 0.028856
vt 0.256982 0.201167
vt 0.033870 0.201167
vt 0.033870 0.028856
vt 0.970962 0.782064
vt 0.970962 0.890592
vt 0.010662 0.890592
vt 0.010662 0.782064
vt 0.016806 0.783088
vt 0.016806 0.891616
vt 0.029279 0.489607
vt 0.029280 0.383592
vt 0.967338 0.383592
vt 0.967338 0.489607
vt 0.925445 0.487516
vt 0.912457 0.498835
vt 0.885552 0.498835
vt 0.879885 0.488225
vt 0.094387 0.900039
vt 0.066845 0.900039
vt 0.053548 0.888452
vt 0.100189 0.889177
vt 0.884250 0.887914
vt 0.891057 0.916869
vt 0.928814 0.916869
vt 0.937080 0.887914
vt 0.125150 0.242886
vt 0.110271 0.242886
vt 0.110271 0.196916
vt 0.125150 0.196916
vt 0.107333 0.515275
vt 0.070451 0.515275
vt 0.113983 0.486992
vt 0.062377 0.486992
vt 0.178668 0.242886
vt 0.163788 0.242886
vt 0.163788 0.196916
vt 0.178668 0.196916
vn 0.174663 -0.789233 0.588732
vn -0.174663 0.789233 -0.588731
vn 0.925088 -0.073233 -0.372625
vn 0.337202 0.609712 0.717319
vn -0.925088 0.073232 0.372625
vn -0.337202 -0.609712 -0.717319
vn -0.337203 -0.609711 -0.717319
vn 0.337202 0.609711 0.717320
vn 0.733679 0.307258 -0.606059
vn 0.189025 -0.790275 0.582868
vn -0.739451 0.643115 -0.199035
vn -0.174662 0.789234 -0.588730
vn 0.337202 0.609712 0.717318
vn 0.841598 0.146243 -0.519929
vn 0.174663 -0.789232 0.588732
vn -0.940509 0.251921 0.227990
vn -0.174663 0.789232 -0.588732
vn -0.174662 0.789233 -0.588731
vn -0.940508 0.251921 0.227990
vn 0.174662 -0.789233 0.588732
vn 0.841598 0.146244 -0.519929
vn -0.337202 -0.609711 -0.717319
usemtl _pistol-2_Cube.001-k.t
s off
f 21/1/17 22/2/17 23/3/17 24/4/17
f 25/1/18 28/4/18 27/3/18 26/2/18
f 21/5/19 25/6/19 26/7/19 22/8/19
f 22/9/20 26/10/20 27/11/20 23/12/20
f 23/13/21 27/14/21 28/14/21 24/13/21
f 25/15/22 21/16/22 24/17/22 28/18/22
f 31/19/23 32/20/23 29/21/23 30/22/23
f 33/23/24 36/24/24 35/25/24 34/26/24
f 29/21/25 33/21/25 34/22/25 30/22/25
f 30/22/26 34/22/26 35/19/26 31/19/26
f 31/19/27 35/19/27 36/20/27 32/20/27
f 32/20/28 36/20/28 33/21/28 29/21/28
f 39/27/22 40/28/22 37/29/22 38/30/22
f 41/29/29 44/28/29 43/27/29 42/30/29
f 37/31/30 41/32/30 42/33/30 38/34/30
f 38/30/31 42/30/31 43/27/31 39/27/31
f 39/27/32 43/27/32 44/28/32 40/28/32
f 40/28/33 44/28/33 41/29/33 37/29/33
f 49/35/34 45/35/34 48/36/34 52/36/34
f 50/37/35 46/37/35 45/35/35 49/35/35
f 51/38/36 47/38/36 46/37/36 50/37/36
f 52/39/37 48/40/37 47/41/37 51/42/37
f 48/29/20 45/28/20 46/27/20 47/30/20
f 50/37/38 49/35/38 52/36/38 51/38/38
o Cube
v 0.306906 -0.146030 0.756424
v 0.348269 -0.071239 0.844414
v 0.164025 -0.076963 0.935890
v 0.122661 -0.151754 0.847900
v 0.127977 0.095978 0.634832
v 0.169340 0.170768 0.722823
v 0.001626 0.183572 0.790780
v -0.039737 0.108781 0.702790
v -0.078160 0.111294 0.718327
v -0.036609 0.186424 0.806718
v 0.086880 -0.161178 0.872342
v 0.128432 -0.086047 0.960732
v 0.199566 0.166857 0.707410
v 0.160394 0.096028 0.624080
v 0.377603 -0.056781 0.813806
v 0.338431 -0.127610 0.730477
v 0.113382 0.182518 0.572664
v 0.152554 0.253347 0.655994
v -0.101388 0.274321 0.762459
v -0.142940 0.199191 0.674068
v -0.104517 0.196678 0.658531
v -0.063154 0.271469 0.746521
v 0.104561 0.258665 0.678564
v 0.063198 0.183874 0.590573
v 0.379749 -0.177877 0.772114
v 0.410052 -0.123085 0.836576
v 0.160611 -0.152838 0.982929
v 0.128468 -0.210958 0.914552
v 0.164227 -0.201572 0.890065
v 0.196225 -0.143715 0.958132
v 0.380470 -0.137992 0.866656
v 0.348472 -0.195848 0.798589
v 0.047181 0.249045 0.542708
v 0.088544 0.323836 0.630699
v -0.079170 0.336640 0.698656
v -0.120534 0.261849 0.610665
v -0.158956 0.264361 0.626203
v -0.117405 0.339492 0.714594
v 0.136537 0.318518 0.608129
v 0.097365 0.247689 0.524799
v 0.121487 0.245966 0.514925
v 0.160659 0.316795 0.598254
v 0.176675 0.251624 0.646119
v 0.137503 0.180795 0.562790
v 0.176547 0.195162 0.532223
v 0.215719 0.265992 0.615553
v 0.203561 0.313730 0.580692
v 0.164389 0.242901 0.497362
v 0.182926 0.241595 0.489758
v 0.222098 0.312424 0.573087
v 0.232152 0.274195 0.600856
v 0.192980 0.203365 0.517526
v -0.108337 0.133136 0.763476
v -0.090746 0.164943 0.800897
v -0.068209 0.144228 0.807911
v -0.085800 0.112421 0.770490
v -0.144590 0.099005 0.809530
v -0.126999 0.130812 0.846950
v -0.134719 0.155701 0.829424
v -0.152310 0.123894 0.792003
v -0.302723 0.140184 0.848864
v -0.285132 0.171991 0.886285
v -0.277412 0.147102 0.903811
v -0.295003 0.115295 0.866390
v -0.332555 0.115048 0.884253
v -0.314964 0.146855 0.921674
v -0.322684 0.171744 0.904147
v -0.340275 0.139937 0.866727
v -0.364375 0.216489 0.763459
v -0.322824 0.291620 0.851849
v -0.292444 0.289959 0.838980
v -0.333996 0.214828 0.750589
v -0.308130 0.353118 0.792669
v -0.349681 0.277987 0.704279
v -0.379987 0.280132 0.716702
v -0.338436 0.355262 0.805093
v -0.670792 0.379697 0.940560
v -0.712344 0.304566 0.852170
v -0.655181 0.316055 0.987317
v -0.696732 0.240924 0.898926
v -0.740937 0.388215 0.847059
v -0.740132 0.364329 0.853752
v -0.734589 0.346259 0.871065
v -0.726426 0.340908 0.892383
v -0.718760 0.350320 0.909564
v -0.714520 0.370899 0.916046
v -0.715325 0.394785 0.909353
v -0.720868 0.412855 0.892041
v -0.729031 0.418206 0.870722
v -0.736697 0.408794 0.853541
v -0.445993 0.364866 0.728256
v -0.445188 0.340980 0.734949
v -0.439645 0.322911 0.752261
v -0.431482 0.317560 0.773580
v -0.423816 0.326971 0.790761
v -0.419576 0.347550 0.797243
v -0.420381 0.371436 0.790550
v -0.425924 0.389506 0.773237
v -0.434088 0.394857 0.751919
v -0.441753 0.385445 0.734737
v -0.736154 0.385079 0.859551
v -0.735640 0.369844 0.863820
v -0.732104 0.358318 0.874863
v -0.726897 0.354905 0.888461
v -0.722008 0.360908 0.899420
v -0.719303 0.374035 0.903554
v -0.719817 0.389270 0.899285
v -0.723353 0.400796 0.888242
v -0.728559 0.404209 0.874645
v -0.733449 0.398206 0.863685
v -0.571338 0.356837 0.797640
v -0.571851 0.372073 0.793370
v -0.567802 0.345312 0.808682
v -0.562595 0.341899 0.822280
v -0.557706 0.347902 0.833239
v -0.555001 0.361028 0.837373
v -0.555515 0.376263 0.833104
v -0.559051 0.387789 0.822062
v -0.564257 0.391202 0.808464
v -0.569147 0.385199 0.797505
v 0.751261 -0.306092 0.018103
v 0.812313 -0.466102 0.204211
v 0.022402 -0.212957 0.777917
v -0.172173 0.085713 0.615518
v 0.874446 -0.083356 0.280149
v 0.935498 -0.243366 0.466258
v 0.145586 0.009780 1.039963
v -0.048988 0.308450 0.877564
vt 0.927200 0.246707
vt 0.827427 0.459240
vt 0.696213 0.458799
vt 0.779567 0.227763
vt 0.193673 0.133961
vt 0.387467 0.042986
vt 0.404740 0.177602
vt 0.194075 0.253606
vt 0.415015 0.204984
vt 0.194375 0.280989
vt 0.666182 0.458471
vt 0.749536 0.216495
vt 0.333858 0.810420
vt 0.482548 0.810420
vt 0.482548 0.959111
vt 0.333858 0.959111
vt 0.954311 0.264288
vt 0.852013 0.459752
vt -0.727496 0.474897
vt -0.701703 0.474897
vt -0.701703 0.500689
vt -0.727496 0.500689
vt -1.408821 0.790398
vt -1.364616 0.790398
vt -1.364616 0.834602
vt -1.408821 0.834602
vt 0.193206 0.111543
vt 0.123273 0.166853
vt 0.122807 0.131768
vt 0.829833 0.536959
vt 0.791355 0.536447
vt 0.660140 0.536006
vt 0.630110 0.535678
vt 0.123975 0.313881
vt 0.123676 0.286498
vt 0.371435 0.018265
vt 0.418527 0.000861
vt 0.434558 0.025582
vt 0.946287 0.195062
vt 0.973398 0.212643
vt 0.768623 0.164850
vt 0.798654 0.176118
vt 0.451832 0.160198
vt 0.462106 0.187580
vt 0.069323 0.287655
vt 0.068921 0.168010
vt 0.790086 0.596056
vt 0.658872 0.595615
vt 0.069622 0.315037
vt 0.628841 0.595287
vt 0.828564 0.596568
vt 0.068454 0.132924
vt 0.068295 0.115698
vt 0.122648 0.114541
vt 0.848726 0.537133
vt 0.847457 0.596742
vt 0.296481 0.778563
vt 0.465802 0.778563
vt 0.465802 0.947884
vt 0.296481 0.947884
vt 0.882328 0.553418
vt 0.881059 0.597051
vt 0.108976 0.116494
vt 0.054623 0.117651
vt 0.054341 0.087011
vt 0.094127 0.085854
vt 0.107799 0.083901
vt 0.068013 0.085058
vt 0.067876 0.071816
vt 0.099715 0.070660
vt 0.896850 0.562283
vt 0.895581 0.597202
vt 0.213162 0.298524
vt 0.197060 0.311551
vt 0.632665 0.455526
vt 0.646952 0.437867
vt 0.000000 0.000000
vt 1.000000 0.000000
vt 1.000000 1.000000
vt 0.000000 1.000000
vt 0.309848 0.788364
vt 0.475308 0.788364
vt 0.475308 0.953824
vt 0.309848 0.953824
vt 0.596042 0.443658
vt 0.597803 0.421011
vt 0.228531 0.343339
vt 0.207881 0.344944
vt 0.224803 0.449870
vt 0.204153 0.451475
vt 0.479211 0.447746
vt 0.480971 0.425100
vt 0.314329 0.792844
vt 0.470828 0.792844
vt 0.470828 0.949343
vt 0.314329 0.949343
vt 0.206892 0.478764
vt 0.227542 0.477159
vt 0.124172 0.471787
vt 0.123539 0.450009
vt 0.449283 0.444743
vt 0.480819 0.536156
vt 0.456935 0.535462
vt 0.306798 0.789219
vt 0.474452 0.789219
vt 0.474452 0.956874
vt 0.306798 0.956874
vt 0.479459 0.593913
vt 0.070875 0.451248
vt 0.302167 0.788495
vt 0.479083 0.788495
vt 0.479083 0.965412
vt 0.302167 0.965412
vt 0.071091 0.472895
vt 0.455719 0.593675
vt 0.125767 0.709036
vt 0.072686 0.710145
vt 0.195528 0.591926
vt 0.196743 0.533713
vt 0.336313 0.795297
vt 0.444937 0.795297
vt 0.444937 0.903921
vt 0.336313 0.903921
vt 0.038819 0.761475
vt 0.258057 0.761475
vt 0.258057 0.980713
vt 0.038819 0.980713
vt 0.543634 0.830499
vt 0.640937 0.830499
vt 0.640937 0.927802
vt 0.543634 0.927802
vt 0.538555 0.806133
vt 0.633320 0.806133
vt 0.633320 0.900898
vt 0.538555 0.900898
vn -0.331763 -0.608410 -0.720951
vn 0.342625 0.610987 0.713654
vn -0.817763 -0.187806 0.544052
vn 0.400679 0.631965 0.663382
vn -0.271219 -0.582926 -0.765923
vn 0.738633 0.301080 -0.603136
vn -0.272709 -0.591233 -0.758994
vn 0.840899 0.147532 -0.520695
vn 0.399592 0.624387 0.671168
vn 0.342829 0.611670 0.712971
vn -0.331556 -0.607720 -0.721628
vn 0.807176 0.204903 -0.553608
vn -0.162111 -0.708956 -0.686368
vn 0.498312 0.485186 0.718526
vn -0.807176 -0.204904 0.553608
vn 0.423991 0.463347 0.778166
vn -0.239401 -0.736166 -0.633046
vn 0.384989 0.453538 0.803796
vn -0.277900 -0.745063 -0.606344
vn 0.290983 -0.792135 0.536518
vn 0.488518 -0.764655 0.420302
vn 0.649882 -0.702031 0.291216
vn -0.331006 -0.610077 -0.719889
vn 0.343381 0.609319 0.714716
vn 0.392723 0.605139 0.692514
vn -0.280428 -0.612018 -0.739456
vn -0.177773 0.789474 -0.587475
vn -0.184759 0.789986 -0.584625
vn -0.186954 0.790137 -0.583722
vn -0.183165 0.789873 -0.585279
vn 0.183163 -0.789873 0.585280
vn 0.560632 -0.742157 0.367279
vn -0.183163 0.789873 -0.585280
vn -0.184276 0.789952 -0.584824
vn 0.337201 0.609712 0.717319
vn 0.631096 -0.711789 0.308342
vn 0.918138 -0.044533 -0.393751
vn -0.728886 -0.664251 -0.165820
vn -0.919053 0.048049 0.391194
vn -0.209778 0.274376 0.938462
vn 0.795462 -0.592049 0.129299
vn 0.465315 -0.770308 0.436014
vn -0.451348 0.773368 -0.445182
vn -0.142203 0.786188 -0.601404
vn 0.142203 -0.786189 0.601403
vn 0.266163 -0.792601 0.548581
vn -0.908772 0.011854 0.417125
vn -0.936495 0.139308 0.321824
vn -0.258073 -0.805532 -0.533401
vn 0.389882 0.366071 0.844976
vn 0.928111 -0.087572 -0.361858
vn -0.201462 0.791027 -0.577659
vn -0.183163 0.789873 -0.585279
vn 0.171697 -0.788994 0.589923
vn -0.183895 0.789925 -0.584980
vn -0.180879 0.789707 -0.586213
vn 0.180879 -0.789707 0.586213
vn -0.921240 0.056741 0.384834
vn -0.378365 -0.261574 -0.887930
vn -0.312161 -0.705429 -0.636338
vn -0.151625 -0.970852 -0.185623
vn 0.106895 -0.891338 0.440556
vn 0.327153 -0.344558 0.879915
vn 0.378365 0.261576 0.887929
vn 0.312161 0.705428 0.636339
vn 0.151624 0.970852 0.185622
vn -0.106894 0.891338 -0.440556
vn -0.327153 0.344557 -0.879915
vn -0.925089 0.073232 0.372621
vn -0.925089 0.073231 0.372622
vn -0.925087 0.073230 0.372627
vn -0.925088 0.073231 0.372625
vn -0.925087 0.073231 0.372627
vn -0.925085 0.073235 0.372631
vn -0.925085 0.073238 0.372630
vn -0.925088 0.073237 0.372625
vn -0.925088 0.073235 0.372624
vn -0.925089 0.073235 0.372621
vn 0.378365 0.261574 0.887930
vn 0.312161 0.705429 0.636338
vn 0.151625 0.970852 0.185623
vn -0.106894 0.891339 -0.440554
vn -0.151626 -0.970852 -0.185625
vn 0.106894 -0.891339 0.440555
vn -0.572727 -0.673860 -0.466795
vn 0.572727 0.673859 0.466795
vn 0.925894 -0.076919 -0.369870
vn -0.799720 -0.216514 0.559973
vn -0.074827 0.776891 -0.625173
usemtl Material_pistol_Cube-k.tga
s off
f 54/43/20 58/44/20 59/45/20 55/46/20
f 57/47/22 53/48/22 56/49/22 60/50/22
f 60/50/39 56/49/39 63/51/39 61/52/39
f 55/46/40 59/45/40 62/53/40 64/54/40
f 64/55/41 62/56/41 61/57/41 63/58/41
f 58/44/42 54/43/42 67/59/42 65/60/42
f 53/61/43 57/62/43 66/63/43 68/64/43
f 68/65/44 66/66/44 65/67/44 67/68/44
f 66/69/45 57/47/45 76/70/45 69/71/45
f 65/55/46 66/56/46 69/57/46 70/58/46
f 58/44/47 65/60/47 70/72/47 75/73/47
f 62/53/48 59/45/48 74/74/48 71/75/48
f 60/50/49 61/52/49 72/76/49 73/77/49
f 59/45/20 58/44/20 75/73/20 74/74/20
f 57/47/22 60/50/22 73/77/22 76/70/22
f 68/55/50 67/56/50 78/57/50 77/58/50
f 53/48/51 68/78/51 77/79/51 84/80/51
f 67/59/52 54/43/52 83/81/52 78/82/52
f 64/55/53 63/56/53 80/57/53 79/58/53
f 55/46/54 64/54/54 79/83/54 82/84/54
f 63/51/55 56/49/55 81/85/55 80/86/55
f 54/43/56 55/46/56 82/84/56 83/81/56
f 56/49/57 53/48/57 84/80/57 81/85/57
f 84/55/58 83/56/58 82/57/58 81/58/58
f 81/55/59 82/56/59 79/57/59 80/58/59
f 83/55/60 84/56/60 77/57/60 78/58/60
f 76/70/22 73/77/22 88/87/22 85/88/22
f 74/74/20 75/73/20 86/89/20 87/90/20
f 73/77/61 72/76/61 89/91/61 88/87/61
f 71/75/62 74/74/62 87/90/62 90/92/62
f 75/73/63 70/72/63 91/93/63 86/89/63
f 69/71/64 76/70/64 85/88/64 92/94/64
f 85/65/65 88/66/65 87/67/65 86/68/65
f 87/65/66 88/66/66 89/67/66 90/68/66
f 85/65/67 86/66/67 91/67/67 92/68/67
f 92/65/68 91/66/68 94/67/68 93/68/68
f 69/71/22 92/94/22 93/95/22 96/96/22
f 91/93/20 70/72/20 95/97/20 94/98/20
f 70/99/69 69/100/69 96/101/69 95/102/69
f 95/55/70 96/56/70 97/57/70 98/58/70
f 94/98/20 95/97/20 98/103/20 99/104/20
f 96/105/22 93/106/22 100/107/22 97/108/22
f 93/65/71 94/66/71 99/67/71 100/68/71
f 100/65/72 99/66/72 102/67/72 101/68/72
f 97/109/22 100/110/22 101/111/22 104/112/22
f 99/104/73 98/103/73 103/113/73 102/114/73
f 98/55/74 97/56/74 104/57/74 103/58/74
f 103/55/75 104/56/75 101/57/75 102/58/75
f 72/76/76 61/52/76 108/115/76 105/116/76
f 71/55/77 72/56/77 105/57/77 106/58/77
f 62/53/78 71/75/78 106/117/78 107/118/78
f 61/119/79 62/120/79 107/121/79 108/122/79
f 108/123/80 107/124/80 110/125/80 109/126/80
f 107/118/29 106/117/29 111/127/29 110/128/29
f 106/55/81 105/56/81 112/57/81 111/58/81
f 105/116/22 108/115/22 109/129/22 112/130/22
f 112/130/22 109/129/22 116/131/22 113/132/22
f 111/55/82 112/56/82 113/57/82 114/58/82
f 110/128/20 111/127/20 114/133/20 115/134/20
f 109/123/83 110/124/83 115/125/83 116/126/83
f 116/135/84 115/136/84 118/137/84 117/138/84
f 115/131/20 114/132/20 119/139/20 118/140/20
f 113/132/22 116/131/22 117/140/22 120/139/22
f 117/55/85 118/56/85 119/57/85 120/58/85
f 120/55/86 119/56/86 122/57/86 121/58/86
f 113/132/87 120/139/87 121/141/87 124/142/87
f 119/143/88 114/133/88 123/144/88 122/145/88
f 114/146/89 113/147/89 124/148/89 123/149/89
f 123/65/90 124/66/90 121/67/90 122/68/90
f 90/65/91 89/66/91 126/67/91 125/68/91
f 71/75/20 90/92/20 125/150/20 123/144/20
f 89/91/22 72/76/22 124/142/22 126/151/22
f 72/152/92 71/153/92 123/154/92 124/155/92
f 126/151/22 124/142/22 121/141/22 127/156/22
f 123/144/20 125/150/20 128/157/20 122/145/20
f 125/65/93 126/66/93 127/67/93 128/68/93
f 127/156/22 121/141/22 132/158/22 130/159/22
f 122/145/20 128/157/20 129/160/20 131/161/20
f 128/162/94 127/163/94 130/164/94 129/165/94
f 121/99/95 122/100/95 131/101/95 132/102/95
f 132/55/96 131/56/96 129/57/96 130/58/96
f 133/166/97 143/167/97 144/168/97 134/169/97
f 134/166/98 144/167/98 145/168/98 135/169/98
f 135/166/99 145/167/99 146/168/99 136/169/99
f 136/166/100 146/167/100 147/168/100 137/169/100
f 137/166/101 147/167/101 148/168/101 138/169/101
f 138/166/102 148/167/102 149/168/102 139/169/102
f 139/166/103 149/167/103 150/168/103 140/169/103
f 140/166/104 150/167/104 151/168/104 141/169/104
f 141/166/105 151/167/105 152/168/105 142/169/105
f 142/166/106 152/167/106 143/168/106 133/169/106
f 133/166/107 134/167/107 154/168/107 153/169/107
f 134/166/108 135/167/108 155/168/108 154/169/108
f 135/166/109 136/167/109 156/168/109 155/169/109
f 136/166/110 137/167/110 157/168/110 156/169/110
f 137/166/111 138/167/111 158/168/111 157/169/111
f 138/166/112 139/167/112 159/168/112 158/169/112
f 139/166/113 140/167/113 160/168/113 159/169/113
f 140/166/114 141/167/114 161/168/114 160/169/114
f 141/166/115 142/167/115 162/168/115 161/169/115
f 142/166/116 133/167/116 153/168/116 162/169/116
f 153/166/117 154/167/117 163/168/117 164/169/117
f 154/166/118 155/167/118 165/168/118 163/169/118
f 155/166/119 156/167/119 166/168/119 165/169/119
f 156/166/120 157/167/120 167/168/120 166/169/120
f 157/166/106 158/167/106 168/168/106 167/169/106
f 158/166/97 159/167/97 169/168/97 168/169/97
f 159/166/98 160/167/98 170/168/98 169/169/98
f 160/166/121 161/167/121 171/168/121 170/169/121
f 161/166/122 162/167/122 172/168/122 171/169/122
f 162/166/101 153/167/101 164/168/101 172/169/101
f 175/170/123 176/171/123 173/172/123 174/173/123
f 177/170/124 180/171/124 179/172/124 178/173/124
f 173/170/125 177/171/125 178/172/125 174/173/125
f 174/170/17 178/171/17 179/172/17 175/173/17
f 175/174/126 179/175/126 180/176/126 176/177/126
f 176/170/127 180/171/127 177/172/127 173/173/127
