# Blender v2.59 (sub 0) OBJ File: 'pistol.blend'
# www.blender.org
mtllib pistol_000036.mtl
o Cube.003
v -0.199364 0.104270 0.613377
v -0.208429 0.136038 0.685349
v -0.244782 0.159169 0.670560
v -0.235717 0.127400 0.598588
v -0.124713 0.162328 0.597152
v -0.133778 0.194097 0.669124
v -0.220446 0.223374 0.645284
v -0.211381 0.191605 0.573313
v -0.292017 0.100462 0.619153
v -0.297802 0.120735 0.665082
v -0.277109 0.093048 0.679909
v -0.271324 0.072775 0.633981
vn 0.382625 0.862065 -0.332329
vn 0.617740 -0.687716 0.381371
vn -0.114471 0.401164 0.908826
vn -0.936090 0.262743 -0.233882
vn 0.114471 -0.401163 -0.908826
vn -0.510385 0.761122 -0.400251
vn -0.031118 -0.529129 -0.847970
vn 0.461488 -0.788664 0.406249
vn -0.255335 0.256640 0.932169
vn -0.827168 -0.545138 0.136443
usemtl Material.001
s off
f 5//1 8//1 7//1 6//1
f 1//2 5//2 6//2 2//2
f 2//3 6//3 7//3 3//3
f 3//4 7//4 8//4 4//4
f 5//5 1//5 4//5 8//5
f 3//6 4//6 9//6 10//6
f 4//7 1//7 12//7 9//7
f 1//8 2//8 11//8 12//8
f 2//9 3//9 10//9 11//9
f 12//10 11//10 10//10 9//10
o Cube.002
v 0.242729 -0.239547 0.514389
v 0.258284 -0.246034 0.612427
v 0.094554 -0.313758 0.633924
v 0.078999 -0.307271 0.535886
v 0.058686 0.224414 0.574291
v 0.074241 0.217927 0.672329
v -0.089489 0.150203 0.693826
v -0.105044 0.156691 0.595788
vn 0.366100 -0.922915 -0.119157
vn -0.366100 0.922915 0.119157
vn 0.917343 0.379440 -0.120443
vn 0.156372 -0.065213 0.985543
vn -0.917343 -0.379440 0.120443
vn -0.156372 0.065214 -0.985543
usemtl Material.002
s off
f 13//11 14//11 15//11 16//11
f 17//12 20//12 19//12 18//12
f 13//13 17//13 18//13 14//13
f 14//14 18//14 19//14 15//14
f 15//15 19//15 20//15 16//15
f 17//16 13//16 16//16 20//16
o Cube.001
v 0.201042 0.267018 0.553325
v 0.203265 0.270824 0.696701
v -0.776854 0.273717 0.711825
v -0.779078 0.269911 0.568449
v 0.201323 0.377760 0.550381
v 0.203547 0.381566 0.693757
v -0.776573 0.384460 0.708881
v -0.778796 0.380654 0.565505
v -0.692318 0.391754 0.628474
v -0.686424 0.380653 0.628677
v -0.734030 0.380054 0.629431
v -0.720429 0.391837 0.628908
v -0.692096 0.392133 0.642762
v -0.686202 0.381033 0.642966
v -0.733808 0.380433 0.643720
v -0.720207 0.392216 0.643196
v 0.159687 0.406949 0.635049
v 0.168049 0.377379 0.635704
v 0.114129 0.377538 0.636536
v 0.121152 0.407062 0.635644
v 0.159836 0.407202 0.644611
v 0.168197 0.377633 0.645267
v 0.114277 0.377792 0.646099
v 0.121300 0.407316 0.645206
v 0.120767 0.406403 0.610815
v 0.113744 0.376879 0.611707
v 0.167664 0.376720 0.610875
v 0.159302 0.406289 0.610220
v 0.120618 0.406149 0.601253
v 0.113595 0.376625 0.602145
v 0.167516 0.376466 0.601313
v 0.159154 0.406036 0.600658
vt 0.981492 0.700396
vt 0.981492 0.559075
vt 0.015757 0.559075
vt 0.015757 0.700396
vt 0.256982 0.028856
vt 0.256982 0.201167
vt 0.033870 0.201167
vt 0.033870 0.028856
vt 0.970962 0.782064
vt 0.970962 0.890592
vt 0.010662 0.890592
vt 0.010662 0.782064
vt 0.016806 0.783088
vt 0.016806 0.891616
vt 0.029279 0.489607
vt 0.029280 0.383592
vt 0.967338 0.383592
vt 0.967338 0.489607
vt 0.925445 0.487516
vt 0.912457 0.498835
vt 0.885552 0.498835
vt 0.879885 0.488225
vt 0.094387 0.900039
vt 0.066845 0.900039
vt 0.053548 0.888452
vt 0.100189 0.889177
vt 0.884250 0.887914
vt 0.891057 0.916869
vt 0.928814 0.916869
vt 0.937080 0.887914
vt 0.125150 0.242886
vt 0.110271 0.242886
vt 0.110271 0.196916
vt 0.125150 0.196916
vt 0.107333 0.515275
vt 0.070451 0.515275
vt 0.113983 0.486992
vt 0.062377 0.486992
vt 0.178668 0.242886
vt 0.163788 0.242886
vt 0.163788 0.196916
vt 0.178668 0.196916
vn -0.002541 -0.999644 0.026576
vn 0.002541 0.999644 -0.026576
vn 0.999877 -0.002952 -0.015429
vn 0.015502 0.026534 0.999528
vn -0.999877 0.002952 0.015428
vn -0.015502 -0.026533 -0.999528
vn -0.015502 -0.026535 -0.999528
vn 0.015502 0.026535 0.999528
vn 0.883137 0.468387 -0.026131
vn 0.013005 -0.999569 0.026334
vn -0.654993 0.755570 -0.009899
vn 0.002541 0.999644 -0.026575
vn 0.962159 0.271587 -0.022133
vn -0.002541 -0.999644 0.026577
vn -0.972755 0.231663 0.008936
vn 0.002541 0.999644 -0.026577
vn 0.002542 0.999644 -0.026575
vn -0.972755 0.231663 0.008937
vn -0.002541 -0.999644 0.026578
vn 0.962159 0.271587 -0.022132
usemtl _pistol-2_Cube.001-k.t
s off
f 21/1/17 22/2/17 23/3/17 24/4/17
f 25/1/18 28/4/18 27/3/18 26/2/18
f 21/5/19 25/6/19 26/7/19 22/8/19
f 22/9/20 26/10/20 27/11/20 23/12/20
f 23/13/21 27/14/21 28/14/21 24/13/21
f 25/15/22 21/16/22 24/17/22 28/18/22
f 31/19/23 32/20/23 29/21/23 30/22/23
f 33/23/24 36/24/24 35/25/24 34/26/24
f 29/21/25 33/21/25 34/22/25 30/22/25
f 30/22/26 34/22/26 35/19/26 31/19/26
f 31/19/27 35/19/27 36/20/27 32/20/27
f 32/20/28 36/20/28 33/21/28 29/21/28
f 39/27/22 40/28/22 37/29/22 38/30/22
f 41/29/20 44/28/20 43/27/20 42/30/20
f 37/31/29 41/32/29 42/33/29 38/34/29
f 38/30/30 42/30/30 43/27/30 39/27/30
f 39/27/31 43/27/31 44/28/31 40/28/31
f 40/28/32 44/28/32 41/29/32 37/29/32
f 49/35/33 45/35/33 48/36/33 52/36/33
f 50/37/34 46/37/34 45/35/34 49/35/34
f 51/38/35 47/38/35 46/37/35 50/37/35
f 52/39/36 48/40/36 47/41/36 51/42/36
f 48/29/20 45/28/20 46/27/20 47/30/20
f 50/37/22 49/35/22 52/36/22 51/38/22
o Cube
v 0.246698 -0.211422 0.573649
v 0.248600 -0.208167 0.696257
v 0.044449 -0.233746 0.700102
v 0.042547 -0.237001 0.577494
v 0.109522 0.082718 0.567968
v 0.111424 0.085973 0.690576
v -0.069966 0.085898 0.693391
v -0.071868 0.082643 0.570784
v -0.113386 0.082305 0.571158
v -0.111476 0.085575 0.694323
v 0.000990 -0.252459 0.578270
v 0.002901 -0.249189 0.701436
v 0.145362 0.086494 0.686786
v 0.143561 0.083411 0.570672
v 0.286090 -0.184066 0.691785
v 0.284289 -0.187148 0.575672
v 0.113171 0.190206 0.568309
v 0.114972 0.193288 0.684422
v -0.161071 0.192426 0.692255
v -0.162981 0.189157 0.569090
v -0.121462 0.189495 0.568716
v -0.119561 0.192750 0.691324
v 0.061829 0.192824 0.688509
v 0.059928 0.189569 0.565901
v 0.310696 -0.258253 0.590308
v 0.312090 -0.255869 0.680130
v 0.028888 -0.321014 0.688982
v 0.027411 -0.323543 0.593704
v 0.068966 -0.308087 0.592865
v 0.070437 -0.305569 0.687712
v 0.274589 -0.279990 0.683867
v 0.273118 -0.282508 0.589020
v 0.058384 0.271957 0.563738
v 0.060285 0.275212 0.686346
v -0.121105 0.275138 0.689161
v -0.123006 0.271883 0.566553
v -0.164525 0.271545 0.566927
v -0.162615 0.274814 0.690092
v 0.113427 0.275676 0.682259
v 0.111627 0.272594 0.566146
v 0.137744 0.272757 0.565736
v 0.139545 0.275839 0.681850
v 0.141089 0.193452 0.684013
v 0.139288 0.190369 0.567899
v 0.185797 0.212739 0.566584
v 0.187597 0.215822 0.682698
v 0.185997 0.276129 0.681122
v 0.184196 0.273047 0.565008
v 0.204272 0.273197 0.564693
v 0.206073 0.276279 0.680806
v 0.207704 0.228015 0.682062
v 0.205903 0.224932 0.565949
v -0.159180 0.079315 0.607492
v -0.158371 0.080699 0.659635
v -0.138683 0.056235 0.659979
v -0.139492 0.054850 0.607836
v -0.207494 0.031756 0.609504
v -0.206685 0.033140 0.661647
v -0.209039 0.064446 0.660852
v -0.209847 0.063062 0.608709
v -0.371339 0.069189 0.611051
v -0.370530 0.070573 0.663194
v -0.368176 0.039267 0.663989
v -0.368985 0.037883 0.611846
v -0.410367 0.033854 0.612594
v -0.409558 0.035239 0.664737
v -0.411912 0.066545 0.663943
v -0.412721 0.065160 0.611800
v -0.402375 0.189565 0.572792
v -0.400465 0.192835 0.695957
v -0.367446 0.193697 0.695422
v -0.369356 0.190427 0.572257
v -0.369122 0.273525 0.693329
v -0.371032 0.270255 0.570164
v -0.403851 0.270024 0.570679
v -0.401941 0.273294 0.693844
v -0.761630 0.271938 0.699459
v -0.763540 0.268668 0.576294
v -0.760154 0.191479 0.701572
v -0.762064 0.188209 0.578407
v -0.793436 0.343754 0.612476
v -0.793642 0.320577 0.603599
v -0.793656 0.295252 0.607543
v -0.793473 0.277451 0.622802
v -0.793163 0.273973 0.643547
v -0.792845 0.286148 0.661855
v -0.792639 0.309325 0.670731
v -0.792625 0.334651 0.666787
v -0.792808 0.352452 0.651528
v -0.793118 0.355929 0.630783
v -0.474648 0.342813 0.607556
v -0.474853 0.319636 0.598680
v -0.474867 0.294310 0.602624
v -0.474684 0.276509 0.617883
v -0.474375 0.273032 0.638628
v -0.474056 0.285207 0.656935
v -0.473851 0.308384 0.665812
v -0.473837 0.333710 0.661868
v -0.474020 0.351511 0.646609
v -0.474330 0.354988 0.625864
v -0.793329 0.333323 0.621417
v -0.793460 0.318540 0.615755
v -0.793469 0.302386 0.618271
v -0.793353 0.291032 0.628004
v -0.793155 0.288814 0.641236
v -0.792952 0.296580 0.652913
v -0.792821 0.311363 0.658575
v -0.792812 0.327516 0.656059
v -0.792929 0.338871 0.646326
v -0.793126 0.341089 0.633094
v -0.615875 0.318015 0.613015
v -0.615744 0.332798 0.618677
v -0.615884 0.301862 0.615531
v -0.615768 0.290507 0.625264
v -0.615570 0.288290 0.638496
v -0.615367 0.296055 0.650173
v -0.615236 0.310838 0.655835
v -0.615227 0.326992 0.653319
v -0.615344 0.338346 0.643586
v -0.615541 0.340564 0.630354
v 0.937704 0.004504 0.079609
v 0.936803 -0.240421 0.142677
v -0.021489 -0.229631 0.456910
v -0.161900 0.135970 0.449383
v 0.943367 0.014197 0.444750
v 0.942466 -0.230728 0.507819
v -0.015826 -0.219938 0.822052
v -0.156237 0.145663 0.814524
vt 0.927200 0.246707
vt 0.827427 0.459240
vt 0.696213 0.458799
vt 0.779567 0.227763
vt 0.193673 0.133961
vt 0.387467 0.042986
vt 0.404740 0.177602
vt 0.194075 0.253606
vt 0.415015 0.204984
vt 0.194375 0.280989
vt 0.666182 0.458471
vt 0.749536 0.216495
vt 0.333858 0.810420
vt 0.482548 0.810420
vt 0.482548 0.959111
vt 0.333858 0.959111
vt 0.954311 0.264288
vt 0.852013 0.459752
vt -0.727496 0.474897
vt -0.701703 0.474897
vt -0.701703 0.500689
vt -0.727496 0.500689
vt -1.408821 0.790398
vt -1.364616 0.790398
vt -1.364616 0.834602
vt -1.408821 0.834602
vt 0.193206 0.111543
vt 0.123273 0.166853
vt 0.122807 0.131768
vt 0.829833 0.536959
vt 0.791355 0.536447
vt 0.660140 0.536006
vt 0.630110 0.535678
vt 0.123975 0.313881
vt 0.123676 0.286498
vt 0.371435 0.018265
vt 0.418527 0.000861
vt 0.434558 0.025582
vt 0.946287 0.195062
vt 0.973398 0.212643
vt 0.768623 0.164850
vt 0.798654 0.176118
vt 0.451832 0.160198
vt 0.462106 0.187580
vt 0.069323 0.287655
vt 0.068921 0.168010
vt 0.790086 0.596056
vt 0.658872 0.595615
vt 0.069622 0.315037
vt 0.628841 0.595287
vt 0.828564 0.596568
vt 0.068454 0.132924
vt 0.068295 0.115698
vt 0.122648 0.114541
vt 0.848726 0.537133
vt 0.847457 0.596742
vt 0.296481 0.778563
vt 0.465802 0.778563
vt 0.465802 0.947884
vt 0.296481 0.947884
vt 0.882328 0.553418
vt 0.881059 0.597051
vt 0.108976 0.116494
vt 0.054623 0.117651
vt 0.054341 0.087011
vt 0.094127 0.085854
vt 0.107799 0.083901
vt 0.068013 0.085058
vt 0.067876 0.071816
vt 0.099715 0.070660
vt 0.896850 0.562283
vt 0.895581 0.597202
vt 0.213162 0.298524
vt 0.197060 0.311551
vt 0.632665 0.455526
vt 0.646952 0.437867
vt 0.000000 0.000000
vt 1.000000 0.000000
vt 1.000000 1.000000
vt 0.000000 1.000000
vt 0.309848 0.788364
vt 0.475308 0.788364
vt 0.475308 0.953824
vt 0.309848 0.953824
vt 0.596042 0.443658
vt 0.597803 0.421011
vt 0.228531 0.343339
vt 0.207881 0.344944
vt 0.224803 0.449870
vt 0.204153 0.451475
vt 0.479211 0.447746
vt 0.480971 0.425100
vt 0.314329 0.792844
vt 0.470828 0.792844
vt 0.470828 0.949343
vt 0.314329 0.949343
vt 0.206892 0.478764
vt 0.227542 0.477159
vt 0.124172 0.471787
vt 0.123539 0.450009
vt 0.449283 0.444743
vt 0.480819 0.536156
vt 0.456935 0.535462
vt 0.306798 0.789219
vt 0.474452 0.789219
vt 0.474452 0.956874
vt 0.306798 0.956874
vt 0.479459 0.593913
vt 0.070875 0.451248
vt 0.302167 0.788495
vt 0.479083 0.788495
vt 0.479083 0.965412
vt 0.302167 0.965412
vt 0.071091 0.472895
vt 0.455719 0.593675
vt 0.125767 0.709036
vt 0.072686 0.710145
vt 0.195528 0.591926
vt 0.196743 0.533713
vt 0.336313 0.795297
vt 0.444937 0.795297
vt 0.444937 0.903921
vt 0.336313 0.903921
vt 0.038819 0.761475
vt 0.258057 0.761475
vt 0.258057 0.980713
vt 0.038819 0.980713
vt 0.543634 0.830499
vt 0.640937 0.830499
vt 0.640937 0.927802
vt 0.543634 0.927802
vt 0.538555 0.806133
vt 0.633320 0.806133
vt 0.633320 0.900898
vt 0.538555 0.900898
vn -0.015502 -0.026534 -0.999528
vn -0.009208 -0.024336 -0.999661
vn 0.021795 0.028730 0.999350
vn -0.946187 -0.322784 0.023243
vn 0.092721 0.064423 0.993606
vn 0.061833 0.011554 -0.998020
vn 0.887064 0.460915 -0.025993
vn 0.058447 0.001177 -0.998290
vn 0.961708 0.273177 -0.022166
vn 0.089353 0.054078 0.994531
vn 0.022191 0.029634 0.999314
vn -0.008811 -0.023431 -0.999687
vn 0.938756 0.343767 -0.023685
vn 0.142187 -0.153534 -0.977860
vn 0.172547 -0.101568 0.979751
vn -0.938756 -0.343767 0.023685
vn 0.083149 -0.140540 0.986577
vn 0.052653 -0.192740 -0.979836
vn 0.038191 -0.156440 0.986949
vn 0.007716 -0.208600 -0.977971
vn 0.124739 -0.991890 0.024396
vn 0.348882 -0.936964 0.019462
vn 0.541895 -0.840331 0.013903
vn -0.008786 -0.026410 -0.999613
vn 0.022217 0.026656 0.999398
vn 0.076407 0.027600 0.996695
vn 0.045462 -0.025368 -0.998644
vn -0.000822 0.999648 -0.026524
vn -0.008383 0.999616 -0.026406
vn -0.010760 0.999594 -0.026369
vn -0.006656 0.999628 -0.026433
vn 0.006655 -0.999628 0.026433
vn 0.433786 -0.900852 0.017187
vn 0.015501 0.026534 0.999528
vn -0.007860 0.999620 -0.026414
vn -0.015501 -0.026534 -0.999528
vn 0.518817 -0.854760 0.014644
vn 0.999310 0.033340 -0.016383
vn -0.576473 -0.317968 -0.752712
vn -0.999450 -0.028900 0.016268
vn -0.552609 -0.277121 0.786020
vn 0.729226 -0.684239 0.006854
vn 0.321955 -0.946541 0.020134
vn 0.015502 0.026533 0.999528
vn -0.305831 0.951864 -0.020526
vn 0.037508 0.998929 -0.027100
vn -0.037508 -0.998929 0.027100
vn 0.097314 -0.994942 0.024903
vn -0.997067 -0.074520 0.017442
vn -0.996125 0.086961 0.013141
vn 0.003410 -0.302098 -0.953271
vn 0.033198 -0.251111 0.967389
vn 0.999665 -0.021128 -0.014943
vn -0.026506 0.999307 -0.026117
vn -0.006655 0.999628 -0.026433
vn -0.005746 -0.999629 0.026625
vn -0.007448 0.999623 -0.026421
vn -0.004182 0.999641 -0.026472
vn 0.004182 -0.999641 0.026472
vn -0.999712 -0.017917 0.015980
vn -0.013352 0.357742 -0.933725
vn -0.015700 -0.153864 -0.987967
vn -0.013635 -0.650834 -0.759097
vn -0.005461 -0.986242 -0.165221
vn 0.006085 -0.832709 0.553677
vn 0.013352 -0.357742 0.933725
vn 0.015700 0.153865 0.987967
vn 0.013635 0.650835 0.759097
vn 0.005461 0.986242 0.165220
vn -0.006086 0.832710 -0.553677
vn -0.999877 0.002954 0.015427
vn -0.999877 0.002952 0.015427
vn -0.999877 0.002949 0.015425
vn -0.999877 0.002948 0.015428
vn -0.999877 0.002950 0.015432
vn -0.999877 0.002950 0.015433
vn -0.999877 0.002952 0.015432
vn -0.999877 0.002955 0.015433
vn -0.999877 0.002956 0.015429
vn 0.013635 0.650834 0.759097
vn 0.005461 0.986241 0.165222
vn -0.013352 0.357743 -0.933725
vn -0.015700 -0.153866 -0.987967
vn -0.013635 -0.650832 -0.759099
vn -0.005461 -0.986241 -0.165223
vn 0.006085 -0.832710 0.553677
vn -0.321450 -0.180931 -0.929481
vn 0.321450 0.180931 0.929481
vn 0.999854 -0.007622 -0.015305
vn -0.933417 -0.357991 0.023980
vn 0.109353 0.993607 -0.028072
usemtl Material_pistol_Cube-k.tga
s off
f 54/43/20 58/44/20 59/45/20 55/46/20
f 57/47/37 53/48/37 56/49/37 60/50/37
f 60/50/38 56/49/38 63/51/38 61/52/38
f 55/46/39 59/45/39 62/53/39 64/54/39
f 64/55/40 62/56/40 61/57/40 63/58/40
f 58/44/41 54/43/41 67/59/41 65/60/41
f 53/61/42 57/62/42 66/63/42 68/64/42
f 68/65/43 66/66/43 65/67/43 67/68/43
f 66/69/44 57/47/44 76/70/44 69/71/44
f 65/55/45 66/56/45 69/57/45 70/58/45
f 58/44/46 65/60/46 70/72/46 75/73/46
f 62/53/47 59/45/47 74/74/47 71/75/47
f 60/50/48 61/52/48 72/76/48 73/77/48
f 59/45/20 58/44/20 75/73/20 74/74/20
f 57/47/22 60/50/22 73/77/22 76/70/22
f 68/55/49 67/56/49 78/57/49 77/58/49
f 53/48/50 68/78/50 77/79/50 84/80/50
f 67/59/51 54/43/51 83/81/51 78/82/51
f 64/55/52 63/56/52 80/57/52 79/58/52
f 55/46/53 64/54/53 79/83/53 82/84/53
f 63/51/54 56/49/54 81/85/54 80/86/54
f 54/43/55 55/46/55 82/84/55 83/81/55
f 56/49/56 53/48/56 84/80/56 81/85/56
f 84/55/57 83/56/57 82/57/57 81/58/57
f 81/55/58 82/56/58 79/57/58 80/58/58
f 83/55/59 84/56/59 77/57/59 78/58/59
f 76/70/37 73/77/37 88/87/37 85/88/37
f 74/74/20 75/73/20 86/89/20 87/90/20
f 73/77/60 72/76/60 89/91/60 88/87/60
f 71/75/61 74/74/61 87/90/61 90/92/61
f 75/73/62 70/72/62 91/93/62 86/89/62
f 69/71/63 76/70/63 85/88/63 92/94/63
f 85/65/64 88/66/64 87/67/64 86/68/64
f 87/65/65 88/66/65 89/67/65 90/68/65
f 85/65/66 86/66/66 91/67/66 92/68/66
f 92/65/67 91/66/67 94/67/67 93/68/67
f 69/71/37 92/94/37 93/95/37 96/96/37
f 91/93/20 70/72/20 95/97/20 94/98/20
f 70/99/68 69/100/68 96/101/68 95/102/68
f 95/55/69 96/56/69 97/57/69 98/58/69
f 94/98/70 95/97/70 98/103/70 99/104/70
f 96/105/22 93/106/22 100/107/22 97/108/22
f 93/65/67 94/66/67 99/67/67 100/68/67
f 100/65/71 99/66/71 102/67/71 101/68/71
f 97/109/72 100/110/72 101/111/72 104/112/72
f 99/104/20 98/103/20 103/113/20 102/114/20
f 98/55/73 97/56/73 104/57/73 103/58/73
f 103/55/74 104/56/74 101/57/74 102/58/74
f 72/76/75 61/52/75 108/115/75 105/116/75
f 71/55/76 72/56/76 105/57/76 106/58/76
f 62/53/77 71/75/77 106/117/77 107/118/77
f 61/119/78 62/120/78 107/121/78 108/122/78
f 108/123/79 107/124/79 110/125/79 109/126/79
f 107/118/80 106/117/80 111/127/80 110/128/80
f 106/55/81 105/56/81 112/57/81 111/58/81
f 105/116/22 108/115/22 109/129/22 112/130/22
f 112/130/22 109/129/22 116/131/22 113/132/22
f 111/55/82 112/56/82 113/57/82 114/58/82
f 110/128/80 111/127/80 114/133/80 115/134/80
f 109/123/83 110/124/83 115/125/83 116/126/83
f 116/135/84 115/136/84 118/137/84 117/138/84
f 115/131/80 114/132/80 119/139/80 118/140/80
f 113/132/22 116/131/22 117/140/22 120/139/22
f 117/55/85 118/56/85 119/57/85 120/58/85
f 120/55/86 119/56/86 122/57/86 121/58/86
f 113/132/87 120/139/87 121/141/87 124/142/87
f 119/143/88 114/133/88 123/144/88 122/145/88
f 114/146/89 113/147/89 124/148/89 123/149/89
f 123/65/90 124/66/90 121/67/90 122/68/90
f 90/65/91 89/66/91 126/67/91 125/68/91
f 71/75/80 90/92/80 125/150/80 123/144/80
f 89/91/37 72/76/37 124/142/37 126/151/37
f 72/152/92 71/153/92 123/154/92 124/155/92
f 126/151/22 124/142/22 121/141/22 127/156/22
f 123/144/80 125/150/80 128/157/80 122/145/80
f 125/65/93 126/66/93 127/67/93 128/68/93
f 127/156/22 121/141/22 132/158/22 130/159/22
f 122/145/20 128/157/20 129/160/20 131/161/20
f 128/162/94 127/163/94 130/164/94 129/165/94
f 121/99/95 122/100/95 131/101/95 132/102/95
f 132/55/96 131/56/96 129/57/96 130/58/96
f 133/166/97 143/167/97 144/168/97 134/169/97
f 134/166/98 144/167/98 145/168/98 135/169/98
f 135/166/99 145/167/99 146/168/99 136/169/99
f 136/166/100 146/167/100 147/168/100 137/169/100
f 137/166/101 147/167/101 148/168/101 138/169/101
f 138/166/102 148/167/102 149/168/102 139/169/102
f 139/166/103 149/167/103 150/168/103 140/169/103
f 140/166/104 150/167/104 151/168/104 141/169/104
f 141/166/105 151/167/105 152/168/105 142/169/105
f 142/166/106 152/167/106 143/168/106 133/169/106
f 133/166/107 134/167/107 154/168/107 153/169/107
f 134/166/108 135/167/108 155/168/108 154/169/108
f 135/166/109 136/167/109 156/168/109 155/169/109
f 136/166/110 137/167/110 157/168/110 156/169/110
f 137/166/111 138/167/111 158/168/111 157/169/111
f 138/166/112 139/167/112 159/168/112 158/169/112
f 139/166/113 140/167/113 160/168/113 159/169/113
f 140/166/114 141/167/114 161/168/114 160/169/114
f 141/166/115 142/167/115 162/168/115 161/169/115
f 142/166/107 133/167/107 153/168/107 162/169/107
f 153/166/102 154/167/102 163/168/102 164/169/102
f 154/166/103 155/167/103 165/168/103 163/169/103
f 155/166/116 156/167/116 166/168/116 165/169/116
f 156/166/117 157/167/117 167/168/117 166/169/117
f 157/166/106 158/167/106 168/168/106 167/169/106
f 158/166/118 159/167/118 169/168/118 168/169/118
f 159/166/119 160/167/119 170/168/119 169/169/119
f 160/166/120 161/167/120 171/168/120 170/169/120
f 161/166/121 162/167/121 172/168/121 171/169/121
f 162/166/122 153/167/122 164/168/122 172/169/122
f 175/170/123 176/171/123 173/172/123 174/173/123
f 177/170/124 180/171/124 179/172/124 178/173/124
f 173/170/125 177/171/125 178/172/125 174/173/125
f 174/170/17 178/171/17 179/172/17 175/173/17
f 175/174/126 179/175/126 180/176/126 176/177/126
f 176/170/127 180/171/127 177/172/127 173/173/127
