# Blender v2.59 (sub 0) OBJ File: 'pistol.blend'
# www.blender.org
mtllib pistol_000033.mtl
o Cube.003
v -0.185399 0.115771 0.637365
v -0.184425 0.151814 0.707873
v -0.223083 0.173486 0.697328
v -0.224057 0.137442 0.626821
v -0.115311 0.173723 0.606771
v -0.114337 0.209767 0.677278
v -0.204222 0.236326 0.664943
v -0.205196 0.200282 0.594436
v -0.276064 0.111066 0.657116
v -0.275443 0.134067 0.702110
v -0.252159 0.107638 0.715299
v -0.252781 0.084637 0.670305
vn 0.309520 0.844936 -0.436212
vn 0.682859 -0.654264 0.325026
vn 0.012303 0.455142 0.890334
vn -0.966126 0.234954 -0.106759
vn -0.012303 -0.455142 -0.890334
vn -0.581178 0.727815 -0.364031
vn -0.144332 -0.581061 -0.800960
vn 0.534346 -0.755596 0.378880
vn -0.120234 0.310438 0.942959
vn -0.785250 -0.546853 0.290404
usemtl Material.001
s off
f 5//1 8//1 7//1 6//1
f 1//2 5//2 6//2 2//2
f 2//3 6//3 7//3 3//3
f 3//4 7//4 8//4 4//4
f 5//5 1//5 4//5 8//5
f 3//6 4//6 9//6 10//6
f 4//7 1//7 12//7 9//7
f 1//8 2//8 11//8 12//8
f 2//9 3//9 10//9 11//9
f 12//10 11//10 10//10 9//10
o Cube.002
v 0.165496 -0.221209 0.647713
v 0.176387 -0.199819 0.744250
v 0.007337 -0.248650 0.774143
v -0.003555 -0.270041 0.677606
v 0.013917 0.250085 0.560386
v 0.024809 0.271475 0.656923
v -0.144242 0.222644 0.686816
v -0.155133 0.201253 0.590279
vn 0.301521 -0.937502 0.173712
vn -0.301521 0.937502 -0.173712
vn 0.947152 0.273592 -0.167483
vn 0.109490 0.215031 0.970450
vn -0.947152 -0.273592 0.167483
vn -0.109490 -0.215031 -0.970450
usemtl Material.002
s off
f 13//11 14//11 15//11 16//11
f 17//12 20//12 19//12 18//12
f 13//13 17//13 18//13 14//13
f 14//14 18//14 19//14 15//14
f 15//15 19//15 20//15 16//15
f 17//16 13//16 16//16 20//16
o Cube.001
v 0.188663 0.251206 0.539192
v 0.202497 0.274496 0.680054
v -0.773171 0.292299 0.772932
v -0.787005 0.269008 0.632069
v 0.188935 0.360499 0.521094
v 0.202769 0.383790 0.661957
v -0.772899 0.401592 0.754834
v -0.786733 0.378302 0.613971
v -0.695417 0.396748 0.667711
v -0.689549 0.385702 0.668961
v -0.736938 0.385836 0.673593
v -0.723400 0.397258 0.670375
v -0.694038 0.399069 0.681749
v -0.688170 0.388023 0.682999
v -0.735560 0.388157 0.687631
v -0.722022 0.399579 0.684413
v 0.154352 0.401504 0.604022
v 0.162678 0.372192 0.608050
v 0.109003 0.373172 0.613160
v 0.115992 0.402204 0.607673
v 0.155275 0.403057 0.613416
v 0.163601 0.373746 0.617445
v 0.109925 0.374725 0.622554
v 0.116914 0.403757 0.617068
v 0.113596 0.398171 0.583279
v 0.106607 0.369139 0.588766
v 0.160283 0.368159 0.583656
v 0.151956 0.397471 0.579628
v 0.112673 0.396617 0.573885
v 0.105684 0.367585 0.579371
v 0.159360 0.366606 0.574262
v 0.151034 0.395917 0.570233
vt 0.981492 0.700396
vt 0.981492 0.559075
vt 0.015757 0.559075
vt 0.015757 0.700396
vt 0.256982 0.028856
vt 0.256982 0.201167
vt 0.033870 0.201167
vt 0.033870 0.028856
vt 0.970962 0.782064
vt 0.970962 0.890592
vt 0.010662 0.890592
vt 0.010662 0.782064
vt 0.016806 0.783088
vt 0.016806 0.891616
vt 0.029279 0.489607
vt 0.029280 0.383592
vt 0.967338 0.383592
vt 0.967338 0.489607
vt 0.925445 0.487516
vt 0.912457 0.498835
vt 0.885552 0.498835
vt 0.879885 0.488225
vt 0.094387 0.900039
vt 0.066845 0.900039
vt 0.053548 0.888452
vt 0.100189 0.889177
vt 0.884250 0.887914
vt 0.891057 0.916869
vt 0.928814 0.916869
vt 0.937080 0.887914
vt 0.125150 0.242886
vt 0.110271 0.242886
vt 0.110271 0.196916
vt 0.125150 0.196916
vt 0.107333 0.515275
vt 0.070451 0.515275
vt 0.113983 0.486992
vt 0.062377 0.486992
vt 0.178668 0.242886
vt 0.163788 0.242886
vt 0.163788 0.196916
vt 0.178668 0.196916
vn -0.002451 -0.986563 0.163361
vn 0.002451 0.986563 -0.163361
vn 0.995336 -0.018162 -0.094749
vn 0.096443 0.162367 0.982006
vn -0.995336 0.018161 0.094749
vn -0.096443 -0.162367 -0.982006
vn 0.096444 0.162367 0.982006
vn 0.879089 0.448808 -0.160541
vn 0.013025 -0.986726 0.161868
vn -0.652078 0.755702 -0.060909
vn -0.096443 -0.162366 -0.982006
vn 0.957768 0.253371 -0.135956
vn -0.002451 -0.986563 0.163362
vn -0.968355 0.243475 0.054845
vn 0.002450 0.986563 -0.163362
vn -0.002451 -0.986564 0.163360
vn 0.096443 0.162366 0.982006
usemtl _pistol-2_Cube.001-k.t
s off
f 21/1/17 22/2/17 23/3/17 24/4/17
f 25/1/18 28/4/18 27/3/18 26/2/18
f 21/5/19 25/6/19 26/7/19 22/8/19
f 22/9/20 26/10/20 27/11/20 23/12/20
f 23/13/21 27/14/21 28/14/21 24/13/21
f 25/15/22 21/16/22 24/17/22 28/18/22
f 31/19/22 32/20/22 29/21/22 30/22/22
f 33/23/23 36/24/23 35/25/23 34/26/23
f 29/21/24 33/21/24 34/22/24 30/22/24
f 30/22/25 34/22/25 35/19/25 31/19/25
f 31/19/26 35/19/26 36/20/26 32/20/26
f 32/20/18 36/20/18 33/21/18 29/21/18
f 39/27/27 40/28/27 37/29/27 38/30/27
f 41/29/20 44/28/20 43/27/20 42/30/20
f 37/31/28 41/32/28 42/33/28 38/34/28
f 38/30/29 42/30/29 43/27/29 39/27/29
f 39/27/30 43/27/30 44/28/30 40/28/30
f 40/28/18 44/28/18 41/29/18 37/29/18
f 49/35/31 45/35/31 48/36/31 52/36/31
f 50/37/30 46/37/30 45/35/30 49/35/30
f 51/38/32 47/38/32 46/37/32 50/37/32
f 52/39/28 48/40/28 47/41/28 51/42/28
f 48/29/33 45/28/33 46/27/33 47/30/33
f 50/37/22 49/35/22 52/36/22 51/38/22
o Cube
v 0.259642 -0.198557 0.610567
v 0.271472 -0.178640 0.731026
v 0.068250 -0.200773 0.754644
v 0.056420 -0.220690 0.634185
v 0.123065 0.093837 0.575635
v 0.134896 0.113754 0.696094
v -0.045670 0.116447 0.713382
v -0.057501 0.096530 0.592924
v -0.098853 0.096791 0.596658
v -0.086969 0.116798 0.717664
v 0.015031 -0.235350 0.640390
v 0.026915 -0.215343 0.761396
v 0.168416 0.113307 0.689567
v 0.157213 0.094445 0.575490
v 0.308526 -0.155868 0.720313
v 0.297323 -0.174730 0.606235
v 0.126952 0.200311 0.560957
v 0.138156 0.219172 0.675035
v -0.136347 0.223012 0.704952
v -0.148231 0.203005 0.583945
v -0.106878 0.202744 0.580211
v -0.095048 0.222661 0.700670
v 0.085518 0.219968 0.683382
v 0.073688 0.200051 0.562923
v 0.324682 -0.243517 0.628314
v 0.333348 -0.228926 0.716562
v 0.051660 -0.288530 0.756861
v 0.042466 -0.304007 0.663253
v 0.083850 -0.289357 0.656986
v 0.093001 -0.273949 0.750170
v 0.296223 -0.251817 0.726552
v 0.287072 -0.267224 0.633369
v 0.072144 0.281388 0.549626
v 0.083974 0.301304 0.670085
v -0.096592 0.303997 0.687373
v -0.108422 0.284080 0.566915
v -0.149774 0.284341 0.570649
v -0.137890 0.304349 0.691655
v 0.136612 0.300509 0.661739
v 0.125409 0.281647 0.547661
v 0.151407 0.281410 0.545147
v 0.162611 0.300272 0.659225
v 0.164155 0.218935 0.672521
v 0.152951 0.200073 0.558443
v 0.199246 0.221442 0.550364
v 0.210450 0.240304 0.664441
v 0.208852 0.299849 0.654753
v 0.197649 0.280988 0.540675
v 0.217633 0.280829 0.538739
v 0.228837 0.299691 0.652817
v 0.230464 0.252031 0.660537
v 0.219260 0.233169 0.546459
v -0.141560 0.099385 0.636602
v -0.136529 0.107855 0.687831
v -0.116929 0.083409 0.689948
v -0.121960 0.074939 0.638719
v -0.189651 0.053183 0.648964
v -0.184620 0.061653 0.700193
v -0.186965 0.092587 0.695309
v -0.191996 0.084116 0.644080
v -0.352755 0.092627 0.658461
v -0.347723 0.101097 0.709690
v -0.345378 0.070163 0.714574
v -0.350409 0.061693 0.663345
v -0.391603 0.058348 0.667944
v -0.386572 0.066818 0.719173
v -0.388917 0.097752 0.714288
v -0.393949 0.089281 0.663060
v -0.386538 0.207059 0.606679
v -0.374654 0.227067 0.727685
v -0.341785 0.227414 0.724400
v -0.353669 0.207406 0.603394
v -0.343460 0.306226 0.711534
v -0.355344 0.286218 0.590527
v -0.388013 0.286491 0.593691
v -0.376129 0.306498 0.714697
v -0.734184 0.310645 0.749176
v -0.746068 0.290638 0.628170
v -0.732709 0.231213 0.762165
v -0.744593 0.211206 0.641158
v -0.772782 0.370342 0.655999
v -0.773753 0.346176 0.650426
v -0.773500 0.321627 0.657790
v -0.772119 0.306072 0.675279
v -0.770137 0.305452 0.696213
v -0.768312 0.320004 0.712596
v -0.767341 0.344170 0.718170
v -0.767594 0.368719 0.710805
v -0.768975 0.384274 0.693316
v -0.770956 0.384894 0.672382
v -0.455441 0.364551 0.625791
v -0.456412 0.340385 0.620217
v -0.456159 0.315836 0.627581
v -0.454778 0.300281 0.645071
v -0.452797 0.299662 0.666005
v -0.450972 0.314214 0.682387
v -0.450000 0.338380 0.687961
v -0.450253 0.362929 0.680597
v -0.451634 0.378484 0.663107
v -0.453616 0.379104 0.642173
v -0.771972 0.361227 0.666248
v -0.772592 0.345813 0.662693
v -0.772431 0.330154 0.667390
v -0.771550 0.320233 0.678545
v -0.770286 0.319837 0.691898
v -0.769122 0.329120 0.702348
v -0.768502 0.344533 0.705903
v -0.768663 0.360192 0.701205
v -0.769544 0.370113 0.690050
v -0.770808 0.370509 0.676697
v -0.595813 0.342587 0.645865
v -0.595194 0.358001 0.649420
v -0.595652 0.326929 0.650562
v -0.594771 0.317007 0.661717
v -0.593507 0.316612 0.675070
v -0.592343 0.325894 0.685519
v -0.591724 0.341308 0.689075
v -0.591885 0.356966 0.684377
v -0.592766 0.366888 0.673222
v -0.594030 0.367283 0.659869
v 0.908819 -0.061106 0.037972
v 0.912520 -0.295112 0.133861
v -0.017155 -0.228990 0.519236
v -0.156957 0.133983 0.472951
v 0.944051 -0.001792 0.396713
v 0.947752 -0.235797 0.492602
v 0.018077 -0.169675 0.877977
v -0.121725 0.193298 0.831692
vt 0.927200 0.246707
vt 0.827427 0.459240
vt 0.696213 0.458799
vt 0.779567 0.227763
vt 0.193673 0.133961
vt 0.387467 0.042986
vt 0.404740 0.177602
vt 0.194075 0.253606
vt 0.415015 0.204984
vt 0.194375 0.280989
vt 0.666182 0.458471
vt 0.749536 0.216495
vt 0.333858 0.810420
vt 0.482548 0.810420
vt 0.482548 0.959111
vt 0.333858 0.959111
vt 0.954311 0.264288
vt 0.852013 0.459752
vt -0.727496 0.474897
vt -0.701703 0.474897
vt -0.701703 0.500689
vt -0.727496 0.500689
vt -1.408821 0.790398
vt -1.364616 0.790398
vt -1.364616 0.834602
vt -1.408821 0.834602
vt 0.193206 0.111543
vt 0.123273 0.166853
vt 0.122807 0.131768
vt 0.829833 0.536959
vt 0.791355 0.536447
vt 0.660140 0.536006
vt 0.630110 0.535678
vt 0.123975 0.313881
vt 0.123676 0.286498
vt 0.371435 0.018265
vt 0.418527 0.000861
vt 0.434558 0.025582
vt 0.946287 0.195062
vt 0.973398 0.212643
vt 0.768623 0.164850
vt 0.798654 0.176118
vt 0.451832 0.160198
vt 0.462106 0.187580
vt 0.069323 0.287655
vt 0.068921 0.168010
vt 0.790086 0.596056
vt 0.658872 0.595615
vt 0.069622 0.315037
vt 0.628841 0.595287
vt 0.828564 0.596568
vt 0.068454 0.132924
vt 0.068295 0.115698
vt 0.122648 0.114541
vt 0.848726 0.537133
vt 0.847457 0.596742
vt 0.296481 0.778563
vt 0.465802 0.778563
vt 0.465802 0.947884
vt 0.296481 0.947884
vt 0.882328 0.553418
vt 0.881059 0.597051
vt 0.108976 0.116494
vt 0.054623 0.117651
vt 0.054341 0.087011
vt 0.094127 0.085854
vt 0.107799 0.083901
vt 0.068013 0.085058
vt 0.067876 0.071816
vt 0.099715 0.070660
vt 0.896850 0.562283
vt 0.895581 0.597202
vt 0.213162 0.298524
vt 0.197060 0.311551
vt 0.632665 0.455526
vt 0.646952 0.437867
vt 0.000000 0.000000
vt 1.000000 0.000000
vt 1.000000 1.000000
vt 0.000000 1.000000
vt 0.309848 0.788364
vt 0.475308 0.788364
vt 0.475308 0.953824
vt 0.309848 0.953824
vt 0.596042 0.443658
vt 0.597803 0.421011
vt 0.228531 0.343339
vt 0.207881 0.344944
vt 0.224803 0.449870
vt 0.204153 0.451475
vt 0.479211 0.447746
vt 0.480971 0.425100
vt 0.314329 0.792844
vt 0.470828 0.792844
vt 0.470828 0.949343
vt 0.314329 0.949343
vt 0.206892 0.478764
vt 0.227542 0.477159
vt 0.124172 0.471787
vt 0.123539 0.450009
vt 0.449283 0.444743
vt 0.480819 0.536156
vt 0.456935 0.535462
vt 0.306798 0.789219
vt 0.474452 0.789219
vt 0.474452 0.956874
vt 0.306798 0.956874
vt 0.479459 0.593913
vt 0.070875 0.451248
vt 0.302167 0.788495
vt 0.479083 0.788495
vt 0.479083 0.965412
vt 0.302167 0.965412
vt 0.071091 0.472895
vt 0.455719 0.593675
vt 0.125767 0.709036
vt 0.072686 0.710145
vt 0.195528 0.591926
vt 0.196743 0.533713
vt 0.336313 0.795297
vt 0.444937 0.795297
vt 0.444937 0.903921
vt 0.336313 0.903921
vt 0.038819 0.761475
vt 0.258057 0.761475
vt 0.258057 0.980713
vt 0.038819 0.980713
vt 0.543634 0.830499
vt 0.640937 0.830499
vt 0.640937 0.927802
vt 0.543634 0.927802
vt 0.538555 0.806133
vt 0.633320 0.806133
vt 0.633320 0.900898
vt 0.538555 0.900898
vn -0.090175 -0.160290 -0.982942
vn 0.102706 0.164436 0.981026
vn -0.941864 -0.304143 0.142788
vn 0.173008 0.198078 0.964797
vn -0.019160 -0.125448 -0.991915
vn 0.882998 0.441374 -0.159697
vn -0.022580 -0.135720 -0.990490
vn 0.957319 0.254947 -0.136171
vn 0.169705 0.188001 0.967397
vn 0.103099 0.165321 0.980836
vn -0.089780 -0.159403 -0.983123
vn 0.934465 0.324966 -0.145505
vn 0.062219 -0.287287 -0.955822
vn 0.251105 0.030714 0.967472
vn -0.934465 -0.324966 0.145504
vn 0.162474 -0.005786 0.986696
vn -0.027262 -0.325217 -0.945246
vn 0.117660 -0.020895 0.992834
vn -0.071932 -0.340083 -0.937640
vn 0.124251 -0.980852 0.149973
vn 0.347372 -0.930061 0.119663
vn 0.539501 -0.837632 0.085511
vn -0.089756 -0.162344 -0.982643
vn 0.103125 0.162382 0.981324
vn 0.156922 0.162237 0.974194
vn -0.035606 -0.161892 -0.986166
vn -0.000897 0.986619 -0.163041
vn -0.008424 0.986703 -0.162316
vn -0.010791 0.986718 -0.162086
vn -0.006705 0.986689 -0.162483
vn 0.006703 -0.986689 0.162483
vn 0.431887 -0.895714 0.105684
vn 0.096442 0.162367 0.982006
vn -0.006704 0.986689 -0.162483
vn -0.007904 0.986699 -0.162366
vn 0.516528 -0.851521 0.090064
vn 0.994768 0.017665 -0.100616
vn -0.636188 -0.410032 -0.653558
vn -0.994908 -0.013281 0.099906
vn -0.487718 -0.160075 0.858200
vn 0.725968 -0.686433 0.042199
vn 0.320568 -0.939102 0.123790
vn -0.304517 0.944110 -0.126195
vn 0.037259 0.985325 -0.166575
vn -0.037259 -0.985325 0.166575
vn 0.096950 -0.983446 0.153084
vn -0.096444 -0.162367 -0.982006
vn -0.992532 -0.058343 0.107124
vn -0.991608 0.101017 0.080684
vn -0.074419 -0.429274 -0.900103
vn 0.110904 -0.117275 0.986887
vn 0.995126 -0.036098 -0.091763
vn -0.026464 0.986675 -0.160540
vn -0.005641 -0.986500 0.163664
vn -0.007493 0.986696 -0.162406
vn -0.004242 0.986663 -0.162720
vn 0.004242 -0.986663 0.162720
vn -0.995170 -0.002437 0.098139
vn -0.088176 0.227229 -0.969841
vn -0.095967 -0.286917 -0.953136
vn -0.076406 -0.748024 -0.659259
vn -0.020864 -0.999401 -0.027610
vn 0.049175 -0.749445 0.660237
vn 0.088176 -0.227229 0.969841
vn 0.095968 0.286918 0.953136
vn 0.076406 0.748024 0.659259
vn 0.020864 0.999401 0.027610
vn -0.049175 0.749445 -0.660237
vn -0.995336 0.018163 0.094745
vn -0.995336 0.018160 0.094745
vn -0.995336 0.018160 0.094748
vn -0.995336 0.018159 0.094749
vn -0.995335 0.018159 0.094750
vn -0.995335 0.018160 0.094755
vn -0.995335 0.018163 0.094755
vn -0.995335 0.018164 0.094751
vn -0.995336 0.018166 0.094748
vn -0.995336 0.018165 0.094748
vn 0.088176 -0.227230 0.969841
vn 0.095967 0.286916 0.953137
vn 0.076406 0.748025 0.659258
vn 0.020864 0.999401 0.027612
vn -0.049175 0.749446 -0.660236
vn -0.088176 0.227232 -0.969841
vn -0.095968 -0.286918 -0.953136
vn -0.076406 -0.748023 -0.659261
vn -0.020864 -0.999401 -0.027612
vn 0.049175 -0.749446 0.660236
vn -0.396033 -0.301739 -0.867244
vn 0.396033 0.301739 0.867244
vn 0.995313 -0.022770 -0.093985
vn -0.929149 -0.339086 0.147317
vn 0.108778 0.978976 -0.172549
usemtl Material_pistol_Cube-k.tga
s off
f 54/43/20 58/44/20 59/45/20 55/46/20
f 57/47/22 53/48/22 56/49/22 60/50/22
f 60/50/34 56/49/34 63/51/34 61/52/34
f 55/46/35 59/45/35 62/53/35 64/54/35
f 64/55/36 62/56/36 61/57/36 63/58/36
f 58/44/37 54/43/37 67/59/37 65/60/37
f 53/61/38 57/62/38 66/63/38 68/64/38
f 68/65/39 66/66/39 65/67/39 67/68/39
f 66/69/40 57/47/40 76/70/40 69/71/40
f 65/55/41 66/56/41 69/57/41 70/58/41
f 58/44/42 65/60/42 70/72/42 75/73/42
f 62/53/43 59/45/43 74/74/43 71/75/43
f 60/50/44 61/52/44 72/76/44 73/77/44
f 59/45/20 58/44/20 75/73/20 74/74/20
f 57/47/22 60/50/22 73/77/22 76/70/22
f 68/55/45 67/56/45 78/57/45 77/58/45
f 53/48/46 68/78/46 77/79/46 84/80/46
f 67/59/47 54/43/47 83/81/47 78/82/47
f 64/55/48 63/56/48 80/57/48 79/58/48
f 55/46/49 64/54/49 79/83/49 82/84/49
f 63/51/50 56/49/50 81/85/50 80/86/50
f 54/43/51 55/46/51 82/84/51 83/81/51
f 56/49/52 53/48/52 84/80/52 81/85/52
f 84/55/53 83/56/53 82/57/53 81/58/53
f 81/55/54 82/56/54 79/57/54 80/58/54
f 83/55/55 84/56/55 77/57/55 78/58/55
f 76/70/22 73/77/22 88/87/22 85/88/22
f 74/74/20 75/73/20 86/89/20 87/90/20
f 73/77/56 72/76/56 89/91/56 88/87/56
f 71/75/57 74/74/57 87/90/57 90/92/57
f 75/73/58 70/72/58 91/93/58 86/89/58
f 69/71/59 76/70/59 85/88/59 92/94/59
f 85/65/60 88/66/60 87/67/60 86/68/60
f 87/65/61 88/66/61 89/67/61 90/68/61
f 85/65/62 86/66/62 91/67/62 92/68/62
f 92/65/63 91/66/63 94/67/63 93/68/63
f 69/71/22 92/94/22 93/95/22 96/96/22
f 91/93/20 70/72/20 95/97/20 94/98/20
f 70/99/64 69/100/64 96/101/64 95/102/64
f 95/55/65 96/56/65 97/57/65 98/58/65
f 94/98/66 95/97/66 98/103/66 99/104/66
f 96/105/27 93/106/27 100/107/27 97/108/27
f 93/65/67 94/66/67 99/67/67 100/68/67
f 100/65/68 99/66/68 102/67/68 101/68/68
f 97/109/22 100/110/22 101/111/22 104/112/22
f 99/104/20 98/103/20 103/113/20 102/114/20
f 98/55/69 97/56/69 104/57/69 103/58/69
f 103/55/70 104/56/70 101/57/70 102/58/70
f 72/76/71 61/52/71 108/115/71 105/116/71
f 71/55/72 72/56/72 105/57/72 106/58/72
f 62/53/73 71/75/73 106/117/73 107/118/73
f 61/119/74 62/120/74 107/121/74 108/122/74
f 108/123/75 107/124/75 110/125/75 109/126/75
f 107/118/33 106/117/33 111/127/33 110/128/33
f 106/55/76 105/56/76 112/57/76 111/58/76
f 105/116/22 108/115/22 109/129/22 112/130/22
f 112/130/27 109/129/27 116/131/27 113/132/27
f 111/55/77 112/56/77 113/57/77 114/58/77
f 110/128/20 111/127/20 114/133/20 115/134/20
f 109/123/78 110/124/78 115/125/78 116/126/78
f 116/135/79 115/136/79 118/137/79 117/138/79
f 115/131/20 114/132/20 119/139/20 118/140/20
f 113/132/80 116/131/80 117/140/80 120/139/80
f 117/55/81 118/56/81 119/57/81 120/58/81
f 120/55/82 119/56/82 122/57/82 121/58/82
f 113/132/83 120/139/83 121/141/83 124/142/83
f 119/143/84 114/133/84 123/144/84 122/145/84
f 114/146/85 113/147/85 124/148/85 123/149/85
f 123/65/86 124/66/86 121/67/86 122/68/86
f 90/65/67 89/66/67 126/67/67 125/68/67
f 71/75/20 90/92/20 125/150/20 123/144/20
f 89/91/27 72/76/27 124/142/27 126/151/27
f 72/152/87 71/153/87 123/154/87 124/155/87
f 126/151/27 124/142/27 121/141/27 127/156/27
f 123/144/20 125/150/20 128/157/20 122/145/20
f 125/65/88 126/66/88 127/67/88 128/68/88
f 127/156/27 121/141/27 132/158/27 130/159/27
f 122/145/20 128/157/20 129/160/20 131/161/20
f 128/162/89 127/163/89 130/164/89 129/165/89
f 121/99/90 122/100/90 131/101/90 132/102/90
f 132/55/91 131/56/91 129/57/91 130/58/91
f 133/166/92 143/167/92 144/168/92 134/169/92
f 134/166/93 144/167/93 145/168/93 135/169/93
f 135/166/94 145/167/94 146/168/94 136/169/94
f 136/166/95 146/167/95 147/168/95 137/169/95
f 137/166/96 147/167/96 148/168/96 138/169/96
f 138/166/97 148/167/97 149/168/97 139/169/97
f 139/166/98 149/167/98 150/168/98 140/169/98
f 140/166/99 150/167/99 151/168/99 141/169/99
f 141/166/100 151/167/100 152/168/100 142/169/100
f 142/166/101 152/167/101 143/168/101 133/169/101
f 133/166/102 134/167/102 154/168/102 153/169/102
f 134/166/103 135/167/103 155/168/103 154/169/103
f 135/166/104 136/167/104 156/168/104 155/169/104
f 136/166/105 137/167/105 157/168/105 156/169/105
f 137/166/106 138/167/106 158/168/106 157/169/106
f 138/166/107 139/167/107 159/168/107 158/169/107
f 139/166/108 140/167/108 160/168/108 159/169/108
f 140/166/109 141/167/109 161/168/109 160/169/109
f 141/166/110 142/167/110 162/168/110 161/169/110
f 142/166/111 133/167/111 153/168/111 162/169/111
f 153/166/112 154/167/112 163/168/112 164/169/112
f 154/166/113 155/167/113 165/168/113 163/169/113
f 155/166/114 156/167/114 166/168/114 165/169/114
f 156/166/115 157/167/115 167/168/115 166/169/115
f 157/166/116 158/167/116 168/168/116 167/169/116
f 158/166/117 159/167/117 169/168/117 168/169/117
f 159/166/118 160/167/118 170/168/118 169/169/118
f 160/166/119 161/167/119 171/168/119 170/169/119
f 161/166/120 162/167/120 172/168/120 171/169/120
f 162/166/121 153/167/121 164/168/121 172/169/121
f 175/170/122 176/171/122 173/172/122 174/173/122
f 177/170/123 180/171/123 179/172/123 178/173/123
f 173/170/124 177/171/124 178/172/124 174/173/124
f 174/170/17 178/171/17 179/172/17 175/173/17
f 175/174/125 179/175/125 180/176/125 176/177/125
f 176/170/126 180/171/126 177/172/126 173/173/126
