# Blender v2.59 (sub 0) OBJ File: 'pistol.blend'
# www.blender.org
mtllib pistol_000034.mtl
o Cube.003
v -0.191388 0.110905 0.627252
v -0.194545 0.145152 0.698586
v -0.232291 0.167453 0.686209
v -0.229134 0.133206 0.614876
v -0.119059 0.168933 0.602594
v -0.122215 0.203180 0.673928
v -0.210935 0.230903 0.656692
v -0.207778 0.196656 0.585358
v -0.283147 0.106576 0.641176
v -0.285162 0.128431 0.686698
v -0.262963 0.101455 0.700631
v -0.260949 0.079601 0.655109
vn 0.343008 0.852631 -0.394164
vn 0.655884 -0.668767 0.350096
vn -0.039862 0.432456 0.900773
vn -0.955623 0.246838 -0.160795
vn 0.039862 -0.432456 -0.900774
vn -0.551372 0.742295 -0.380771
vn -0.098512 -0.559309 -0.823085
vn 0.503481 -0.769989 0.391948
vn -0.176591 0.287754 0.941283
vn -0.806262 -0.546416 0.226652
usemtl Material.001
s off
f 5//1 8//1 7//1 6//1
f 1//2 5//2 6//2 2//2
f 2//3 6//3 7//3 3//3
f 3//4 7//4 8//4 4//4
f 5//5 1//5 4//5 8//5
f 3//6 4//6 9//6 10//6
f 4//7 1//7 12//7 9//7
f 1//8 2//8 11//8 12//8
f 2//9 3//9 10//9 11//9
f 12//10 11//10 10//10 9//10
o Cube.002
v 0.251899 -0.221233 0.565439
v 0.266304 -0.215062 0.663673
v 0.112185 -0.300623 0.691649
v 0.097780 -0.306795 0.593414
v 0.009029 0.218847 0.573405
v 0.023434 0.225019 0.671639
v -0.130685 0.139458 0.699614
v -0.145090 0.133286 0.601380
vn 0.483119 -0.875411 -0.015845
vn -0.483119 0.875411 0.015845
vn 0.863497 0.479381 -0.156739
vn 0.144808 0.062042 0.987513
vn -0.863497 -0.479381 0.156739
vn -0.144808 -0.062042 -0.987513
usemtl Material.002
s off
f 13//11 14//11 15//11 16//11
f 17//12 20//12 19//12 18//12
f 13//13 17//13 18//13 14//13
f 14//14 18//14 19//14 15//14
f 15//15 19//15 20//15 16//15
f 17//16 13//16 16//16 20//16
o Cube.001
v 0.193649 0.257569 0.544932
v 0.202590 0.272698 0.687296
v -0.775732 0.284228 0.747511
v -0.784672 0.269099 0.605148
v 0.194224 0.367725 0.533190
v 0.203165 0.382854 0.675553
v -0.775156 0.394384 0.735768
v -0.784097 0.379255 0.593405
v -0.694725 0.394649 0.651221
v -0.688872 0.383555 0.652032
v -0.736392 0.383379 0.655035
v -0.722785 0.394980 0.652948
v -0.693834 0.396157 0.665409
v -0.687981 0.385062 0.666220
v -0.735501 0.384886 0.669223
v -0.721894 0.396488 0.667136
v 0.156708 0.403841 0.617109
v 0.164975 0.374354 0.619723
v 0.111154 0.374988 0.623036
v 0.118243 0.404295 0.619476
v 0.157304 0.404850 0.626603
v 0.165572 0.375363 0.629218
v 0.111750 0.375997 0.632530
v 0.118839 0.405304 0.628971
v 0.116694 0.401675 0.594822
v 0.109606 0.372368 0.598382
v 0.163427 0.371734 0.595069
v 0.155159 0.401221 0.592455
v 0.116098 0.400666 0.585328
v 0.109009 0.371359 0.588888
v 0.162831 0.370725 0.585575
v 0.154563 0.400212 0.582960
vt 0.981492 0.700396
vt 0.981492 0.559075
vt 0.015757 0.559075
vt 0.015757 0.700396
vt 0.256982 0.028856
vt 0.256982 0.201167
vt 0.033870 0.201167
vt 0.033870 0.028856
vt 0.970962 0.782064
vt 0.970962 0.890592
vt 0.010662 0.890592
vt 0.010662 0.782064
vt 0.016806 0.783088
vt 0.016806 0.891616
vt 0.029279 0.489607
vt 0.029280 0.383592
vt 0.967338 0.383592
vt 0.967338 0.489607
vt 0.925445 0.487516
vt 0.912457 0.498835
vt 0.885552 0.498835
vt 0.879885 0.488225
vt 0.094387 0.900039
vt 0.066845 0.900039
vt 0.053548 0.888452
vt 0.100189 0.889177
vt 0.884250 0.887914
vt 0.891057 0.916869
vt 0.928814 0.916869
vt 0.937080 0.887914
vt 0.125150 0.242886
vt 0.110271 0.242886
vt 0.110271 0.196916
vt 0.125150 0.196916
vt 0.107333 0.515275
vt 0.070451 0.515275
vt 0.113983 0.486992
vt 0.062377 0.486992
vt 0.178668 0.242886
vt 0.163788 0.242886
vt 0.163788 0.196916
vt 0.178668 0.196916
vn -0.005195 -0.994353 0.105997
vn 0.005195 0.994353 -0.105997
vn 0.998042 -0.011762 -0.061429
vn 0.062329 0.105470 0.992467
vn -0.998042 0.011762 0.061429
vn -0.062329 -0.105470 -0.992467
vn -0.062329 -0.105471 -0.992467
vn 0.062329 0.105471 0.992467
vn 0.882769 0.458123 -0.104125
vn 0.010323 -0.994416 0.105028
vn -0.651787 0.757370 -0.039552
vn 0.961124 0.261663 -0.088167
vn -0.005195 -0.994353 0.105995
vn -0.970362 0.239029 0.035538
vn 0.005195 0.994353 -0.105998
vn 0.005196 0.994353 -0.105997
vn -0.970362 0.239029 0.035539
vn -0.005195 -0.994353 0.105999
vn 0.961124 0.261663 -0.088168
usemtl _pistol-2_Cube.001-k.t
s off
f 21/1/17 22/2/17 23/3/17 24/4/17
f 25/1/18 28/4/18 27/3/18 26/2/18
f 21/5/19 25/6/19 26/7/19 22/8/19
f 22/9/20 26/10/20 27/11/20 23/12/20
f 23/13/21 27/14/21 28/14/21 24/13/21
f 25/15/22 21/16/22 24/17/22 28/18/22
f 31/19/23 32/20/23 29/21/23 30/22/23
f 33/23/24 36/24/24 35/25/24 34/26/24
f 29/21/25 33/21/25 34/22/25 30/22/25
f 30/22/26 34/22/26 35/19/26 31/19/26
f 31/19/27 35/19/27 36/20/27 32/20/27
f 32/20/18 36/20/18 33/21/18 29/21/18
f 39/27/22 40/28/22 37/29/22 38/30/22
f 41/29/20 44/28/20 43/27/20 42/30/20
f 37/31/28 41/32/28 42/33/28 38/34/28
f 38/30/29 42/30/29 43/27/29 39/27/29
f 39/27/30 43/27/30 44/28/30 40/28/30
f 40/28/31 44/28/31 41/29/31 37/29/31
f 49/35/32 45/35/32 48/36/32 52/36/32
f 50/37/33 46/37/33 45/35/33 49/35/33
f 51/38/34 47/38/34 46/37/34 50/37/34
f 52/39/35 48/40/35 47/41/35 51/42/35
f 48/29/20 45/28/20 46/27/20 47/30/20
f 50/37/22 49/35/22 52/36/22 51/38/22
o Cube
v 0.254240 -0.204033 0.594843
v 0.261886 -0.191096 0.716585
v 0.058040 -0.214738 0.731899
v 0.050394 -0.227676 0.610157
v 0.118097 0.089767 0.572171
v 0.125743 0.102705 0.693912
v -0.055316 0.104232 0.705121
v -0.062962 0.091294 0.583379
v -0.104418 0.091302 0.585701
v -0.096738 0.104299 0.707996
v 0.008859 -0.242707 0.614082
v 0.016539 -0.229711 0.736377
v 0.159468 0.102666 0.688525
v 0.152227 0.090414 0.573232
v 0.299219 -0.167709 0.708481
v 0.291979 -0.179962 0.593188
v 0.122177 0.196914 0.563801
v 0.129417 0.209167 0.679094
v -0.145958 0.211025 0.699745
v -0.153638 0.198029 0.577450
v -0.112182 0.198021 0.575128
v -0.104536 0.210958 0.696870
v 0.076523 0.209431 0.685662
v 0.068877 0.196494 0.563920
v 0.318764 -0.249884 0.612188
v 0.324365 -0.240406 0.701376
v 0.041636 -0.302491 0.728480
v 0.035695 -0.312545 0.633875
v 0.077226 -0.297520 0.629887
v 0.083140 -0.287512 0.724064
v 0.286986 -0.263870 0.708749
v 0.281072 -0.273878 0.614573
v 0.067555 0.278461 0.555292
v 0.075201 0.291398 0.677034
v -0.105858 0.292926 0.688242
v -0.113504 0.279988 0.566501
v -0.154960 0.279996 0.568822
v -0.147280 0.292992 0.691118
v 0.128095 0.291134 0.670467
v 0.120855 0.278882 0.555174
v 0.146925 0.278813 0.553544
v 0.154165 0.291066 0.668837
v 0.155488 0.209098 0.677464
v 0.148247 0.196846 0.562171
v 0.194730 0.218687 0.556931
v 0.201970 0.230940 0.672224
v 0.200533 0.290944 0.665938
v 0.193293 0.278692 0.550644
v 0.213332 0.278663 0.549389
v 0.220573 0.290915 0.664682
v 0.222072 0.242891 0.669692
v 0.214832 0.230639 0.554398
v -0.148474 0.091547 0.624239
v -0.145222 0.097049 0.676014
v -0.125636 0.072539 0.677388
v -0.128887 0.067037 0.625614
v -0.196826 0.044664 0.632258
v -0.193575 0.050167 0.684033
v -0.195841 0.081328 0.680863
v -0.199092 0.075826 0.629089
v -0.360272 0.083347 0.638412
v -0.357021 0.088849 0.690187
v -0.354755 0.057687 0.693356
v -0.358006 0.052185 0.641581
v -0.399323 0.048543 0.644563
v -0.396072 0.054045 0.696338
v -0.398338 0.085207 0.693169
v -0.401590 0.079705 0.641394
v -0.392594 0.200548 0.592189
v -0.384914 0.213545 0.714485
v -0.351953 0.214111 0.712354
v -0.359633 0.201114 0.590059
v -0.353413 0.293533 0.704006
v -0.361094 0.280536 0.581711
v -0.393853 0.280596 0.583762
v -0.386173 0.293593 0.706057
v -0.745208 0.295419 0.728411
v -0.752889 0.282423 0.606116
v -0.743949 0.215371 0.736839
v -0.751630 0.202375 0.614543
v -0.780767 0.360362 0.637564
v -0.781478 0.336558 0.630575
v -0.781406 0.311625 0.636515
v -0.780580 0.295087 0.653116
v -0.779314 0.293261 0.674035
v -0.778092 0.306844 0.691282
v -0.777381 0.330649 0.698271
v -0.777453 0.355582 0.692331
v -0.778280 0.372120 0.675731
v -0.779546 0.373946 0.654812
v -0.462564 0.356612 0.617978
v -0.463274 0.332807 0.610990
v -0.463203 0.307874 0.616930
v -0.462376 0.291336 0.633530
v -0.461110 0.289511 0.654449
v -0.459888 0.303094 0.671697
v -0.459177 0.326899 0.678686
v -0.459249 0.351832 0.672745
v -0.460076 0.368370 0.656145
v -0.461342 0.370195 0.635226
v -0.780283 0.350671 0.647291
v -0.780736 0.335488 0.642833
v -0.780690 0.319584 0.646622
v -0.780163 0.309036 0.657211
v -0.779356 0.307871 0.670554
v -0.778576 0.316535 0.681555
v -0.778123 0.331719 0.686013
v -0.778169 0.347622 0.682224
v -0.778696 0.358171 0.671636
v -0.779504 0.359335 0.658292
v -0.603477 0.333399 0.631923
v -0.603024 0.348582 0.636381
v -0.603431 0.317495 0.635712
v -0.602904 0.306947 0.646300
v -0.602096 0.305782 0.659643
v -0.601317 0.314446 0.670645
v -0.600864 0.329630 0.675102
v -0.600910 0.345533 0.671313
v -0.601437 0.356082 0.660725
v -0.602244 0.357246 0.647382
v 0.922225 -0.033159 0.053744
v 0.923318 -0.272307 0.136045
v -0.019181 -0.229390 0.492464
v -0.158364 0.135524 0.462425
v 0.944994 0.005371 0.416306
v 0.946087 -0.233778 0.498607
v 0.003588 -0.190860 0.855026
v -0.135594 0.174054 0.824988
vt 0.927200 0.246707
vt 0.827427 0.459240
vt 0.696213 0.458799
vt 0.779567 0.227763
vt 0.193673 0.133961
vt 0.387467 0.042986
vt 0.404740 0.177602
vt 0.194075 0.253606
vt 0.415015 0.204984
vt 0.194375 0.280989
vt 0.666182 0.458471
vt 0.749536 0.216495
vt 0.333858 0.810420
vt 0.482548 0.810420
vt 0.482548 0.959111
vt 0.333858 0.959111
vt 0.954311 0.264288
vt 0.852013 0.459752
vt -0.727496 0.474897
vt -0.701703 0.474897
vt -0.701703 0.500689
vt -0.727496 0.500689
vt -1.408821 0.790398
vt -1.364616 0.790398
vt -1.364616 0.834602
vt -1.408821 0.834602
vt 0.193206 0.111543
vt 0.123273 0.166853
vt 0.122807 0.131768
vt 0.829833 0.536959
vt 0.791355 0.536447
vt 0.660140 0.536006
vt 0.630110 0.535678
vt 0.123975 0.313881
vt 0.123676 0.286498
vt 0.371435 0.018265
vt 0.418527 0.000861
vt 0.434558 0.025582
vt 0.946287 0.195062
vt 0.973398 0.212643
vt 0.768623 0.164850
vt 0.798654 0.176118
vt 0.451832 0.160198
vt 0.462106 0.187580
vt 0.069323 0.287655
vt 0.068921 0.168010
vt 0.790086 0.596056
vt 0.658872 0.595615
vt 0.069622 0.315037
vt 0.628841 0.595287
vt 0.828564 0.596568
vt 0.068454 0.132924
vt 0.068295 0.115698
vt 0.122648 0.114541
vt 0.848726 0.537133
vt 0.847457 0.596742
vt 0.296481 0.778563
vt 0.465802 0.778563
vt 0.465802 0.947884
vt 0.296481 0.947884
vt 0.882328 0.553418
vt 0.881059 0.597051
vt 0.108976 0.116494
vt 0.054623 0.117651
vt 0.054341 0.087011
vt 0.094127 0.085854
vt 0.107799 0.083901
vt 0.068013 0.085058
vt 0.067876 0.071816
vt 0.099715 0.070660
vt 0.896850 0.562283
vt 0.895581 0.597202
vt 0.213162 0.298524
vt 0.197060 0.311551
vt 0.632665 0.455526
vt 0.646952 0.437867
vt 0.000000 0.000000
vt 1.000000 0.000000
vt 1.000000 1.000000
vt 0.000000 1.000000
vt 0.309848 0.788364
vt 0.475308 0.788364
vt 0.475308 0.953824
vt 0.309848 0.953824
vt 0.596042 0.443658
vt 0.597803 0.421011
vt 0.228531 0.343339
vt 0.207881 0.344944
vt 0.224803 0.449870
vt 0.204153 0.451475
vt 0.479211 0.447746
vt 0.480971 0.425100
vt 0.314329 0.792844
vt 0.470828 0.792844
vt 0.470828 0.949343
vt 0.314329 0.949343
vt 0.206892 0.478764
vt 0.227542 0.477159
vt 0.124172 0.471787
vt 0.123539 0.450009
vt 0.449283 0.444743
vt 0.480819 0.536156
vt 0.456935 0.535462
vt 0.306798 0.789219
vt 0.474452 0.789219
vt 0.474452 0.956874
vt 0.306798 0.956874
vt 0.479459 0.593913
vt 0.070875 0.451248
vt 0.302167 0.788495
vt 0.479083 0.788495
vt 0.479083 0.965412
vt 0.302167 0.965412
vt 0.071091 0.472895
vt 0.455719 0.593675
vt 0.125767 0.709036
vt 0.072686 0.710145
vt 0.195528 0.591926
vt 0.196743 0.533713
vt 0.336313 0.795297
vt 0.444937 0.795297
vt 0.444937 0.903921
vt 0.336313 0.903921
vt 0.038819 0.761475
vt 0.258057 0.761475
vt 0.258057 0.980713
vt 0.038819 0.980713
vt 0.543634 0.830499
vt 0.640937 0.830499
vt 0.640937 0.927802
vt 0.543634 0.927802
vt 0.538555 0.806133
vt 0.633320 0.806133
vt 0.633320 0.900898
vt 0.538555 0.900898
vn -0.056039 -0.103337 -0.993066
vn 0.068616 0.107598 0.991824
vn -0.945317 -0.312731 0.092602
vn 0.139334 0.142184 0.979985
vn 0.015140 -0.067972 -0.997572
vn 0.886669 0.450655 -0.103576
vn 0.011703 -0.078312 -0.996860
vn 0.960678 0.263248 -0.088307
vn 0.135973 0.131970 0.981884
vn 0.069014 0.108493 0.991699
vn -0.055641 -0.102441 -0.993182
vn 0.937955 0.333669 -0.094365
vn 0.095704 -0.231550 -0.968104
vn 0.217776 -0.024984 0.975679
vn -0.937955 -0.333669 0.094364
vn 0.128646 -0.062614 0.989712
vn 0.006024 -0.270109 -0.962811
vn 0.083691 -0.078092 0.993427
vn -0.038838 -0.285430 -0.957612
vn 0.121873 -0.987763 0.097316
vn 0.345753 -0.935106 0.077660
vn 0.538671 -0.840686 0.055511
vn -0.055624 -0.105405 -0.992873
vn 0.069031 0.105531 0.992017
vn 0.123039 0.105847 0.986741
vn -0.001387 -0.104702 -0.994503
vn 0.001838 0.994387 -0.105789
vn -0.005709 0.994422 -0.105319
vn -0.008082 0.994421 -0.105170
vn -0.003986 0.994419 -0.105427
vn -0.062328 -0.105470 -0.992467
vn 0.003985 -0.994419 0.105427
vn 0.430598 -0.899933 0.068594
vn 0.062328 0.105470 0.992467
vn -0.003985 0.994419 -0.105427
vn -0.005186 0.994421 -0.105352
vn -0.062327 -0.105470 -0.992467
vn 0.515596 -0.854835 0.058464
vn 0.997573 0.024343 -0.065236
vn -0.612277 -0.372176 -0.697568
vn -0.997701 -0.019925 0.064775
vn -0.516325 -0.209810 0.830294
vn 0.726074 -0.687070 0.027417
vn 0.318850 -0.944394 0.080337
vn -0.302741 0.949548 -0.081897
vn 0.040097 0.993333 -0.108081
vn -0.040097 -0.993333 0.108081
vn 0.094490 -0.990558 0.099333
vn -0.995444 -0.065326 0.069458
vn -0.994074 0.095295 0.052303
vn -0.042350 -0.376642 -0.925390
vn 0.077419 -0.173974 0.981702
vn 0.997783 -0.029841 -0.059492
vn -0.023800 0.994275 -0.104168
vn -0.003984 0.994419 -0.105427
vn -0.008394 -0.994310 0.106193
vn -0.004775 0.994421 -0.105378
vn 0.062329 0.105469 0.992467
vn -0.001516 0.994410 -0.105581
vn 0.001516 -0.994410 0.105581
vn -0.997933 -0.008997 0.063629
vn -0.055606 0.282781 -0.957571
vn -0.062483 -0.231479 -0.970831
vn -0.051656 -0.708771 -0.703545
vn -0.017029 -0.996157 -0.085916
vn 0.028722 -0.786280 0.617202
vn 0.055606 -0.282781 0.957571
vn 0.062483 0.231481 0.970831
vn 0.051656 0.708771 0.703545
vn 0.017028 0.996157 0.085916
vn -0.028722 0.786280 -0.617203
vn -0.998042 0.011763 0.061426
vn -0.998042 0.011762 0.061426
vn -0.998042 0.011760 0.061427
vn -0.998042 0.011762 0.061432
vn -0.998042 0.011761 0.061430
vn -0.998042 0.011763 0.061431
vn -0.998042 0.011765 0.061431
vn -0.998042 0.011768 0.061431
vn -0.998042 0.011766 0.061426
vn 0.055605 -0.282783 0.957571
vn 0.062482 0.231481 0.970831
vn 0.017029 0.996157 0.085919
vn -0.055606 0.282782 -0.957571
vn -0.062483 -0.231480 -0.970831
vn -0.051656 -0.708769 -0.703547
vn -0.017029 -0.996157 -0.085918
vn 0.028722 -0.786279 0.617203
vn -0.365266 -0.251507 -0.896284
vn 0.365266 0.251507 0.896284
vn 0.998007 -0.016407 -0.060933
vn -0.932664 -0.347865 0.095541
vn 0.111796 0.987405 -0.111953
usemtl Material_pistol_Cube-k.tga
s off
f 54/43/20 58/44/20 59/45/20 55/46/20
f 57/47/22 53/48/22 56/49/22 60/50/22
f 60/50/36 56/49/36 63/51/36 61/52/36
f 55/46/37 59/45/37 62/53/37 64/54/37
f 64/55/38 62/56/38 61/57/38 63/58/38
f 58/44/39 54/43/39 67/59/39 65/60/39
f 53/61/40 57/62/40 66/63/40 68/64/40
f 68/65/41 66/66/41 65/67/41 67/68/41
f 66/69/42 57/47/42 76/70/42 69/71/42
f 65/55/43 66/56/43 69/57/43 70/58/43
f 58/44/44 65/60/44 70/72/44 75/73/44
f 62/53/45 59/45/45 74/74/45 71/75/45
f 60/50/46 61/52/46 72/76/46 73/77/46
f 59/45/20 58/44/20 75/73/20 74/74/20
f 57/47/22 60/50/22 73/77/22 76/70/22
f 68/55/47 67/56/47 78/57/47 77/58/47
f 53/48/48 68/78/48 77/79/48 84/80/48
f 67/59/49 54/43/49 83/81/49 78/82/49
f 64/55/50 63/56/50 80/57/50 79/58/50
f 55/46/51 64/54/51 79/83/51 82/84/51
f 63/51/52 56/49/52 81/85/52 80/86/52
f 54/43/53 55/46/53 82/84/53 83/81/53
f 56/49/54 53/48/54 84/80/54 81/85/54
f 84/55/55 83/56/55 82/57/55 81/58/55
f 81/55/56 82/56/56 79/57/56 80/58/56
f 83/55/57 84/56/57 77/57/57 78/58/57
f 76/70/22 73/77/22 88/87/22 85/88/22
f 74/74/20 75/73/20 86/89/20 87/90/20
f 73/77/58 72/76/58 89/91/58 88/87/58
f 71/75/59 74/74/59 87/90/59 90/92/59
f 75/73/60 70/72/60 91/93/60 86/89/60
f 69/71/61 76/70/61 85/88/61 92/94/61
f 85/65/62 88/66/62 87/67/62 86/68/62
f 87/65/63 88/66/63 89/67/63 90/68/63
f 85/65/64 86/66/64 91/67/64 92/68/64
f 92/65/65 91/66/65 94/67/65 93/68/65
f 69/71/66 92/94/66 93/95/66 96/96/66
f 91/93/20 70/72/20 95/97/20 94/98/20
f 70/99/67 69/100/67 96/101/67 95/102/67
f 95/55/68 96/56/68 97/57/68 98/58/68
f 94/98/69 95/97/69 98/103/69 99/104/69
f 96/105/22 93/106/22 100/107/22 97/108/22
f 93/65/70 94/66/70 99/67/70 100/68/70
f 100/65/71 99/66/71 102/67/71 101/68/71
f 97/109/72 100/110/72 101/111/72 104/112/72
f 99/104/69 98/103/69 103/113/69 102/114/69
f 98/55/73 97/56/73 104/57/73 103/58/73
f 103/55/74 104/56/74 101/57/74 102/58/74
f 72/76/75 61/52/75 108/115/75 105/116/75
f 71/55/76 72/56/76 105/57/76 106/58/76
f 62/53/77 71/75/77 106/117/77 107/118/77
f 61/119/78 62/120/78 107/121/78 108/122/78
f 108/123/79 107/124/79 110/125/79 109/126/79
f 107/118/24 106/117/24 111/127/24 110/128/24
f 106/55/80 105/56/80 112/57/80 111/58/80
f 105/116/22 108/115/22 109/129/22 112/130/22
f 112/130/23 109/129/23 116/131/23 113/132/23
f 111/55/81 112/56/81 113/57/81 114/58/81
f 110/128/24 111/127/24 114/133/24 115/134/24
f 109/123/82 110/124/82 115/125/82 116/126/82
f 116/135/83 115/136/83 118/137/83 117/138/83
f 115/131/20 114/132/20 119/139/20 118/140/20
f 113/132/22 116/131/22 117/140/22 120/139/22
f 117/55/84 118/56/84 119/57/84 120/58/84
f 120/55/85 119/56/85 122/57/85 121/58/85
f 113/132/86 120/139/86 121/141/86 124/142/86
f 119/143/87 114/133/87 123/144/87 122/145/87
f 114/146/88 113/147/88 124/148/88 123/149/88
f 123/65/89 124/66/89 121/67/89 122/68/89
f 90/65/90 89/66/90 126/67/90 125/68/90
f 71/75/20 90/92/20 125/150/20 123/144/20
f 89/91/22 72/76/22 124/142/22 126/151/22
f 72/152/91 71/153/91 123/154/91 124/155/91
f 126/151/22 124/142/22 121/141/22 127/156/22
f 123/144/20 125/150/20 128/157/20 122/145/20
f 125/65/92 126/66/92 127/67/92 128/68/92
f 127/156/22 121/141/22 132/158/22 130/159/22
f 122/145/93 128/157/93 129/160/93 131/161/93
f 128/162/94 127/163/94 130/164/94 129/165/94
f 121/99/95 122/100/95 131/101/95 132/102/95
f 132/55/96 131/56/96 129/57/96 130/58/96
f 133/166/97 143/167/97 144/168/97 134/169/97
f 134/166/98 144/167/98 145/168/98 135/169/98
f 135/166/99 145/167/99 146/168/99 136/169/99
f 136/166/100 146/167/100 147/168/100 137/169/100
f 137/166/101 147/167/101 148/168/101 138/169/101
f 138/166/102 148/167/102 149/168/102 139/169/102
f 139/166/103 149/167/103 150/168/103 140/169/103
f 140/166/104 150/167/104 151/168/104 141/169/104
f 141/166/105 151/167/105 152/168/105 142/169/105
f 142/166/106 152/167/106 143/168/106 133/169/106
f 133/166/107 134/167/107 154/168/107 153/169/107
f 134/166/108 135/167/108 155/168/108 154/169/108
f 135/166/109 136/167/109 156/168/109 155/169/109
f 136/166/109 137/167/109 157/168/109 156/169/109
f 137/166/110 138/167/110 158/168/110 157/169/110
f 138/166/111 139/167/111 159/168/111 158/169/111
f 139/166/112 140/167/112 160/168/112 159/169/112
f 140/166/113 141/167/113 161/168/113 160/169/113
f 141/166/114 142/167/114 162/168/114 161/169/114
f 142/166/115 133/167/115 153/168/115 162/169/115
f 153/166/116 154/167/116 163/168/116 164/169/116
f 154/166/117 155/167/117 165/168/117 163/169/117
f 155/166/104 156/167/104 166/168/104 165/169/104
f 156/166/118 157/167/118 167/168/118 166/169/118
f 157/166/106 158/167/106 168/168/106 167/169/106
f 158/166/119 159/167/119 169/168/119 168/169/119
f 159/166/120 160/167/120 170/168/120 169/169/120
f 160/166/121 161/167/121 171/168/121 170/169/121
f 161/166/122 162/167/122 172/168/122 171/169/122
f 162/166/123 153/167/123 164/168/123 172/169/123
f 175/170/124 176/171/124 173/172/124 174/173/124
f 177/170/125 180/171/125 179/172/125 178/173/125
f 173/170/126 177/171/126 178/172/126 174/173/126
f 174/170/17 178/171/17 179/172/17 175/173/17
f 175/174/127 179/175/127 180/176/127 176/177/127
f 176/170/128 180/171/128 177/172/128 173/173/128
