# Blender v2.59 (sub 0) OBJ File: 'zombie.blend'
# www.blender.org
mtllib zombie_000007.mtl
o Cube.015_Cube.026
v -2.505255 0.857571 2.194306
v -2.536978 1.217961 2.585705
v -2.929394 1.282237 2.494716
v -2.897671 0.921848 2.103317
v -2.406889 1.123187 1.957707
v -2.438612 1.483576 2.349107
v -2.831027 1.547853 2.258118
v -2.799304 1.187463 1.866718
vn -0.266532 -0.719705 0.641082
vn 0.266532 0.719705 -0.641082
vn 0.961987 -0.157570 0.223054
vn -0.059518 0.676163 0.734344
vn -0.961987 0.157570 -0.223055
vn 0.059518 -0.676163 -0.734344
usemtl 
s off
f 1//1 2//1 3//1 4//1
f 5//2 8//2 7//2 6//2
f 1//3 5//3 6//3 2//3
f 2//4 6//4 7//4 3//4
f 3//5 7//5 8//5 4//5
f 5//6 1//6 4//6 8//6
o Cube.014_Cube.025
v -2.177708 1.688563 1.098390
v -2.356257 1.458516 0.872581
v -2.045550 1.266938 0.822077
v -1.867002 1.496986 1.047886
v -1.865780 2.469109 0.056552
v -2.044329 2.239062 -0.169257
v -1.733622 2.047484 -0.219761
v -1.555074 2.277532 0.006048
vn -0.233017 -0.583085 0.778277
vn 0.233017 0.583085 -0.778277
vn -0.843169 0.519887 0.137054
vn -0.484530 -0.624283 -0.612782
vn 0.843169 -0.519887 -0.137054
vn 0.484530 0.624283 0.612782
usemtl 
s off
f 9//7 10//7 11//7 12//7
f 13//8 16//8 15//8 14//8
f 9//9 13//9 14//9 10//9
f 10//10 14//10 15//10 11//10
f 11//11 15//11 16//11 12//11
f 13//12 9//12 12//12 16//12
o Cube.013_Cube.024
v -2.772436 1.215875 2.148404
v -2.788736 0.865509 2.035405
v -2.427752 0.828108 2.099300
v -2.411452 1.178474 2.212299
v -2.510082 1.607731 0.895568
v -2.526382 1.257365 0.782569
v -2.165397 1.219964 0.846464
v -2.149098 1.570330 0.959463
vn -0.195985 -0.292725 0.935896
vn 0.195985 0.292725 -0.935896
vn -0.979609 0.101496 -0.173393
vn -0.044233 -0.950795 -0.306648
vn 0.979609 -0.101496 0.173393
vn 0.044233 0.950795 0.306648
usemtl 
s off
f 17//13 18//13 19//13 20//13
f 21//14 24//14 23//14 22//14
f 17//15 21//15 22//15 18//15
f 18//16 22//16 23//16 19//16
f 19//17 23//17 24//17 20//17
f 21//18 17//18 20//18 24//18
o Cube.011_Cube.022
v 0.666769 0.525361 -2.386679
v 0.635046 0.269766 -1.920047
v 0.242630 0.376532 -1.888243
v 0.274353 0.632127 -2.354876
v 0.765135 0.834477 -2.210675
v 0.733413 0.578883 -1.744043
v 0.340997 0.685649 -1.712240
v 0.372720 0.941243 -2.178872
vn -0.266532 -0.837575 -0.476896
vn 0.266532 0.837575 0.476896
vn 0.961987 -0.261731 -0.077964
vn -0.059518 -0.479547 0.875495
vn -0.961987 0.261731 0.077964
vn 0.059518 0.479547 -0.875495
usemtl 
s off
f 25//19 26//19 27//19 28//19
f 29//20 32//20 31//20 30//20
f 25//21 29//21 30//21 26//21
f 26//22 30//22 31//22 27//22
f 27//23 31//23 32//23 28//23
f 29//24 25//24 28//24 32//24
o Cube.010_Cube.021
v 0.698354 0.787607 -1.949380
v 0.714298 0.576299 -1.647907
v 0.353135 0.508798 -1.676119
v 0.337191 0.720107 -1.977592
v 0.438977 1.856535 -1.186428
v 0.454921 1.645226 -0.884956
v 0.093758 1.577726 -0.913168
v 0.077814 1.789034 -1.214640
vn 0.193760 -0.798513 -0.569942
vn -0.193760 0.798513 0.569942
vn 0.980094 0.183177 0.076558
vn 0.043267 -0.573431 0.818111
vn -0.980094 -0.183177 -0.076559
vn -0.043267 0.573431 -0.818111
usemtl 
s off
f 33//25 34//25 35//25 36//25
f 37//26 40//26 39//26 38//26
f 33//27 37//27 38//27 34//27
f 34//28 38//28 39//28 35//28
f 35//29 39//29 40//29 36//29
f 37//30 33//30 36//30 40//30
o Cube.009_Cube.020
v 0.426664 1.757173 -1.191302
v 0.464195 1.491812 -0.938387
v 0.137181 1.352684 -1.035836
v 0.099650 1.618045 -1.288751
v -0.175142 2.536454 -0.284369
v -0.137612 2.271093 -0.031454
v -0.464626 2.131965 -0.128903
v -0.502156 2.397326 -0.381818
vn 0.449563 -0.582141 -0.677500
vn -0.449563 0.582141 0.677499
vn 0.887423 0.377554 0.264447
vn 0.101847 -0.720115 0.686340
vn -0.887423 -0.377554 -0.264447
vn -0.101847 0.720114 -0.686340
usemtl 
s off
f 41//31 42//31 43//31 44//31
f 45//32 48//32 47//32 46//32
f 41//33 45//33 46//33 42//33
f 42//34 46//34 47//34 43//34
f 43//35 47//35 48//35 44//35
f 45//36 41//36 44//36 48//36
o Cube.008_Cube.019
v -1.146648 -1.294418 -2.389700
v -1.146648 -1.306756 -2.831132
v -1.588252 -1.306756 -2.831132
v -1.588252 -1.294418 -2.389700
v -1.146648 -2.898011 -2.344882
v -1.146648 -2.910349 -2.786314
v -1.588252 -2.910349 -2.786314
v -1.588252 -2.898011 -2.344882
vn 0.000000 0.999610 -0.027938
vn 0.000000 -0.999610 0.027938
vn 1.000000 -0.000000 -0.000000
vn -0.000000 -0.027938 -0.999610
vn -1.000000 0.000000 0.000000
vn 0.000000 0.027938 0.999610
usemtl 
s off
f 49//37 50//37 51//37 52//37
f 53//38 56//38 55//38 54//38
f 49//39 53//39 54//39 50//39
f 50//40 54//40 55//40 51//40
f 51//41 55//41 56//41 52//41
f 53//42 49//42 52//42 56//42
o Cube.007_Cube.018
v -1.146648 -1.325860 -2.149156
v -1.146648 -1.762289 -2.081746
v -1.588252 -1.762289 -2.081746
v -1.588252 -1.325860 -2.149156
v -1.146648 -1.080980 -0.563737
v -1.146648 -1.517408 -0.496327
v -1.588252 -1.517408 -0.496327
v -1.588252 -1.080979 -0.563737
vn -0.000000 -0.152648 -0.988281
vn 0.000000 0.152648 0.988281
vn -0.000000 -0.988281 0.152648
vn 0.000000 0.988281 -0.152648
usemtl 
s off
f 57//43 58//43 59//43 60//43
f 61//44 64//44 63//44 62//44
f 57//39 61//39 62//39 58//39
f 58//45 62//45 63//45 59//45
f 59//41 63//41 64//41 60//41
f 61//46 57//46 60//46 64//46
o Cube.006_Cube.017
v -1.146648 -1.351452 -0.533369
v -1.146648 -1.358815 -0.091827
v -1.588252 -1.358815 -0.091827
v -1.588252 -1.351452 -0.533369
v -1.146648 0.252545 -0.506621
v -1.146648 0.245181 -0.065078
v -1.588252 0.245181 -0.065078
v -1.588252 0.252545 -0.506621
vn 0.000000 -0.999861 -0.016673
vn -0.000000 0.999861 0.016674
vn -0.000000 -0.016674 0.999861
vn 0.000000 0.016674 -0.999861
usemtl 
s off
f 65//47 66//47 67//47 68//47
f 69//48 72//48 71//48 70//48
f 65//39 69//39 70//39 66//39
f 66//49 70//49 71//49 67//49
f 67//41 71//41 72//41 68//41
f 69//50 65//50 68//50 72//50
o Cube.005_Cube.016
v -0.427949 -3.275366 1.235996
v -0.427949 -2.846862 1.238451
v -0.990725 -2.846862 1.238451
v -0.990725 -3.275366 1.235996
v -0.427949 -3.268173 -0.019719
v -0.427950 -2.839669 -0.017264
v -0.990725 -2.839669 -0.017264
v -0.990725 -3.268173 -0.019719
vn 0.000000 -0.005728 0.999984
vn 0.000000 0.005729 -0.999984
vn -0.000000 0.999984 0.005728
vn 0.000000 -0.999984 -0.005729
usemtl 
s off
f 73//51 74//51 75//51 76//51
f 77//52 80//52 79//52 78//52
f 73//39 77//39 78//39 74//39
f 74//53 78//53 79//53 75//53
f 75//41 79//41 80//41 76//41
f 77//54 73//54 76//54 80//54
o Cube.004_Cube.015
v -0.448197 -2.966045 0.136997
v -0.448197 -2.944862 0.612884
v -0.970478 -2.944862 0.612884
v -0.970478 -2.966045 0.136997
v -0.448197 -0.660514 0.034367
v -0.448197 -0.639330 0.510254
v -0.970478 -0.639330 0.510254
v -0.970478 -0.660514 0.034367
vn -0.000000 -0.999011 0.044470
vn -0.000000 0.999011 -0.044471
vn -0.000000 0.044471 0.999011
vn 0.000000 -0.044471 -0.999011
usemtl 
s off
f 81//55 82//55 83//55 84//55
f 85//56 88//56 87//56 86//56
f 81//39 85//39 86//39 82//39
f 82//57 86//57 87//57 83//57
f 83//41 87//41 88//41 84//41
f 85//58 81//58 84//58 88//58
o Cube.003_Cube.014
v -0.427949 -1.030404 0.242510
v -0.427949 -0.851800 0.632026
v -0.990725 -0.851800 0.632026
v -0.990725 -1.030404 0.242510
v -0.427949 0.111058 -0.280880
v -0.427950 0.289661 0.108636
v -0.990725 0.289661 0.108636
v -0.990725 0.111058 -0.280880
vn -0.000000 -0.908998 0.416800
vn -0.000000 0.908998 -0.416800
vn -0.000000 0.416800 0.908998
vn 0.000000 -0.416800 -0.908998
usemtl 
s off
f 89//59 90//59 91//59 92//59
f 93//60 96//60 95//60 94//60
f 89//39 93//39 94//39 90//39
f 90//61 94//61 95//61 91//61
f 91//41 95//41 96//41 92//41
f 93//62 89//62 92//62 96//62
o Cube.002_Cube.013
v -0.269446 2.979921 -0.735888
v -0.269446 2.979921 0.702803
v -1.708137 2.979921 0.702802
v -1.708137 2.979921 -0.735889
v -0.269445 4.418612 -0.735888
v -0.269446 4.418612 0.702803
v -1.708137 4.418612 0.702802
v -1.708136 4.418612 -0.735889
vn 0.000000 -1.000000 0.000000
vn 0.000000 1.000000 0.000000
vn -0.000000 0.000000 1.000000
vn 0.000000 0.000000 -1.000000
usemtl 
s off
f 97//63 98//63 99//63 100//63
f 101//64 104//64 103//64 102//64
f 97//39 101//39 102//39 98//39
f 98//65 102//65 103//65 99//65
f 99//41 103//41 104//41 100//41
f 101//66 97//66 100//66 104//66
o Cube.001_Cube.012
v -0.763576 2.566175 -0.447929
v -0.763576 2.566175 0.002502
v -1.214007 2.566175 0.002502
v -1.214006 2.566175 -0.447929
v -0.763576 3.045548 -0.447929
v -0.763576 3.045548 0.002502
v -1.214007 3.045548 0.002502
v -1.214006 3.045548 -0.447929
usemtl 
s off
f 105//63 106//63 107//63 108//63
f 109//64 112//64 111//64 110//64
f 105//39 109//39 110//39 106//39
f 106//65 110//65 111//65 107//65
f 107//41 111//41 112//41 108//41
f 109//66 105//66 108//66 112//66
o Cube_Cube.011
v -0.333995 0.002500 -0.946233
v -0.333995 0.002500 0.363359
v -1.643587 0.002500 0.363359
v -1.643587 0.002500 -0.946233
v -0.333995 2.585390 -0.946233
v -0.333995 2.585390 0.363360
v -1.643588 2.585390 0.363359
v -1.643587 2.585390 -0.946233
usemtl 
s off
f 113//63 114//63 115//63 116//63
f 117//64 120//64 119//64 118//64
f 113//39 117//39 118//39 114//39
f 114//65 118//65 119//65 115//65
f 115//41 119//41 120//41 116//41
f 117//66 113//66 116//66 120//66
