# Blender v2.59 (sub 0) OBJ File: 'zombie.blend'
# www.blender.org
mtllib zombie_000006.mtl
o Cube.015_Cube.026
v -2.505255 1.002982 2.210463
v -2.536978 1.363371 2.601862
v -2.929394 1.427647 2.510873
v -2.897671 1.067258 2.119474
v -2.406889 1.268597 1.973864
v -2.438612 1.628986 2.365264
v -2.831027 1.693263 2.274275
v -2.799304 1.332873 1.882875
vn -0.266532 -0.719705 0.641082
vn 0.266532 0.719705 -0.641082
vn 0.961987 -0.157570 0.223054
vn -0.059518 0.676163 0.734344
vn -0.961987 0.157570 -0.223055
vn 0.059518 -0.676163 -0.734344
usemtl 
s off
f 1//1 2//1 3//1 4//1
f 5//2 8//2 7//2 6//2
f 1//3 5//3 6//3 2//3
f 2//4 6//4 7//4 3//4
f 3//5 7//5 8//5 4//5
f 5//6 1//6 4//6 8//6
o Cube.014_Cube.025
v -2.201744 1.676219 1.104285
v -2.371175 1.433942 0.884316
v -2.058337 1.241350 0.855476
v -1.888906 1.483627 1.075445
v -1.852993 2.402775 0.035423
v -2.022424 2.160498 -0.184546
v -1.709586 1.967906 -0.213387
v -1.540155 2.210183 0.006582
vn -0.260525 -0.542754 0.798464
vn 0.260525 0.542754 -0.798464
vn -0.848953 0.522640 0.078265
vn -0.459788 -0.657469 -0.596933
vn 0.848953 -0.522640 -0.078264
vn 0.459788 0.657469 0.596933
usemtl 
s off
f 9//7 10//7 11//7 12//7
f 13//8 16//8 15//8 14//8
f 9//9 13//9 14//9 10//9
f 10//10 14//10 15//10 11//10
f 11//11 15//11 16//11 12//11
f 13//12 9//12 12//12 16//12
o Cube.013_Cube.024
v -2.771215 1.303882 2.202302
v -2.787159 0.950150 2.100270
v -2.425996 0.915315 2.164603
v -2.410052 1.269047 2.266634
v -2.511838 1.657044 0.937399
v -2.527782 1.303312 0.835367
v -2.166619 1.268477 0.899700
v -2.150675 1.622209 1.001732
vn -0.193761 -0.263820 0.944910
vn 0.193760 0.263820 -0.944910
vn -0.980094 0.094533 -0.174581
vn -0.043267 -0.959928 -0.276886
vn 0.980094 -0.094533 0.174581
vn 0.043267 0.959928 0.276886
usemtl 
s off
f 17//13 18//13 19//13 20//13
f 21//14 24//14 23//14 22//14
f 17//15 21//15 22//15 18//15
f 18//16 22//16 23//16 19//16
f 19//17 23//17 24//17 20//17
f 21//18 17//18 20//18 24//18
o Cube.011_Cube.022
v 0.666769 0.526904 -2.391037
v 0.635046 0.271309 -1.924405
v 0.242630 0.378075 -1.892602
v 0.274353 0.633670 -2.359234
v 0.765135 0.836020 -2.215033
v 0.733413 0.580425 -1.748401
v 0.340997 0.687192 -1.716598
v 0.372720 0.942786 -2.183230
vn -0.266532 -0.837575 -0.476896
vn 0.266532 0.837575 0.476896
vn 0.961987 -0.261731 -0.077964
vn -0.059518 -0.479547 0.875495
vn -0.961987 0.261731 0.077964
vn 0.059518 0.479547 -0.875495
usemtl 
s off
f 25//19 26//19 27//19 28//19
f 29//20 32//20 31//20 30//20
f 25//21 29//21 30//21 26//21
f 26//22 30//22 31//22 27//22
f 27//23 31//23 32//23 28//23
f 29//24 25//24 28//24 32//24
o Cube.010_Cube.021
v 0.698354 0.789789 -1.955083
v 0.714298 0.578480 -1.653610
v 0.353135 0.510980 -1.681822
v 0.337191 0.722288 -1.983294
v 0.438977 1.858716 -1.192131
v 0.454921 1.647408 -0.890659
v 0.093758 1.579908 -0.918871
v 0.077814 1.791216 -1.220343
vn 0.193760 -0.798513 -0.569942
vn -0.193760 0.798513 0.569942
vn 0.980094 0.183177 0.076558
vn 0.043267 -0.573431 0.818111
vn -0.980094 -0.183177 -0.076559
vn -0.043267 0.573431 -0.818111
usemtl 
s off
f 33//25 34//25 35//25 36//25
f 37//26 40//26 39//26 38//26
f 33//27 37//27 38//27 34//27
f 34//28 38//28 39//28 35//28
f 35//29 39//29 40//29 36//29
f 37//30 33//30 36//30 40//30
o Cube.009_Cube.020
v 0.424602 1.726633 -1.200399
v 0.461230 1.449663 -0.960113
v 0.133288 1.316897 -1.063160
v 0.096661 1.593867 -1.303445
v -0.171250 2.466243 -0.257045
v -0.134622 2.189273 -0.016760
v -0.462564 2.056507 -0.119806
v -0.499191 2.333477 -0.360092
vn 0.445115 -0.552505 -0.704706
vn -0.445115 0.552505 0.704706
vn 0.889940 0.360290 0.279639
vn 0.099396 -0.751618 0.652067
vn -0.889940 -0.360290 -0.279639
vn -0.099396 0.751618 -0.652067
usemtl 
s off
f 41//31 42//31 43//31 44//31
f 45//32 48//32 47//32 46//32
f 41//33 45//33 46//33 42//33
f 42//34 46//34 47//34 43//34
f 43//35 47//35 48//35 44//35
f 45//36 41//36 44//36 48//36
o Cube.008_Cube.019
v -1.146648 -1.294418 -2.504643
v -1.146648 -1.306756 -2.946074
v -1.588252 -1.306756 -2.946074
v -1.588252 -1.294418 -2.504643
v -1.146648 -2.898011 -2.459825
v -1.146648 -2.910349 -2.901256
v -1.588252 -2.910349 -2.901256
v -1.588252 -2.898011 -2.459825
vn 0.000000 0.999610 -0.027938
vn 0.000000 -0.999610 0.027938
vn 1.000000 -0.000000 -0.000000
vn -0.000000 -0.027938 -0.999610
vn -1.000000 0.000000 0.000000
vn 0.000000 0.027938 0.999610
usemtl 
s off
f 49//37 50//37 51//37 52//37
f 53//38 56//38 55//38 54//38
f 49//39 53//39 54//39 50//39
f 50//40 54//40 55//40 51//40
f 51//41 55//41 56//41 52//41
f 53//42 49//42 52//42 56//42
o Cube.007_Cube.018
v -1.146648 -1.416244 -2.350948
v -1.146648 -1.852673 -2.283538
v -1.588252 -1.852673 -2.283538
v -1.588252 -1.416244 -2.350948
v -1.146648 -1.171363 -0.765529
v -1.146648 -1.607792 -0.698119
v -1.588252 -1.607792 -0.698119
v -1.588252 -1.171363 -0.765529
vn -0.000000 -0.152648 -0.988281
vn -0.000000 0.152648 0.988281
vn -0.000000 -0.988281 0.152648
vn 0.000000 0.988281 -0.152648
usemtl 
s off
f 57//43 58//43 59//43 60//43
f 61//44 64//44 63//44 62//44
f 57//39 61//39 62//39 58//39
f 58//45 62//45 63//45 59//45
f 59//41 63//41 64//41 60//41
f 61//46 57//46 60//46 64//46
o Cube.006_Cube.017
v -1.146648 -1.360938 -0.793825
v -1.146648 -1.420389 -0.356241
v -1.588252 -1.420389 -0.356241
v -1.588252 -1.360938 -0.793825
v -1.146648 0.228677 -0.577858
v -1.146648 0.169227 -0.140274
v -1.588252 0.169227 -0.140275
v -1.588252 0.228677 -0.577859
vn 0.000000 -0.990897 -0.134624
vn -0.000000 0.990897 0.134624
vn -0.000000 -0.134624 0.990897
vn 0.000000 0.134624 -0.990897
usemtl 
s off
f 65//47 66//47 67//47 68//47
f 69//48 72//48 71//48 70//48
f 65//39 69//39 70//39 66//39
f 66//49 70//49 71//49 67//49
f 67//41 71//41 72//41 68//41
f 69//50 65//50 68//50 72//50
o Cube.005_Cube.016
v -0.427949 -3.275366 1.518407
v -0.427949 -2.846862 1.520861
v -0.990725 -2.846862 1.520861
v -0.990725 -3.275366 1.518407
v -0.427949 -3.268173 0.262692
v -0.427950 -2.839669 0.265147
v -0.990725 -2.839669 0.265147
v -0.990725 -3.268173 0.262692
vn 0.000000 -0.005728 0.999984
vn -0.000000 0.005729 -0.999984
vn -0.000000 0.999984 0.005728
vn 0.000000 -0.999984 -0.005729
usemtl 
s off
f 73//51 74//51 75//51 76//51
f 77//52 80//52 79//52 78//52
f 73//39 77//39 78//39 74//39
f 74//53 78//53 79//53 75//53
f 75//41 79//41 80//41 76//41
f 77//54 73//54 76//54 80//54
o Cube.004_Cube.015
v -0.448197 -2.972842 0.468560
v -0.448197 -2.931742 0.943142
v -0.970478 -2.931742 0.943142
v -0.970478 -2.972842 0.468560
v -0.448197 -0.673634 0.269443
v -0.448197 -0.632534 0.744025
v -0.970478 -0.632534 0.744024
v -0.970478 -0.673634 0.269443
vn -0.000000 -0.996271 0.086279
vn -0.000000 0.996271 -0.086279
vn -0.000000 0.086279 0.996271
vn 0.000000 -0.086279 -0.996271
usemtl 
s off
f 81//55 82//55 83//55 84//55
f 85//56 88//56 87//56 86//56
f 81//39 85//39 86//39 82//39
f 82//57 86//57 87//57 83//57
f 83//41 87//41 88//41 84//41
f 85//58 81//58 84//58 88//58
o Cube.003_Cube.014
v -0.427949 -1.019618 0.429100
v -0.427949 -0.800809 0.797535
v -0.990725 -0.800810 0.797535
v -0.990725 -1.019618 0.429100
v -0.427949 0.060067 -0.212110
v -0.427950 0.278876 0.156325
v -0.990725 0.278876 0.156325
v -0.990725 0.060067 -0.212110
vn 0.000000 -0.859803 0.510626
vn -0.000000 0.859803 -0.510626
vn -0.000000 0.510626 0.859803
vn 0.000000 -0.510626 -0.859803
usemtl 
s off
f 89//59 90//59 91//59 92//59
f 93//60 96//60 95//60 94//60
f 89//39 93//39 94//39 90//39
f 90//61 94//61 95//61 91//61
f 91//41 95//41 96//41 92//41
f 93//62 89//62 92//62 96//62
o Cube.002_Cube.013
v -0.269446 2.948534 -0.735888
v -0.269446 2.948534 0.702803
v -1.708137 2.948534 0.702802
v -1.708137 2.948534 -0.735889
v -0.269445 4.387225 -0.735888
v -0.269446 4.387225 0.702803
v -1.708137 4.387225 0.702802
v -1.708136 4.387225 -0.735889
vn 0.000000 -1.000000 0.000000
vn 0.000000 1.000000 0.000000
vn -0.000000 0.000000 1.000000
vn 0.000000 0.000000 -1.000000
usemtl 
s off
f 97//63 98//63 99//63 100//63
f 101//64 104//64 103//64 102//64
f 97//39 101//39 102//39 98//39
f 98//65 102//65 103//65 99//65
f 99//41 103//41 104//41 100//41
f 101//66 97//66 100//66 104//66
o Cube.001_Cube.012
v -0.763576 2.534787 -0.447929
v -0.763576 2.534787 0.002502
v -1.214007 2.534787 0.002502
v -1.214006 2.534787 -0.447929
v -0.763576 3.014161 -0.447929
v -0.763576 3.014161 0.002502
v -1.214007 3.014161 0.002502
v -1.214006 3.014161 -0.447929
usemtl 
s off
f 105//63 106//63 107//63 108//63
f 109//64 112//64 111//64 110//64
f 105//39 109//39 110//39 106//39
f 106//65 110//65 111//65 107//65
f 107//41 111//41 112//41 108//41
f 109//66 105//66 108//66 112//66
o Cube_Cube.011
v -0.333995 -0.028887 -0.946233
v -0.333995 -0.028887 0.363359
v -1.643587 -0.028887 0.363359
v -1.643587 -0.028887 -0.946233
v -0.333995 2.554002 -0.946233
v -0.333995 2.554002 0.363360
v -1.643588 2.554002 0.363359
v -1.643587 2.554002 -0.946233
usemtl 
s off
f 113//63 114//63 115//63 116//63
f 117//64 120//64 119//64 118//64
f 113//39 117//39 118//39 114//39
f 114//65 118//65 119//65 115//65
f 115//41 119//41 120//41 116//41
f 117//66 113//66 116//66 120//66
