# Blender v2.59 (sub 0) OBJ File: 'zombie.blend'
# www.blender.org
mtllib zombie_000012.mtl
o Cube.015_Cube.026
v -2.299963 -0.129528 -0.313004
v -2.331686 -0.128342 0.219042
v -2.724102 -0.019477 0.195402
v -2.692379 -0.020663 -0.336644
v -2.201597 0.226146 -0.307931
v -2.233320 0.227333 0.224114
v -2.625735 0.336198 0.200474
v -2.594012 0.335011 -0.331572
vn -0.266532 -0.963728 -0.013743
vn 0.266532 0.963728 0.013743
vn 0.961987 -0.266876 0.057953
vn -0.059518 0.002226 0.998225
vn -0.961987 0.266877 -0.057953
vn 0.059518 -0.002226 -0.998225
usemtl 
s off
f 1//1 2//1 3//1 4//1
f 5//2 8//2 7//2 6//2
f 1//3 5//3 6//3 2//3
f 2//4 6//4 7//4 3//4
f 3//5 7//5 8//5 4//5
f 5//6 1//6 4//6 8//6
o Cube.014_Cube.025
v -2.201744 1.299744 0.068354
v -2.371175 1.383884 -0.247881
v -2.058337 1.321059 -0.432208
v -1.888906 1.236918 -0.115973
v -1.852993 2.582891 0.222906
v -2.022424 2.667031 -0.093330
v -1.709586 2.604205 -0.277656
v -1.540155 2.520065 0.038579
vn -0.260525 -0.958539 -0.115454
vn 0.260525 0.958539 0.115453
vn -0.848954 0.170491 0.500210
vn -0.459788 0.228332 -0.858172
vn 0.848954 -0.170491 -0.500211
vn 0.459788 -0.228332 0.858172
usemtl 
s off
f 9//7 10//7 11//7 12//7
f 13//8 16//8 15//8 14//8
f 9//9 13//9 14//9 10//9
f 10//10 14//10 15//10 11//10
f 11//11 15//11 16//11 12//11
f 13//12 9//12 12//12 16//12
o Cube.013_Cube.024
v -2.506708 0.385887 0.127806
v -2.522651 0.379974 -0.240300
v -2.161488 0.308265 -0.254792
v -2.145545 0.314177 0.113314
v -2.247331 1.698768 0.095484
v -2.263275 1.692855 -0.272622
v -1.902111 1.621146 -0.287113
v -1.886168 1.627059 0.080993
vn -0.193760 -0.980752 0.024145
vn 0.193760 0.980752 -0.024145
vn -0.980094 0.194599 0.039325
vn -0.043267 -0.016045 -0.998935
vn 0.980094 -0.194599 -0.039325
vn 0.043267 0.016045 0.998935
usemtl 
s off
f 17//13 18//13 19//13 20//13
f 21//14 24//14 23//14 22//14
f 17//15 21//15 22//15 18//15
f 18//16 22//16 23//16 19//16
f 19//17 23//17 24//17 20//17
f 21//18 17//18 20//18 24//18
o Cube.011_Cube.022
v 0.666769 0.126362 -0.603211
v 0.635046 -0.129233 -0.136579
v 0.242630 -0.022467 -0.104776
v 0.274353 0.233128 -0.571408
v 0.765135 0.435479 -0.427207
v 0.733413 0.179884 0.039425
v 0.340997 0.286650 0.071228
v 0.372720 0.542245 -0.395404
vn -0.266532 -0.837575 -0.476896
vn 0.266532 0.837575 0.476896
vn 0.961987 -0.261731 -0.077964
vn -0.059518 -0.479547 0.875495
vn -0.961987 0.261731 0.077964
vn 0.059518 0.479547 -0.875495
usemtl 
s off
f 25//19 26//19 27//19 28//19
f 29//20 32//20 31//20 30//20
f 25//21 29//21 30//21 26//21
f 26//22 30//22 31//22 27//22
f 27//23 31//23 32//23 28//23
f 29//24 25//24 28//24 32//24
o Cube.010_Cube.021
v 0.698354 0.228523 -0.454465
v 0.714298 0.217556 -0.086475
v 0.353134 0.145655 -0.072969
v 0.337190 0.156621 -0.440959
v 0.438977 1.540836 -0.404119
v 0.454921 1.529870 -0.036129
v 0.093758 1.457969 -0.022623
v 0.077814 1.468935 -0.390613
vn 0.193760 -0.980328 -0.037610
vn -0.193760 0.980328 0.037609
vn 0.980094 0.195120 -0.036650
vn 0.043267 -0.029760 0.998620
vn -0.980094 -0.195120 0.036650
vn -0.043267 0.029760 -0.998620
usemtl 
s off
f 33//25 34//25 35//25 36//25
f 37//26 40//26 39//26 38//26
f 33//27 37//27 38//27 34//27
f 34//28 38//28 39//28 35//28
f 35//29 39//29 40//29 36//29
f 37//30 33//30 36//30 40//30
o Cube.009_Cube.020
v 0.424602 1.474887 -0.390209
v 0.461230 1.534380 -0.028394
v 0.133288 1.377038 0.030676
v 0.096661 1.317546 -0.331139
v -0.171250 2.665925 -0.525731
v -0.134622 2.725418 -0.163916
v -0.462564 2.568077 -0.104846
v -0.499191 2.508584 -0.466661
vn 0.445115 -0.889732 0.101238
vn -0.445114 0.889733 -0.101238
vn 0.889940 0.426979 -0.160298
vn 0.099396 0.161447 0.981863
vn -0.889940 -0.426979 0.160298
vn -0.099396 -0.161447 -0.981863
usemtl 
s off
f 41//31 42//31 43//31 44//31
f 45//32 48//32 47//32 46//32
f 41//33 45//33 46//33 42//33
f 42//34 46//34 47//34 43//34
f 43//35 47//35 48//35 44//35
f 45//36 41//36 44//36 48//36
o Cube.008_Cube.019
v -1.146648 -2.275979 0.192585
v -1.146648 -2.717426 0.180803
v -1.588252 -2.717426 0.180803
v -1.588252 -2.275979 0.192585
v -1.146648 -2.318779 1.796233
v -1.146648 -2.760225 1.784451
v -1.588252 -2.760225 1.784451
v -1.588252 -2.318778 1.796233
vn 0.000000 0.026679 -0.999644
vn -0.000000 -0.026679 0.999644
vn 1.000000 -0.000000 0.000000
vn -0.000000 -0.999644 -0.026679
vn -1.000000 0.000000 -0.000000
vn 0.000000 0.999644 0.026679
usemtl 
s off
f 49//37 50//37 51//37 52//37
f 53//38 56//38 55//38 54//38
f 49//39 53//39 54//39 50//39
f 50//40 54//40 55//40 51//40
f 51//41 55//41 56//41 52//41
f 53//42 49//42 52//42 56//42
o Cube.007_Cube.018
v -1.146648 -2.446320 0.322812
v -1.146648 -2.463356 0.764088
v -1.588252 -2.463356 0.764088
v -1.588252 -2.446320 0.322812
v -1.146648 -0.843295 0.384699
v -1.146648 -0.860330 0.825975
v -1.588252 -0.860330 0.825974
v -1.588252 -0.843295 0.384699
vn 0.000000 -0.999256 -0.038578
vn -0.000000 0.999256 0.038577
vn -0.000000 -0.038577 0.999256
vn 0.000000 0.038578 -0.999256
usemtl 
s off
f 57//43 58//43 59//43 60//43
f 61//44 64//44 63//44 62//44
f 57//39 61//39 62//39 58//39
f 58//45 62//45 63//45 59//45
f 59//41 63//41 64//41 60//41
f 61//46 57//46 60//46 64//46
o Cube.006_Cube.017
v -1.146648 -1.217709 0.621436
v -1.146648 -0.985985 0.997359
v -1.588252 -0.985985 0.997359
v -1.588252 -1.217709 0.621436
v -1.146648 0.147909 -0.220352
v -1.146648 0.379634 0.155571
v -1.588252 0.379633 0.155571
v -1.588252 0.147909 -0.220352
vn 0.000000 -0.851266 0.524734
vn -0.000000 0.851266 -0.524734
vn -0.000000 0.524734 0.851266
vn 0.000000 -0.524734 -0.851266
usemtl 
s off
f 65//47 66//47 67//47 68//47
f 69//48 72//48 71//48 70//48
f 65//39 69//39 70//39 66//39
f 66//49 70//49 71//49 67//49
f 67//41 71//41 72//41 68//41
f 69//50 65//50 68//50 72//50
o Cube.005_Cube.016
v -0.427949 -3.438493 -0.978918
v -0.427949 -3.106409 -0.708100
v -0.990725 -3.106409 -0.708100
v -0.990725 -3.438493 -0.978918
v -0.427949 -2.644872 -1.952076
v -0.427950 -2.312788 -1.681259
v -0.990725 -2.312789 -1.681259
v -0.990725 -2.644872 -1.952076
vn -0.000000 -0.631997 0.774971
vn 0.000000 0.631997 -0.774971
vn -0.000000 0.774971 0.631997
vn 0.000000 -0.774971 -0.631997
usemtl 
s off
f 73//51 74//51 75//51 76//51
f 77//52 80//52 79//52 78//52
f 73//39 77//39 78//39 74//39
f 74//53 78//53 79//53 75//53
f 75//41 79//41 80//41 76//41
f 77//54 73//54 76//54 80//54
o Cube.004_Cube.015
v -0.448197 -2.606439 -2.179252
v -0.448197 -2.881870 -1.790594
v -0.970478 -2.881870 -1.790594
v -0.970478 -2.606439 -2.179252
v -0.448197 -0.723506 -0.844872
v -0.448197 -0.998937 -0.456213
v -0.970478 -0.998937 -0.456214
v -0.970478 -0.723506 -0.844872
vn 0.000000 -0.815894 -0.578201
vn 0.000000 0.815894 0.578201
vn -0.000000 -0.578201 0.815894
vn 0.000000 0.578201 -0.815894
usemtl 
s off
f 81//55 82//55 83//55 84//55
f 85//56 88//56 87//56 86//56
f 81//39 85//39 86//39 82//39
f 82//57 86//57 87//57 83//57
f 83//41 87//41 88//41 84//41
f 85//58 81//58 84//58 88//58
o Cube.003_Cube.014
v -0.427949 -0.884448 -0.989158
v -0.427949 -1.033555 -0.587425
v -0.990725 -1.033555 -0.587425
v -0.990725 -0.884448 -0.989158
v -0.427949 0.292813 -0.552205
v -0.427950 0.143706 -0.150473
v -0.990725 0.143706 -0.150473
v -0.990725 0.292813 -0.552205
vn 0.000000 -0.937507 -0.347965
vn 0.000000 0.937507 0.347966
vn -0.000000 -0.347966 0.937507
vn 0.000000 0.347966 -0.937507
usemtl 
s off
f 89//59 90//59 91//59 92//59
f 93//60 96//60 95//60 94//60
f 89//39 93//39 94//39 90//39
f 90//61 94//61 95//61 91//61
f 91//41 95//41 96//41 92//41
f 93//62 89//62 92//62 96//62
o Cube.002_Cube.013
v -0.269446 3.021071 -0.735888
v -0.269446 3.021071 0.702803
v -1.708137 3.021071 0.702802
v -1.708137 3.021071 -0.735889
v -0.269445 4.459762 -0.735888
v -0.269446 4.459762 0.702803
v -1.708137 4.459762 0.702802
v -1.708136 4.459762 -0.735889
vn 0.000000 -1.000000 0.000000
vn 0.000000 1.000000 0.000000
vn -0.000000 0.000000 1.000000
vn 0.000000 0.000000 -1.000000
usemtl 
s off
f 97//63 98//63 99//63 100//63
f 101//64 104//64 103//64 102//64
f 97//39 101//39 102//39 98//39
f 98//65 102//65 103//65 99//65
f 99//41 103//41 104//41 100//41
f 101//66 97//66 100//66 104//66
o Cube.001_Cube.012
v -0.763576 2.607325 -0.447929
v -0.763576 2.607325 0.002502
v -1.214007 2.607325 0.002502
v -1.214006 2.607325 -0.447929
v -0.763576 3.086699 -0.447929
v -0.763576 3.086699 0.002502
v -1.214007 3.086699 0.002502
v -1.214006 3.086699 -0.447929
usemtl 
s off
f 105//63 106//63 107//63 108//63
f 109//64 112//64 111//64 110//64
f 105//39 109//39 110//39 106//39
f 106//65 110//65 111//65 107//65
f 107//41 111//41 112//41 108//41
f 109//66 105//66 108//66 112//66
o Cube_Cube.011
v -0.333995 0.043650 -0.946233
v -0.333995 0.043650 0.363359
v -1.643587 0.043650 0.363359
v -1.643587 0.043650 -0.946233
v -0.333995 2.626540 -0.946233
v -0.333995 2.626540 0.363360
v -1.643588 2.626540 0.363359
v -1.643587 2.626540 -0.946233
usemtl 
s off
f 113//63 114//63 115//63 116//63
f 117//64 120//64 119//64 118//64
f 113//39 117//39 118//39 114//39
f 114//65 118//65 119//65 115//65
f 115//41 119//41 120//41 116//41
f 117//66 113//66 116//66 120//66
