# Blender v2.59 (sub 0) OBJ File: 'weapon.blend'
# www.blender.org
mtllib weapon_000040.mtl
o Cube
v -0.191241 -1.506810 -1.570732
v 0.793471 0.098074 2.031049
v 0.351724 0.098074 2.151820
v -0.632987 -1.506811 -1.449961
v -0.351724 -0.090958 -2.157732
v 0.632987 1.513926 1.444049
v 0.191241 1.513926 1.564819
v -0.793471 -0.090958 -2.036961
vn 0.104136 -0.918733 0.380899
vn -0.104136 0.918733 -0.380899
vn 0.964600 0.000000 -0.263717
vn 0.242284 0.394878 0.886211
vn -0.964600 -0.000000 0.263718
vn -0.242284 -0.394878 -0.886211
usemtl Material
s off
f 1//1 2//1 3//1 4//1
f 5//2 8//2 7//2 6//2
f 1//3 5//3 6//3 2//3
f 2//4 6//4 7//4 3//4
f 3//5 7//5 8//5 4//5
f 5//6 1//6 4//6 8//6
