# Blender v2.59 (sub 0) OBJ File: 'weapon.blend'
# www.blender.org
mtllib weapon_000043.mtl
o Cube
v 0.131537 -0.920507 -1.978938
v 0.331697 -0.608933 2.068405
v -0.125702 -0.608933 2.091025
v -0.325862 -0.920507 -1.956319
v 0.125702 0.616049 -2.096936
v 0.325862 0.927623 1.950407
v -0.131538 0.927623 1.973026
v -0.331697 0.616049 -2.074317
vn 0.003787 -0.997057 0.076569
vn -0.003787 0.997057 -0.076569
vn 0.998779 0.000000 -0.049394
vn 0.049246 0.076662 0.995840
vn -0.998779 -0.000000 0.049394
vn -0.049247 -0.076662 -0.995840
usemtl Material
s off
f 1//1 2//1 3//1 4//1
f 5//2 8//2 7//2 6//2
f 1//3 5//3 6//3 2//3
f 2//4 6//4 7//4 3//4
f 3//5 7//5 8//5 4//5
f 5//6 1//6 4//6 8//6
