# Blender v2.59 (sub 0) OBJ File: 'weapon.blend'
# www.blender.org
mtllib weapon_000012.mtl
o Cube
v 0.228979 -0.870251 -2.167300
v 0.228979 -0.617426 1.889080
v -0.228979 -0.617426 1.889080
v -0.228979 -0.870251 -2.167301
v 0.228979 0.667856 -2.263165
v 0.228979 0.920681 1.793214
v -0.228979 0.920681 1.793213
v -0.228979 0.667856 -2.263166
vn 0.000000 -0.998063 0.062207
vn -0.000000 0.998063 -0.062207
vn 1.000000 0.000000 0.000000
vn -0.000002 0.062207 0.998063
vn -1.000000 -0.000000 -0.000000
vn 0.000002 -0.062206 -0.998063
usemtl Material
s off
f 1//1 2//1 3//1 4//1
f 5//2 8//2 7//2 6//2
f 1//3 5//3 6//3 2//3
f 2//4 6//4 7//4 3//4
f 3//5 7//5 8//5 4//5
f 5//6 1//6 4//6 8//6
