# Blender v2.59 (sub 0) OBJ File: 'weapon.blend'
# www.blender.org
mtllib weapon_000017.mtl
o Cube
v 0.228979 -0.786110 -2.065772
v 0.228979 -0.738377 1.998199
v -0.228979 -0.738377 1.998198
v -0.228979 -0.786110 -2.065773
v 0.228979 0.754875 -2.083870
v 0.228979 0.802608 1.980100
v -0.228979 0.802608 1.980098
v -0.228979 0.754875 -2.083872
vn -0.000000 -0.999931 0.011745
vn 0.000000 0.999931 -0.011745
vn 1.000000 0.000000 0.000000
vn -0.000002 0.011744 0.999931
vn -1.000000 -0.000000 -0.000000
vn 0.000002 -0.011744 -0.999931
usemtl Material
s off
f 1//1 2//1 3//1 4//1
f 5//2 8//2 7//2 6//2
f 1//3 5//3 6//3 2//3
f 2//4 6//4 7//4 3//4
f 3//5 7//5 8//5 4//5
f 5//6 1//6 4//6 8//6
