# Blender v2.59 (sub 0) OBJ File: 'weapon.blend'
# www.blender.org
mtllib weapon_000004.mtl
o Cube
v 0.228979 -0.797510 -2.068611
v 0.228979 -0.730168 1.995082
v -0.228979 -0.730168 1.995082
v -0.228979 -0.797510 -2.068612
v 0.228979 0.743370 -2.094145
v 0.228979 0.810712 1.969549
v -0.228979 0.810712 1.969547
v -0.228979 0.743370 -2.094146
vn 0.000000 -0.999863 0.016569
vn 0.000000 0.999863 -0.016569
vn 1.000000 0.000000 0.000000
vn -0.000002 0.016569 0.999863
vn -1.000000 -0.000000 -0.000000
vn 0.000002 -0.016569 -0.999863
usemtl Material
s off
f 1//1 2//1 3//1 4//1
f 5//2 8//2 7//2 6//2
f 1//3 5//3 6//3 2//3
f 2//4 6//4 7//4 3//4
f 3//5 7//5 8//5 4//5
f 5//6 1//6 4//6 8//6
