# Blender v2.59 (sub 0) OBJ File: 'weapon.blend'
# www.blender.org
mtllib weapon_000007.mtl
o Cube
v 0.228979 -0.854373 -2.144830
v 0.228979 -0.643182 1.913930
v -0.228979 -0.643182 1.913930
v -0.228979 -0.854373 -2.144830
v 0.228979 0.684636 -2.224909
v 0.228979 0.895827 1.833852
v -0.228979 0.895827 1.833850
v -0.228979 0.684636 -2.224910
vn 0.000000 -0.998649 0.051963
vn 0.000000 0.998649 -0.051963
vn 1.000000 0.000000 0.000000
vn -0.000002 0.051963 0.998649
vn -1.000000 -0.000000 -0.000000
vn 0.000002 -0.051963 -0.998649
usemtl Material
s off
f 1//1 2//1 3//1 4//1
f 5//2 8//2 7//2 6//2
f 1//3 5//3 6//3 2//3
f 2//4 6//4 7//4 3//4
f 3//5 7//5 8//5 4//5
f 5//6 1//6 4//6 8//6
