# Blender v2.59 (sub 0) OBJ File: 'weapon.blend'
# www.blender.org
mtllib weapon_000016.mtl
o Cube
v 0.228979 -0.803103 -2.086325
v 0.228979 -0.714376 1.976958
v -0.228979 -0.714376 1.976957
v -0.228979 -0.803103 -2.086325
v 0.228979 0.737621 -2.119967
v 0.228979 0.826348 1.943315
v -0.228979 0.826348 1.943313
v -0.228979 0.737621 -2.119968
vn -0.000000 -0.999762 0.021831
vn 0.000000 0.999762 -0.021831
vn 1.000000 0.000000 0.000000
vn -0.000003 0.021831 0.999762
vn -1.000000 -0.000000 -0.000000
vn 0.000002 -0.021831 -0.999762
usemtl Material
s off
f 1//1 2//1 3//1 4//1
f 5//2 8//2 7//2 6//2
f 1//3 5//3 6//3 2//3
f 2//4 6//4 7//4 3//4
f 3//5 7//5 8//5 4//5
f 5//6 1//6 4//6 8//6
