# Blender v2.59 (sub 0) OBJ File: 'weapon.blend'
# www.blender.org
mtllib weapon_000028.mtl
o Cube
v -0.216301 -1.550128 -1.524461
v 0.840837 0.159052 2.008143
v 0.402102 0.159052 2.139435
v -0.655036 -1.550129 -1.393170
v -0.402102 -0.151936 -2.145346
v 0.655036 1.557245 1.387258
v 0.216301 1.557244 1.518549
v -0.840837 -0.151936 -2.014055
vn 0.120565 -0.907274 0.402887
vn -0.120565 0.907274 -0.402887
vn 0.958023 0.000000 -0.286690
vn 0.260104 0.420540 0.869191
vn -0.958023 -0.000000 0.286690
vn -0.260105 -0.420540 -0.869191
usemtl Material
s off
f 1//1 2//1 3//1 4//1
f 5//2 8//2 7//2 6//2
f 1//3 5//3 6//3 2//3
f 2//4 6//4 7//4 3//4
f 3//5 7//5 8//5 4//5
f 5//6 1//6 4//6 8//6
