# Blender v2.59 (sub 0) OBJ File: 'weapon.blend'
# www.blender.org
mtllib weapon_000032.mtl
o Cube
v -0.270838 -1.908627 -1.025649
v 1.140576 0.750170 1.705073
v 0.733747 0.750170 1.915348
v -0.677667 -1.908628 -0.815374
v -0.733747 -0.743054 -1.921260
v 0.677667 1.915743 0.809463
v 0.270837 1.915742 1.019737
v -1.140576 -0.743055 -1.710985
vn 0.300378 -0.756329 0.581154
vn -0.300378 0.756329 -0.581154
vn 0.888354 0.000000 -0.459159
vn 0.347273 0.654191 0.671889
vn -0.888354 -0.000000 0.459159
vn -0.347273 -0.654191 -0.671889
usemtl Material
s off
f 1//1 2//1 3//1 4//1
f 5//2 8//2 7//2 6//2
f 1//3 5//3 6//3 2//3
f 2//4 6//4 7//4 3//4
f 3//5 7//5 8//5 4//5
f 5//6 1//6 4//6 8//6
