# Blender v2.59 (sub 0) OBJ File: 'weapon.blend'
# www.blender.org
mtllib weapon_000011.mtl
o Cube
v 0.228979 -0.877995 -2.176534
v 0.228979 -0.606040 1.878608
v -0.228979 -0.606040 1.878607
v -0.228979 -0.877995 -2.176535
v 0.228979 0.659642 -2.279654
v 0.228979 0.931597 1.775488
v -0.228979 0.931597 1.775486
v -0.228979 0.659642 -2.279655
vn -0.000000 -0.997759 0.066914
vn 0.000000 0.997759 -0.066914
vn 1.000000 0.000000 0.000000
vn -0.000002 0.066914 0.997759
vn -1.000000 -0.000000 -0.000000
vn 0.000002 -0.066913 -0.997759
usemtl Material
s off
f 1//1 2//1 3//1 4//1
f 5//2 8//2 7//2 6//2
f 1//3 5//3 6//3 2//3
f 2//4 6//4 7//4 3//4
f 3//5 7//5 8//5 4//5
f 5//6 1//6 4//6 8//6
