# Blender v2.59 (sub 0) OBJ File: 'weapon.blend'
# www.blender.org
mtllib weapon_000038.mtl
o Cube
v -0.275252 -1.820174 -1.175110
v 1.066573 0.585035 1.813637
v 0.648789 0.585035 2.001205
v -0.693036 -1.820174 -0.987542
v -0.648788 -0.577919 -2.007117
v 0.693036 1.827290 0.981631
v 0.275251 1.827289 1.169197
v -1.066573 -0.577920 -1.819549
vn 0.242385 -0.806087 0.539882
vn -0.242385 0.806087 -0.539882
vn 0.912277 0.000000 -0.409575
vn 0.330151 0.591796 0.735376
vn -0.912277 -0.000000 0.409575
vn -0.330151 -0.591796 -0.735376
usemtl Material
s off
f 1//1 2//1 3//1 4//1
f 5//2 8//2 7//2 6//2
f 1//3 5//3 6//3 2//3
f 2//4 6//4 7//4 3//4
f 3//5 7//5 8//5 4//5
f 5//6 1//6 4//6 8//6
