# Blender v2.59 (sub 0) OBJ File: 'weapon.blend'
# www.blender.org
mtllib weapon_000019.mtl
o Cube
v 0.228979 -0.764866 -2.040165
v 0.228979 -0.768055 2.024085
v -0.228979 -0.768055 2.024084
v -0.228979 -0.764866 -2.040166
v 0.228979 0.776225 -2.038955
v 0.228979 0.773036 2.025295
v -0.228979 0.773036 2.025293
v -0.228979 0.776225 -2.038956
vn 0.000000 -1.000000 -0.000785
vn -0.000000 1.000000 0.000785
vn 1.000000 0.000000 0.000000
vn -0.000002 -0.000785 1.000000
vn -1.000000 -0.000000 -0.000000
vn 0.000002 0.000785 -1.000000
usemtl Material
s off
f 1//1 2//1 3//1 4//1
f 5//2 8//2 7//2 6//2
f 1//3 5//3 6//3 2//3
f 2//4 6//4 7//4 3//4
f 3//5 7//5 8//5 4//5
f 5//6 1//6 4//6 8//6
