# Blender v2.59 (sub 0) OBJ File: 'weapon.blend'
# www.blender.org
mtllib weapon_000037.mtl
o Cube
v -0.269870 -1.910419 -1.022549
v 1.140914 0.753716 1.703292
v 0.734201 0.753715 1.913791
v -0.676584 -1.910419 -0.812051
v -0.734200 -0.746599 -1.919702
v 0.676584 1.917535 0.806139
v 0.269870 1.917534 1.016636
v -1.140914 -0.746600 -1.709204
vn 0.301300 -0.755191 0.582155
vn -0.301300 0.755191 -0.582155
vn 0.888102 0.000000 -0.459646
vn 0.347118 0.655504 0.670689
vn -0.888102 -0.000000 0.459646
vn -0.347119 -0.655504 -0.670689
usemtl Material
s off
f 1//1 2//1 3//1 4//1
f 5//2 8//2 7//2 6//2
f 1//3 5//3 6//3 2//3
f 2//4 6//4 7//4 3//4
f 3//5 7//5 8//5 4//5
f 5//6 1//6 4//6 8//6
