# Blender v2.59 (sub 0) OBJ File: 'weapon.blend'
# www.blender.org
mtllib weapon_000041.mtl
o Cube
v -0.091610 -1.301565 -1.753375
v 0.619990 -0.171657 2.085253
v 0.169703 -0.171657 2.168727
v -0.541896 -1.301566 -1.669902
v -0.169703 0.178773 -2.174638
v 0.541897 1.308681 1.663991
v 0.091610 1.308681 1.747463
v -0.619990 0.178773 -2.091165
vn 0.050674 -0.960578 0.273354
vn -0.050674 0.960578 -0.273354
vn 0.983248 0.000000 -0.182273
vn 0.175085 0.278011 0.944487
vn -0.983248 -0.000000 0.182273
vn -0.175085 -0.278011 -0.944487
usemtl Material
s off
f 1//1 2//1 3//1 4//1
f 5//2 8//2 7//2 6//2
f 1//3 5//3 6//3 2//3
f 2//4 6//4 7//4 3//4
f 3//5 7//5 8//5 4//5
f 5//6 1//6 4//6 8//6
