# Blender v2.59 (sub 0) OBJ File: 'weapon.blend'
# www.blender.org
mtllib weapon_000021.mtl
o Cube
v 0.218457 -0.778047 -2.032014
v 0.239539 -0.755906 2.032122
v -0.218413 -0.755906 2.034497
v -0.239495 -0.778047 -2.029639
v 0.218414 0.763022 -2.040408
v 0.239495 0.785162 2.023728
v -0.218457 0.785162 2.026101
v -0.239538 0.763022 -2.038034
vn 0.000028 -0.999985 0.005448
vn -0.000028 0.999985 -0.005448
vn 0.999987 0.000000 -0.005187
vn 0.005184 0.005447 0.999972
vn -0.999987 -0.000000 0.005187
vn -0.005185 -0.005447 -0.999972
usemtl Material
s off
f 1//1 2//1 3//1 4//1
f 5//2 8//2 7//2 6//2
f 1//3 5//3 6//3 2//3
f 2//4 6//4 7//4 3//4
f 3//5 7//5 8//5 4//5
f 5//6 1//6 4//6 8//6
