# Blender v2.59 (sub 0) OBJ File: 'weapon.blend'
# www.blender.org
mtllib weapon_000029.mtl
o Cube
v -0.254793 -1.670824 -1.383982
v 0.944105 0.338322 1.939286
v 0.513322 0.338322 2.094695
v -0.685576 -1.670824 -1.228574
v -0.513322 -0.331206 -2.100606
v 0.685576 1.677940 1.222662
v 0.254793 1.677939 1.378069
v -0.944105 -0.331207 -1.945198
vn 0.167757 -0.869265 0.465011
vn -0.167757 0.869265 -0.465011
vn 0.940660 0.000000 -0.339351
vn 0.294984 0.494346 0.817684
vn -0.940660 -0.000000 0.339351
vn -0.294984 -0.494345 -0.817684
usemtl Material
s off
f 1//1 2//1 3//1 4//1
f 5//2 8//2 7//2 6//2
f 1//3 5//3 6//3 2//3
f 2//4 6//4 7//4 3//4
f 3//5 7//5 8//5 4//5
f 5//6 1//6 4//6 8//6
