# Blender v2.59 (sub 0) OBJ File: 'weapon.blend'
# www.blender.org
mtllib weapon_000015.mtl
o Cube
v 0.228979 -0.822169 -2.109395
v 0.228979 -0.687186 1.952614
v -0.228979 -0.687187 1.952614
v -0.228979 -0.822169 -2.109396
v 0.228979 0.718072 -2.160577
v 0.228979 0.853055 1.901432
v -0.228979 0.853055 1.901430
v -0.228979 0.718072 -2.160578
vn 0.000000 -0.999448 0.033212
vn -0.000000 0.999448 -0.033212
vn 1.000000 0.000000 0.000000
vn -0.000002 0.033212 0.999448
vn -1.000000 -0.000000 -0.000000
vn 0.000002 -0.033211 -0.999448
usemtl Material
s off
f 1//1 2//1 3//1 4//1
f 5//2 8//2 7//2 6//2
f 1//3 5//3 6//3 2//3
f 2//4 6//4 7//4 3//4
f 3//5 7//5 8//5 4//5
f 5//6 1//6 4//6 8//6
