# Blender v2.59 (sub 0) OBJ File: 'weapon.blend'
# www.blender.org
mtllib weapon_000006.mtl
o Cube
v 0.228979 -0.836027 -2.120350
v 0.228979 -0.671523 1.940571
v -0.228979 -0.671523 1.940570
v -0.228979 -0.836027 -2.120350
v 0.228979 0.703801 -2.182725
v 0.228979 0.868305 1.878195
v -0.228979 0.868305 1.878193
v -0.228979 0.703801 -2.182727
vn 0.000000 -0.999180 0.040476
vn -0.000000 0.999180 -0.040476
vn 1.000000 0.000000 0.000000
vn -0.000003 0.040476 0.999181
vn -1.000000 -0.000000 -0.000000
vn 0.000002 -0.040475 -0.999180
usemtl Material
s off
f 1//1 2//1 3//1 4//1
f 5//2 8//2 7//2 6//2
f 1//3 5//3 6//3 2//3
f 2//4 6//4 7//4 3//4
f 3//5 7//5 8//5 4//5
f 5//6 1//6 4//6 8//6
