# Blender v2.59 (sub 0) OBJ File: 'weapon.blend'
# www.blender.org
mtllib weapon_000035.mtl
o Cube
v -0.250091 -1.976102 -0.894084
v 1.190254 0.890911 1.600666
v 0.793651 0.890911 1.829645
v -0.646694 -1.976102 -0.665105
v -0.793650 -0.883795 -1.835557
v 0.646694 1.983218 0.659194
v 0.250090 1.983217 0.888171
v -1.190254 -0.883796 -1.606578
vn 0.352711 -0.708787 0.610914
vn -0.352711 0.708787 -0.610914
vn 0.866025 0.000000 -0.500000
vn 0.354392 0.705422 0.613829
vn -0.866025 -0.000000 0.500000
vn -0.354392 -0.705422 -0.613829
usemtl Material
s off
f 1//1 2//1 3//1 4//1
f 5//2 8//2 7//2 6//2
f 1//3 5//3 6//3 2//3
f 2//4 6//4 7//4 3//4
f 3//5 7//5 8//5 4//5
f 5//6 1//6 4//6 8//6
