# Blender v2.59 (sub 0) OBJ File: 'weapon.blend'
# www.blender.org
mtllib weapon_000034.mtl
o Cube
v -0.253081 -1.969098 -0.908652
v 1.185356 0.875522 1.612692
v 0.787578 0.875522 1.839625
v -0.650859 -1.969098 -0.681719
v -0.787578 -0.868405 -1.845536
v 0.650859 1.976214 0.675807
v 0.253081 1.976213 0.902740
v -1.185356 -0.868406 -1.618603
vn 0.346830 -0.714229 0.607936
vn -0.346830 0.714229 -0.607936
vn 0.868589 0.000000 -0.495533
vn 0.353922 0.699912 0.620373
vn -0.868589 -0.000000 0.495534
vn -0.353923 -0.699912 -0.620372
usemtl Material
s off
f 1//1 2//1 3//1 4//1
f 5//2 8//2 7//2 6//2
f 1//3 5//3 6//3 2//3
f 2//4 6//4 7//4 3//4
f 3//5 7//5 8//5 4//5
f 5//6 1//6 4//6 8//6
