# Blender v2.59 (sub 0) OBJ File: 'weapon.blend'
# www.blender.org
mtllib weapon_000013.mtl
o Cube
v 0.228979 -0.857636 -2.152182
v 0.228979 -0.635886 1.906015
v -0.228979 -0.635886 1.906015
v -0.228979 -0.857636 -2.152183
v 0.228979 0.681159 -2.236264
v 0.228979 0.902909 1.821933
v -0.228979 0.902909 1.821931
v -0.228979 0.681159 -2.236266
vn -0.000000 -0.998510 0.054561
vn -0.000000 0.998510 -0.054561
vn 1.000000 0.000000 0.000000
vn -0.000002 0.054561 0.998510
vn -1.000000 -0.000000 -0.000000
vn 0.000002 -0.054561 -0.998510
usemtl Material
s off
f 1//1 2//1 3//1 4//1
f 5//2 8//2 7//2 6//2
f 1//3 5//3 6//3 2//3
f 2//4 6//4 7//4 3//4
f 3//5 7//5 8//5 4//5
f 5//6 1//6 4//6 8//6
