# Blender v2.59 (sub 0) OBJ File: 'weapon.blend'
# www.blender.org
mtllib weapon_000003.mtl
o Cube
v 0.228979 -0.782810 -2.048746
v 0.228979 -0.752248 2.015389
v -0.228979 -0.752248 2.015389
v -0.228979 -0.782810 -2.048747
v 0.228979 0.758237 -2.060334
v 0.228979 0.788800 2.003802
v -0.228979 0.788800 2.003800
v -0.228979 0.758237 -2.060335
vn -0.000000 -0.999972 0.007520
vn 0.000000 0.999972 -0.007520
vn 1.000000 0.000000 0.000000
vn -0.000002 0.007519 0.999972
vn -1.000000 -0.000000 -0.000000
vn 0.000002 -0.007519 -0.999972
usemtl Material
s off
f 1//1 2//1 3//1 4//1
f 5//2 8//2 7//2 6//2
f 1//3 5//3 6//3 2//3
f 2//4 6//4 7//4 3//4
f 3//5 7//5 8//5 4//5
f 5//6 1//6 4//6 8//6
