# Blender v2.59 (sub 0) OBJ File: 'weapon.blend'
# www.blender.org
mtllib weapon_000022.mtl
o Cube
v 0.187057 -0.825685 -2.016180
v 0.271735 -0.707640 2.045474
v -0.186124 -0.707640 2.055019
v -0.270802 -0.825685 -2.006635
v 0.186124 0.714756 -2.060930
v 0.270802 0.832801 2.000724
v -0.187057 0.832801 2.010267
v -0.271735 0.714756 -2.051385
vn 0.000605 -0.999578 0.029038
vn -0.000605 0.999578 -0.029038
vn 0.999783 0.000000 -0.020844
vn 0.020832 0.029044 0.999361
vn -0.999783 -0.000000 0.020844
vn -0.020833 -0.029044 -0.999361
usemtl Material
s off
f 1//1 2//1 3//1 4//1
f 5//2 8//2 7//2 6//2
f 1//3 5//3 6//3 2//3
f 2//4 6//4 7//4 3//4
f 3//5 7//5 8//5 4//5
f 5//6 1//6 4//6 8//6
