# Blender v2.59 (sub 0) OBJ File: 'weapon.blend'
# www.blender.org
mtllib weapon_000023.mtl
o Cube
v 0.136230 -0.903685 -1.986402
v 0.326145 -0.626708 2.063950
v -0.131311 -0.626708 2.085399
v -0.321226 -0.903685 -1.964953
v 0.131311 0.633824 -2.091310
v 0.321226 0.910800 1.959042
v -0.136230 0.910800 1.980489
v -0.326145 0.633824 -2.069862
vn 0.003192 -0.997675 0.068075
vn -0.003192 0.997675 -0.068075
vn 0.998903 0.000000 -0.046837
vn 0.046726 0.068149 0.996580
vn -0.998903 -0.000000 0.046837
vn -0.046726 -0.068149 -0.996580
usemtl Material
s off
f 1//1 2//1 3//1 4//1
f 5//2 8//2 7//2 6//2
f 1//3 5//3 6//3 2//3
f 2//4 6//4 7//4 3//4
f 3//5 7//5 8//5 4//5
f 5//6 1//6 4//6 8//6
