# Blender v2.59 (sub 0) OBJ File: 'weapon.blend'
# www.blender.org
mtllib weapon_000036.mtl
o Cube
v -0.256437 -1.960347 -0.926548
v 1.179003 0.856578 1.627386
v 0.779781 0.856578 1.851769
v -0.655659 -1.960348 -0.702166
v -0.779781 -0.849461 -1.857680
v 0.655659 1.967464 0.696254
v 0.256437 1.967463 0.920636
v -1.179003 -0.849462 -1.633298
vn 0.339593 -0.720843 0.604203
vn -0.339593 0.720843 -0.604203
vn 0.871743 0.000000 -0.489964
vn 0.353185 0.693098 0.628391
vn -0.871743 -0.000000 0.489964
vn -0.353185 -0.693098 -0.628391
usemtl Material
s off
f 1//1 2//1 3//1 4//1
f 5//2 8//2 7//2 6//2
f 1//3 5//3 6//3 2//3
f 2//4 6//4 7//4 3//4
f 3//5 7//5 8//5 4//5
f 5//6 1//6 4//6 8//6
