# Blender v2.59 (sub 0) OBJ File: 'weapon.blend'
# www.blender.org
mtllib weapon_000009.mtl
o Cube
v 0.228979 -0.877610 -2.175676
v 0.228979 -0.606901 1.879550
v -0.228979 -0.606901 1.879549
v -0.228979 -0.877610 -2.175677
v 0.228979 0.660059 -2.278323
v 0.228979 0.930768 1.776903
v -0.228979 0.930768 1.776901
v -0.228979 0.660059 -2.278324
vn -0.000000 -0.997779 0.066607
vn 0.000000 0.997779 -0.066607
vn 1.000000 0.000000 0.000000
vn -0.000002 0.066607 0.997779
vn -1.000000 -0.000000 -0.000000
vn 0.000002 -0.066607 -0.997779
usemtl Material
s off
f 1//1 2//1 3//1 4//1
f 5//2 8//2 7//2 6//2
f 1//3 5//3 6//3 2//3
f 2//4 6//4 7//4 3//4
f 3//5 7//5 8//5 4//5
f 5//6 1//6 4//6 8//6
