# Blender v2.59 (sub 0) OBJ File: 'weapon.blend'
# www.blender.org
mtllib weapon_000026.mtl
o Cube
v -0.086431 -1.273047 -1.774541
v 0.608794 -0.206967 2.085286
v 0.158088 -0.206967 2.166466
v -0.537136 -1.273047 -1.693362
v -0.158088 0.214082 -2.172377
v 0.537136 1.280163 1.687451
v 0.086430 1.280163 1.768629
v -0.608794 0.214082 -2.091198
vn 0.046498 -0.964985 0.258153
vn -0.046498 0.964985 -0.258153
vn 0.984163 -0.000000 -0.177265
vn 0.171056 0.262307 0.949703
vn -0.984163 -0.000000 0.177265
vn -0.171056 -0.262306 -0.949703
usemtl Material
s off
f 1//1 2//1 3//1 4//1
f 5//2 8//2 7//2 6//2
f 1//3 5//3 6//3 2//3
f 2//4 6//4 7//4 3//4
f 3//5 7//5 8//5 4//5
f 5//6 1//6 4//6 8//6
