# Blender v2.59 (sub 0) OBJ File: 'weapon.blend'
# www.blender.org
mtllib weapon_000005.mtl
o Cube
v 0.228979 -0.816102 -2.093642
v 0.228979 -0.702004 1.969007
v -0.228979 -0.702004 1.969007
v -0.228979 -0.816102 -2.093642
v 0.228979 0.724382 -2.136904
v 0.228979 0.838480 1.925744
v -0.228979 0.838480 1.925743
v -0.228979 0.724382 -2.136906
vn 0.000000 -0.999606 0.028073
vn -0.000000 0.999606 -0.028073
vn 1.000000 0.000000 0.000000
vn -0.000002 0.028073 0.999606
vn -1.000000 -0.000000 -0.000000
vn 0.000002 -0.028073 -0.999606
usemtl Material
s off
f 1//1 2//1 3//1 4//1
f 5//2 8//2 7//2 6//2
f 1//3 5//3 6//3 2//3
f 2//4 6//4 7//4 3//4
f 3//5 7//5 8//5 4//5
f 5//6 1//6 4//6 8//6
