# Blender v2.59 (sub 0) OBJ File: 'weapon.blend'
# www.blender.org
mtllib weapon_000031.mtl
o Cube
v -0.277230 -1.850806 -1.125536
v 1.094852 0.640228 1.777958
v 0.680799 0.640228 1.973624
v -0.691284 -1.850806 -0.929870
v -0.680798 -0.633111 -1.979536
v 0.691284 1.857922 0.923959
v 0.277230 1.857921 1.119623
v -1.094852 -0.633112 -1.783870
vn 0.261872 -0.790150 0.554153
vn -0.261872 0.790150 -0.554153
vn 0.904130 0.000000 -0.427258
vn 0.337596 0.612913 0.714400
vn -0.904130 -0.000000 0.427258
vn -0.337596 -0.612913 -0.714400
usemtl Material
s off
f 1//1 2//1 3//1 4//1
f 5//2 8//2 7//2 6//2
f 1//3 5//3 6//3 2//3
f 2//4 6//4 7//4 3//4
f 3//5 7//5 8//5 4//5
f 5//6 1//6 4//6 8//6
